<svg width="28" height="28" viewBox="0 0 28 28" fill="none" xmlns="http://www.w3.org/2000/svg">
<path d="M27.5 0H18.5H9.50001H0.499974C0.200001 0 0 0.200001 0 0.499974V9.49995V18.4999V27.4999C0 27.7999 0.200001 27.9999 0.499974 27.9999H9.49995H18.4999H27.4999C27.7999 27.9999 27.9999 27.7999 27.9999 27.4999V18.5V9.50001V0.499974C28 0.200001 27.8 0 27.5 0ZM1 9.99998H8.99998V18H1V9.99998ZM9.99998 9.99998H18V18H9.99998V9.99998ZM19 9.99998H26.9999V18H19V9.99998ZM27 8.99998H19V1H26.9999V8.99998H27ZM18 8.99998H9.99998V1H18V8.99998ZM1 1H8.99998V8.99998H1V1ZM1 19H8.99998V26.9999H1V19ZM9.99998 19H18V26.9999H9.99998V19ZM27 27H19V19H26.9999V27H27Z" fill="#4C5462"/>
<path d="M2.64999 1.65L1.64998 2.65C1.44998 2.85 1.44998 3.14998 1.64998 3.34998C1.75001 3.44995 1.89997 3.49999 2 3.49999C2.15001 3.49999 2.24999 3.45001 2.35001 3.34998L3.35002 2.34998C3.55002 2.14997 3.55002 1.85 3.35002 1.65C3.14996 1.45 2.84999 1.45 2.64999 1.65Z" fill="#4C5462"/>
<path d="M2.64999 4.14997L1.64998 5.14997C1.44998 5.34998 1.44998 5.64995 1.64998 5.84995C1.75001 5.94998 1.84998 5.99996 2 5.99996C2.15001 5.99996 2.24999 5.94998 2.35001 5.84995L3.34996 4.85C3.54996 4.65 3.54996 4.35003 3.34996 4.15003C3.14996 3.94997 2.84999 3.94997 2.64999 4.14997Z" fill="#4C5462"/>
<path d="M5.14997 1.65L4.14997 2.65C3.94997 2.85 3.94997 3.14998 4.14997 3.34998C4.24999 3.44995 4.39995 3.49999 4.49998 3.49999C4.65 3.49999 4.74997 3.45001 4.85 3.34998L5.85 2.34998C6.05 2.14997 6.05 1.85 5.85 1.65C5.65 1.45 5.34997 1.45 5.14997 1.65Z" fill="#4C5462"/>
<path d="M11 3.49999C11.15 3.49999 11.25 3.45001 11.35 3.34998L12.35 2.34998C12.55 2.14997 12.55 1.85 12.35 1.65C12.15 1.45 11.85 1.45 11.65 1.65L10.65 2.65C10.45 2.85 10.45 3.14998 10.65 3.34998C10.75 3.45001 10.85 3.49999 11 3.49999Z" fill="#4C5462"/>
<path d="M11 5.99996C11.15 5.99996 11.25 5.94998 11.35 5.84995L12.35 4.84994C12.55 4.64994 12.55 4.34997 12.35 4.14997C12.15 3.94997 11.85 3.94997 11.65 4.14997L10.65 5.14997C10.45 5.34997 10.45 5.64995 10.65 5.84995C10.75 5.94998 10.85 5.99996 11 5.99996Z" fill="#4C5462"/>
<path d="M13.5 3.49999C13.65 3.49999 13.75 3.45001 13.85 3.34998L14.85 2.34998C15.05 2.14997 15.05 1.85 14.85 1.65C14.65 1.45 14.35 1.45 14.15 1.65L13.15 2.65C12.95 2.85 12.95 3.14998 13.15 3.34998C13.25 3.45001 13.35 3.49999 13.5 3.49999Z" fill="#4C5462"/>
<path d="M20 3.49999C20.15 3.49999 20.25 3.45001 20.35 3.34998L21.35 2.34998C21.55 2.14997 21.55 1.85 21.35 1.65C21.15 1.45 20.85 1.45 20.65 1.65L19.65 2.65C19.45 2.85 19.45 3.14998 19.65 3.34998C19.75 3.45001 19.85 3.49999 20 3.49999Z" fill="#4C5462"/>
<path d="M20 5.99996C20.15 5.99996 20.25 5.94998 20.35 5.84995L21.35 4.84994C21.55 4.64994 21.55 4.34997 21.35 4.14997C21.15 3.94997 20.85 3.94997 20.65 4.14997L19.65 5.14997C19.45 5.34997 19.45 5.64995 19.65 5.84995C19.75 5.94998 19.85 5.99996 20 5.99996Z" fill="#4C5462"/>
<path d="M22.5 3.49999C22.65 3.49999 22.75 3.45001 22.85 3.34998L23.85 2.34998C24.05 2.14997 24.05 1.85 23.85 1.65C23.65 1.45 23.35 1.45 23.15 1.65L22.15 2.65C21.95 2.85 21.95 3.14998 22.15 3.34998C22.25 3.45001 22.35 3.49999 22.5 3.49999Z" fill="#4C5462"/>
<path d="M2.64999 10.65L1.64998 11.65C1.44998 11.85 1.44998 12.1499 1.64998 12.3499C1.75001 12.4499 1.84998 12.5 2 12.5C2.15001 12.5 2.24999 12.45 2.35001 12.3499L3.35002 11.3499C3.55002 11.1499 3.55002 10.85 3.35002 10.65C3.14996 10.45 2.84999 10.45 2.64999 10.65Z" fill="#4C5462"/>
<path d="M2.64999 13.15L1.64998 14.15C1.44998 14.35 1.44998 14.65 1.64998 14.85C1.75001 14.95 1.84998 15 2 15C2.15001 15 2.24999 14.95 2.35001 14.85L3.35002 13.85C3.55002 13.65 3.55002 13.35 3.35002 13.15C3.14996 12.95 2.84999 12.95 2.64999 13.15Z" fill="#4C5462"/>
<path d="M5.14997 10.65L4.14997 11.65C3.94997 11.85 3.94997 12.1499 4.14997 12.3499C4.24999 12.4499 4.34997 12.5 4.49998 12.5C4.65 12.5 4.74997 12.45 4.85 12.3499L5.85 11.3499C6.05 11.1499 6.05 10.85 5.85 10.65C5.65 10.45 5.34997 10.45 5.14997 10.65Z" fill="#4C5462"/>
<path d="M11.65 10.65L10.65 11.65C10.45 11.85 10.45 12.1499 10.65 12.3499C10.75 12.4499 10.85 12.5 11 12.5C11.15 12.5 11.25 12.45 11.35 12.3499L12.35 11.3499C12.55 11.1499 12.55 10.85 12.35 10.65C12.15 10.45 11.85 10.45 11.65 10.65Z" fill="#4C5462"/>
<path d="M11.65 13.15L10.65 14.15C10.45 14.35 10.45 14.65 10.65 14.85C10.75 14.95 10.85 15 11 15C11.15 15 11.25 14.95 11.35 14.85L12.35 13.85C12.55 13.65 12.55 13.35 12.35 13.15C12.15 12.95 11.85 12.95 11.65 13.15Z" fill="#4C5462"/>
<path d="M14.15 10.65L13.15 11.65C12.95 11.85 12.95 12.1499 13.15 12.3499C13.25 12.4499 13.35 12.5 13.5 12.5C13.65 12.5 13.75 12.45 13.85 12.3499L14.85 11.3499C15.05 11.1499 15.05 10.85 14.85 10.65C14.65 10.45 14.35 10.45 14.15 10.65Z" fill="#4C5462"/>
<path d="M20.65 10.65L19.65 11.65C19.45 11.85 19.45 12.1499 19.65 12.3499C19.75 12.4499 19.85 12.5 20 12.5C20.15 12.5 20.25 12.45 20.35 12.3499L21.35 11.3499C21.55 11.1499 21.55 10.85 21.35 10.65C21.15 10.45 20.85 10.45 20.65 10.65Z" fill="#4C5462"/>
<path d="M20.65 13.15L19.65 14.15C19.45 14.35 19.45 14.65 19.65 14.85C19.75 14.95 19.85 15 20 15C20.15 15 20.25 14.95 20.35 14.85L21.35 13.85C21.55 13.65 21.55 13.35 21.35 13.15C21.15 12.95 20.85 12.95 20.65 13.15Z" fill="#4C5462"/>
<path d="M23.15 10.65L22.15 11.65C21.95 11.85 21.95 12.1499 22.15 12.3499C22.25 12.4499 22.35 12.5 22.5 12.5C22.65 12.5 22.75 12.45 22.85 12.3499L23.85 11.3499C24.05 11.1499 24.05 10.85 23.85 10.65C23.65 10.45 23.35 10.45 23.15 10.65Z" fill="#4C5462"/>
<path d="M2.64999 19.65L1.64998 20.65C1.44998 20.85 1.44998 21.15 1.64998 21.35C1.75001 21.45 1.84998 21.5 2 21.5C2.15001 21.5 2.24999 21.45 2.35001 21.35L3.35002 20.35C3.55002 20.15 3.55002 19.85 3.35002 19.65C3.14996 19.45 2.84999 19.45 2.64999 19.65Z" fill="#4C5462"/>
<path d="M2.64999 22.15L1.64998 23.15C1.44998 23.35 1.44998 23.65 1.64998 23.85C1.75001 23.95 1.84998 24 2 24C2.15001 24 2.24999 23.95 2.35001 23.85L3.35002 22.85C3.55002 22.65 3.55002 22.35 3.35002 22.1499C3.14996 21.95 2.84999 21.95 2.64999 22.15Z" fill="#4C5462"/>
<path d="M5.14997 19.65L4.14997 20.65C3.94997 20.85 3.94997 21.15 4.14997 21.35C4.24999 21.45 4.34997 21.5 4.49998 21.5C4.65 21.5 4.74997 21.45 4.85 21.35L5.85 20.35C6.05 20.15 6.05 19.85 5.85 19.65C5.65 19.45 5.34997 19.45 5.14997 19.65Z" fill="#4C5462"/>
<path d="M11.65 19.65L10.65 20.65C10.45 20.85 10.45 21.15 10.65 21.35C10.75 21.45 10.85 21.5 11 21.5C11.15 21.5 11.25 21.45 11.35 21.35L12.35 20.35C12.55 20.15 12.55 19.85 12.35 19.65C12.15 19.45 11.85 19.45 11.65 19.65Z" fill="#4C5462"/>
<path d="M11.65 22.15L10.65 23.15C10.45 23.35 10.45 23.65 10.65 23.85C10.75 23.95 10.85 24 11 24C11.15 24 11.25 23.95 11.35 23.85L12.35 22.85C12.55 22.65 12.55 22.35 12.35 22.1499C12.15 21.95 11.85 21.95 11.65 22.15Z" fill="#4C5462"/>
<path d="M14.15 19.65L13.15 20.65C12.95 20.85 12.95 21.15 13.15 21.35C13.25 21.45 13.35 21.5 13.5 21.5C13.65 21.5 13.75 21.45 13.85 21.35L14.85 20.35C15.05 20.15 15.05 19.85 14.85 19.65C14.65 19.45 14.35 19.45 14.15 19.65Z" fill="#4C5462"/>
<path d="M20 21.5C20.15 21.5 20.25 21.45 20.35 21.35L21.35 20.35C21.55 20.15 21.55 19.85 21.35 19.65C21.15 19.45 20.85 19.45 20.65 19.65L19.65 20.65C19.45 20.85 19.45 21.15 19.65 21.35C19.75 21.45 19.85 21.5 20 21.5Z" fill="#4C5462"/>
<path d="M20 24C20.15 24 20.25 23.95 20.35 23.85L21.35 22.85C21.55 22.65 21.55 22.35 21.35 22.1499C21.15 21.9499 20.85 21.9499 20.65 22.1499L19.65 23.1499C19.45 23.3499 19.45 23.6499 19.65 23.8499C19.75 23.95 19.85 24 20 24Z" fill="#4C5462"/>
<path d="M22.5 21.5C22.65 21.5 22.75 21.45 22.85 21.35L23.85 20.35C24.05 20.15 24.05 19.85 23.85 19.65C23.65 19.45 23.35 19.45 23.15 19.65L22.15 20.65C21.95 20.85 21.95 21.15 22.15 21.35C22.25 21.45 22.35 21.5 22.5 21.5Z" fill="#4C5462"/>
</svg>
