<svg width="25" height="29" viewBox="0 0 25 29" fill="none" xmlns="http://www.w3.org/2000/svg">
<path d="M23.9606 14.888L20.5933 10.1548C20.5451 10.1073 20.4849 10.06 20.4186 10.0245C20.4126 10.0206 20.4071 10.0165 20.4009 10.0128C20.2534 9.92567 20.088 9.91014 19.9487 9.96544H16.5737L16.1504 8.07214H18.7653C18.9577 8.07214 19.0539 7.93014 19.1502 7.78814C19.2464 7.64614 19.2464 7.45683 19.1502 7.31483L17.226 4.47485C17.1298 4.38017 16.9855 4.28554 16.8411 4.28554H15.3037L14.4358 0.404142C14.4006 0.230748 14.2877 0.108496 14.1354 0.0553575C14.0165 -0.00404909 13.8846 -0.018249 13.7663 0.0255155H10.1063C9.86579 0.0255155 9.67339 0.167514 9.62531 0.404198L8.7575 4.28548H7.22005C7.07573 4.28548 6.93142 4.38017 6.7871 4.52217L4.86293 7.36214C4.7667 7.50414 4.7667 7.69346 4.86293 7.83546C4.95916 7.97745 5.10347 8.07214 5.29587 8.07214H7.91084L7.48753 9.96544H3.85273C3.84061 9.96544 3.82854 9.96705 3.81642 9.96838C3.74736 9.97204 3.67797 9.98691 3.61218 10.0128C3.5314 10.0724 3.46792 10.1572 3.43173 10.2529L0.100548 14.9355C0.00431949 15.0775 -0.0437666 15.2668 0.0524619 15.4088C0.14869 15.5508 0.293005 15.6455 0.485405 15.6455H6.21757L4.41843 23.6921H2.40958C2.12095 23.6921 1.92855 23.8814 1.92855 24.1654V27.952C1.92855 28.236 2.12095 28.4254 2.40958 28.4254H21.6515C21.9401 28.4254 22.1325 28.236 22.1325 27.952V24.1654C22.1325 23.8814 21.9401 23.6921 21.6515 23.6921H19.6427L18.9082 20.4072C18.9089 20.3977 18.9095 20.3882 18.9095 20.3787C18.9095 20.26 18.8853 20.1652 18.8369 20.0881L17.8435 15.6455H23.5757C23.7681 15.6455 23.9124 15.5508 24.0086 15.3615C24.0568 15.2193 24.0568 15.03 23.9606 14.888ZM19.257 10.9121L17.4395 13.8383L16.7853 10.9121H19.257ZM10.3979 1.39187L11.2894 2.18229L9.96056 3.35905L10.3979 1.39187ZM14.1201 3.42373L12.736 2.19799L13.6574 1.36191L14.1201 3.42373ZM12.7697 7.07643L14.6042 5.58045L14.9509 7.12541H12.83L12.7697 7.07643ZM13.6026 5.23211L12.0373 6.48208L10.4972 5.23211H13.6026ZM10.4356 4.28543L12.0298 2.83876L13.6614 4.28543H10.4356ZM12.0038 1.54962L11.3518 0.972138H12.656L12.0038 1.54962ZM11.273 7.0924L11.2317 7.12541H9.12325L9.45709 5.62382L11.273 7.0924ZM12.4844 8.07208L14.8255 9.96538H12.0886C12.0357 9.95729 11.9815 9.95706 11.9279 9.96538H9.22703L11.5488 8.07208H12.4844ZM7.63523 13.8185L8.28138 10.9121H10.8138L7.63523 13.8185ZM12.0325 11.0786L16.0059 14.6987H8.05904L12.0325 11.0786ZM14.9737 15.6453L12.0546 16.9563L9.13548 15.6453H14.9737ZM13.251 10.9121H15.8008L16.4592 13.8456L13.251 10.9121ZM6.60107 13.9301L4.72662 10.9121H7.27586L6.60107 13.9301ZM7.19479 15.7998L10.9031 17.4736L6.37011 19.5093L7.19479 15.7998ZM12.0546 17.9933L17.1297 20.284L12.0546 22.0043L6.97956 20.284L12.0546 17.9933ZM13.2062 17.4735L16.8993 15.8066L17.7293 19.5049L13.2062 17.4735ZM15.4233 9.23004L13.9965 8.07208H15.1634L15.4233 9.23004ZM17.8994 7.12541H15.9386L15.5153 5.23211H16.6005L17.8994 7.12541ZM6.2099 7.12541L7.50873 5.23211H8.54588L8.12257 7.12541H6.2099ZM10.0462 8.07208L8.6681 9.17263L8.91275 8.07208H10.0462ZM3.84072 11.2671L6.00301 14.6987H1.39938L3.84072 11.2671ZM6.04383 20.9768L10.5626 22.51L7.07573 23.6919H5.44019L6.04383 20.9768ZM12.0546 23.0163L14.0462 23.692H10.0631L12.0546 23.0163ZM21.1705 25.5853H19.2463C18.9577 25.5853 18.7653 25.7746 18.7653 26.0586C18.7653 26.3426 18.9577 26.5319 19.2463 26.5319H21.1705V27.4786H2.89067V26.5319H4.81484C5.10347 26.5319 5.29587 26.3426 5.29587 26.0586C5.29587 25.7746 5.10347 25.5853 4.81484 25.5853H2.89067V24.6386H4.81484H19.2463H21.1705V25.5853ZM17.0335 23.692L13.5466 22.51L18.06 20.9787L18.669 23.692H17.0335V23.692ZM18.01 14.6987L20.1949 11.2312L22.6618 14.6987H18.01Z" fill="#4C5462"/>
</svg>
