<svg width="27" height="29" viewBox="0 0 27 29" fill="none" xmlns="http://www.w3.org/2000/svg">
<path d="M23.8 3.41323V1.44516C23.8 0.626218 23.1934 0 22.4 0H2.3333C1.53995 0 0.933297 0.626218 0.933297 1.44516V3.37202H0.466649C0.186649 3.37202 0 3.56469 0 3.85373C0 4.14276 0.186649 4.33548 0.466649 4.33548H0.933297V6.26235C0.933297 6.91103 1.31409 7.4384 1.86665 7.62983V10.5978C1.86665 11.6576 2.70665 12.5247 3.7333 12.5247C4.05995 12.5247 4.38665 12.4283 4.66665 12.2838V14.4516C4.66665 15.5114 5.50665 16.3785 6.5333 16.3785C7.55995 16.3785 8.39995 15.5114 8.39995 14.4516V10.9351C8.6333 11.0314 8.86659 11.0796 9.09995 11.0796C9.98659 11.0796 10.7333 10.3089 10.7333 9.39355V7.70751H22.3999C23.1933 7.70751 23.7999 7.08129 23.7999 6.26235V4.3969C24.6027 4.61221 25.1999 5.36877 25.1999 6.2624V8.18927C25.1999 9.10452 24.5466 9.92346 23.7066 10.1161C23.3332 10.2125 17.4066 10.7423 13.5332 11.0796C12.5066 11.0796 11.6666 11.9467 11.6666 13.0065V15.8968H8.86659C8.72659 15.8968 8.58659 15.9931 8.49324 16.0894C8.39989 16.1857 8.35324 16.3303 8.39989 16.4748L8.86654 18.8835C8.91319 19.1243 9.09989 19.2689 9.33319 19.2689H9.79984V26.4947C9.79984 27.8435 10.8265 28.9033 12.1332 28.9033C13.4398 28.9033 14.4665 27.8435 14.4665 26.4947V19.2689H14.9332C15.1665 19.2689 15.3532 19.1243 15.3998 18.8835L15.8665 16.4748C15.9131 16.3303 15.8665 16.1858 15.7731 16.0894C15.6798 15.9449 15.5398 15.8968 15.3998 15.8968H12.5998V13.0065C12.5998 12.4765 13.0198 12.043 13.5798 12.043C15.2131 11.8985 23.4731 11.1759 23.8931 11.0795C25.1998 10.7905 26.1331 9.58622 26.1331 8.18921V6.26235C26.1333 4.83677 25.1198 3.6444 23.8 3.41323ZM9.8 9.39355C9.8 9.77894 9.47335 10.1161 9.1 10.1161C8.72665 10.1161 8.4 9.77894 8.4 9.39355V8.67097C8.4 8.38194 8.21335 8.18927 7.93335 8.18927C7.65335 8.18927 7.4667 8.38194 7.4667 8.67097V9.39355V9.63443V14.4516C7.4667 14.9815 7.0467 15.4151 6.53335 15.4151C6.02 15.4151 5.6 14.9815 5.6 14.4516V10.5978V9.15267C5.6 8.86364 5.41335 8.67097 5.13335 8.67097C4.85335 8.67097 4.6667 8.86364 4.6667 9.15267V10.5978C4.6667 11.1277 4.2467 11.5613 3.73335 11.5613C3.22 11.5613 2.8 11.1277 2.8 10.5978V7.70751H9.8V9.39355ZM22.8667 6.26235C22.8667 6.55138 22.68 6.74405 22.4 6.74405H10.2666H2.3333C2.0533 6.74405 1.86665 6.55138 1.86665 6.26235V1.44516C1.86665 1.20428 2.1 0.96346 2.3333 0.96346H22.3999C22.6799 0.96346 22.8666 1.15613 22.8666 1.44516V6.26235H22.8667ZM14.56 18.3054H14C13.72 18.3054 13.5334 18.4981 13.5334 18.7871V26.4946C13.5334 27.3135 12.9267 27.9398 12.1334 27.9398C11.34 27.9398 10.7334 27.3135 10.7334 26.4946H11.6666C11.9466 26.4946 12.1333 26.3019 12.1333 26.0129C12.1333 25.7239 11.9466 25.5312 11.6666 25.5312H10.7333V24.5677H11.6666C11.9466 24.5677 12.1333 24.3751 12.1333 24.086C12.1333 23.797 11.9466 23.6043 11.6666 23.6043H10.7333V18.7871C10.7333 18.4981 10.5466 18.3054 10.2666 18.3054H9.70665L9.42665 16.8602H14.84L14.56 18.3054Z" fill="#4C5462"/>
<path d="M5.92664 2.07137C5.73999 1.8787 5.45999 1.92686 5.27329 2.11953L2.93994 5.00985C2.75329 5.20252 2.79994 5.49155 2.98658 5.68428C3.03323 5.73243 3.17323 5.78064 3.26658 5.78064C3.40658 5.78064 3.54658 5.73249 3.63994 5.63612L5.97329 2.7458C6.15999 2.55313 6.11329 2.2641 5.92664 2.07137Z" fill="#4C5462"/>
<path d="M9.19327 2.07137C9.00662 1.8787 8.72662 1.92686 8.53992 2.11953L6.20657 5.00985C6.01992 5.20252 6.06657 5.49155 6.25322 5.68428C6.29987 5.73243 6.43987 5.78064 6.53322 5.78064C6.67322 5.78064 6.81322 5.73249 6.90657 5.63612L9.23992 2.7458C9.42662 2.55313 9.37998 2.2641 9.19327 2.07137Z" fill="#4C5462"/>
<path d="M12.46 2.07137C12.2733 1.8787 11.9933 1.92686 11.8066 2.11953L9.47328 5.00985C9.28663 5.20252 9.33328 5.49155 9.51993 5.68428C9.56658 5.73243 9.70658 5.78064 9.79993 5.78064C9.93993 5.78064 10.0799 5.73249 10.1733 5.63612L12.5066 2.7458C12.6933 2.55313 12.6466 2.2641 12.46 2.07137Z" fill="#4C5462"/>
<path d="M15.7266 2.07137C15.54 1.8787 15.26 1.92686 15.0733 2.11953L12.7399 5.00985C12.5533 5.20252 12.5999 5.49155 12.7866 5.68428C12.8332 5.73243 12.9732 5.78064 13.0666 5.78064C13.2066 5.78064 13.3466 5.73249 13.4399 5.63612L15.7733 2.7458C15.96 2.55313 15.9133 2.2641 15.7266 2.07137Z" fill="#4C5462"/>
<path d="M18.9933 2.07137C18.8066 1.8787 18.5266 1.92686 18.3399 2.11953L16.0066 5.00985C15.8199 5.20252 15.8666 5.49155 16.0532 5.68428C16.0999 5.73243 16.2399 5.78064 16.3332 5.78064C16.4732 5.78064 16.6132 5.73249 16.7066 5.63612L19.0399 2.7458C19.2266 2.55313 19.18 2.2641 18.9933 2.07137Z" fill="#4C5462"/>
<path d="M21.14 2.11959L18.8066 5.00991C18.62 5.20258 18.6666 5.49162 18.8533 5.68434C18.8999 5.7325 19.0399 5.78071 19.1333 5.78071C19.2733 5.78071 19.4133 5.73255 19.5066 5.63619L21.84 2.74587C22.0266 2.5532 21.98 2.26416 21.7933 2.07144C21.6067 1.87871 21.3266 1.92687 21.14 2.11959Z" fill="#4C5462"/>
</svg>
