<svg width="32" height="32" viewBox="0 0 32 32" fill="none" xmlns="http://www.w3.org/2000/svg">
<path d="M31.4667 5.86667H0.533333C0.238802 5.86667 0 6.10547 0 6.4V23.4667C0 23.7612 0.238802 24 0.533333 24H2.13333V25.6C2.13333 25.8945 2.37214 26.1333 2.66667 26.1333H4.8C5.09453 26.1333 5.33333 25.8945 5.33333 25.6V24H26.6667V25.6C26.6667 25.8945 26.9055 26.1333 27.2 26.1333H29.3333C29.6279 26.1333 29.8667 25.8945 29.8667 25.6V24H31.4667C31.7612 24 32 23.7612 32 23.4667V6.4C32 6.10547 31.7612 5.86667 31.4667 5.86667ZM4.26667 25.0667H3.2V24H4.26667V25.0667ZM1.06667 22.9333V6.93334H24.5333V22.9333H1.06667ZM28.8 25.0667H27.7333V24H28.8V25.0667ZM30.9333 22.9333H25.6V6.93334H30.9333V22.9333Z" fill="#4C5462"/>
<path d="M22.9333 8H2.66667C2.37214 8 2.13334 8.2388 2.13334 8.53333V21.3333C2.13334 21.6279 2.37214 21.8667 2.66667 21.8667H22.9333C23.2279 21.8667 23.4667 21.6279 23.4667 21.3333V8.53333C23.4667 8.2388 23.2279 8 22.9333 8ZM3.2 9.06667H19.2V20.8H3.2V9.06667ZM22.4 20.8H20.2667V9.06667H22.4V20.8Z" fill="#4C5462"/>
<path d="M28.2667 14.4C29.1503 14.4 29.8667 13.6836 29.8667 12.8C29.8667 11.9164 29.1503 11.2 28.2667 11.2C27.3831 11.2 26.6667 11.9164 26.6667 12.8C26.6667 13.6836 27.3831 14.4 28.2667 14.4ZM28.2667 12.2667C28.5612 12.2667 28.8 12.5055 28.8 12.8C28.8 13.0945 28.5612 13.3333 28.2667 13.3333C27.9721 13.3333 27.7333 13.0945 27.7333 12.8C27.7333 12.5055 27.9721 12.2667 28.2667 12.2667Z" fill="#4C5462"/>
<path d="M28.2667 19.7333C29.1503 19.7333 29.8667 19.0169 29.8667 18.1333C29.8667 17.2497 29.1503 16.5333 28.2667 16.5333C27.3831 16.5333 26.6667 17.2497 26.6667 18.1333C26.6667 19.0169 27.3831 19.7333 28.2667 19.7333ZM28.2667 17.6C28.5612 17.6 28.8 17.8388 28.8 18.1333C28.8 18.4279 28.5612 18.6667 28.2667 18.6667C27.9721 18.6667 27.7333 18.4279 27.7333 18.1333C27.7333 17.8388 27.9721 17.6 28.2667 17.6Z" fill="#4C5462"/>
<path d="M26.6667 8H27.7333V9.06667H26.6667V8Z" fill="#4C5462"/>
<path d="M28.8 8H29.8667V9.06667H28.8V8Z" fill="#4C5462"/>
<path d="M26.6667 20.8H29.8667V21.8667H26.6667V20.8Z" fill="#4C5462"/>
<path d="M8.15625 13.4893L9.75651 11.8891L10.5107 12.6435L8.91042 14.2435L8.15625 13.4893Z" fill="#4C5462"/>
<path d="M8.15599 17.2226L13.4893 11.8893L14.2435 12.6437L8.91042 17.9771L8.15599 17.2226Z" fill="#4C5462"/>
<path d="M11.8898 17.2227L13.4901 15.6224L14.2443 16.3768L12.644 17.9768L11.8898 17.2227Z" fill="#4C5462"/>
</svg>
