<svg width="28" height="28" viewBox="0 0 28 28" fill="none" xmlns="http://www.w3.org/2000/svg">
<path d="M27.0508 11.8644H25.567C25.6824 11.5405 25.6712 11.1678 25.5322 10.8203L21.3085 0.664398C21.1661 0.237289 20.7864 0 20.3593 0C19.9322 0 19.6 0.237289 19.4102 0.61693L16.3811 8.06777H13.7627H10.9152V4.74578C10.9152 4.46102 10.7254 4.2712 10.4407 4.2712H3.79663H0.474578C0.18982 4.2712 0 4.46102 0 4.74578V8.54241V12.339V16.1357V19.9323V23.7289V27.5255C0 27.8103 0.18982 28.0001 0.474578 28.0001H7.11867H13.7627H20.4068H27.0509C27.3357 28.0001 27.5255 27.8103 27.5255 27.573V23.7764C27.5255 23.7683 27.5248 23.7606 27.5245 23.7526C27.5248 23.7447 27.5255 23.737 27.5255 23.7289V19.9323V16.1357V12.339C27.5254 12.0542 27.3356 11.8644 27.0508 11.8644ZM20.6024 27.0381C20.5442 27.0155 20.4785 27.0034 20.4068 27.0034C19.7859 27.0034 19.2778 26.6378 19.0765 26.1017H19.9322C20.217 26.1017 20.4068 25.9119 20.4068 25.6272C20.4068 25.3424 20.217 25.1526 19.9322 25.1526H18.9831V24.2034H19.9322C20.217 24.2034 20.4068 24.0136 20.4068 23.7289C20.4068 23.4441 20.217 23.2543 19.9322 23.2543H19.141C19.4602 22.3086 19.5502 21.0052 19.4102 19.8848C19.3765 19.514 19.2946 19.0717 19.1481 18.6593C19.1414 18.64 19.1345 18.6213 19.1276 18.6024C19.1252 18.5959 19.1229 18.5894 19.1204 18.583C19.0651 18.4338 19.0037 18.2969 18.9356 18.1763L18.556 17.2272C18.5085 17.0848 18.5085 16.9424 18.6034 16.8001C18.6984 16.7051 18.8407 16.6102 18.9831 16.6102H19.4576H21.356H21.8305C21.9729 16.6102 22.1153 16.7052 22.1628 16.8001C22.2577 16.9424 22.2577 17.0848 22.2102 17.2272L21.8306 18.1763C21.5458 18.6509 21.4035 19.3628 21.356 19.8848C21.356 19.9116 21.3602 19.9382 21.3659 19.9647C21.2644 21.1036 21.3942 22.4085 21.6882 23.3493C21.7357 23.4916 21.7357 23.634 21.7831 23.8238C21.8108 23.9069 21.8221 23.9895 21.8269 24.0632C21.8293 24.1115 21.8306 24.1588 21.8306 24.2035V25.6273C21.8305 26.3673 21.3111 26.9473 20.6024 27.0381ZM13.7627 23.2542H10.9152V20.4067H13.7627H16.6102V23.2542H13.7627ZM7.11862 23.2542H4.2712V20.4067H7.11867H9.96614V23.2542H7.11862ZM0.949156 23.2542V20.4067H3.32205V23.2542H0.949156ZM3.79663 9.01693H6.64409V11.8644H3.79663H0.949156V9.01693H3.79663ZM13.7627 12.8136H16.6102V15.661H13.7627H10.9152V12.8136H13.7627ZM18.9831 12.8136V15.661H17.5593V12.8136H18.9831ZM23.2542 12.8136V15.661H21.8305V12.8136H23.2542ZM26.5763 19.4576H23.7763H23.7288H22.5037C22.5683 19.1132 22.6605 18.8179 22.7796 18.6034V18.556L23.1593 17.5593C23.2625 17.2498 23.2654 16.9154 23.1691 16.6102H23.7287H26.5762V19.4576H26.5763ZM22.6848 23.0169C22.4546 22.2496 22.3624 21.2756 22.4005 20.4067H23.2543V23.2542H22.7637C22.7414 23.169 22.7154 23.0884 22.6848 23.0169ZM24.2508 20.4068H26.5763V23.2543H24.2508V20.4068ZM20.8813 15.661H19.9322V12.8136H20.8813V15.661ZM17.0848 19.4576H14.2373V16.6102H17.0848H17.6068C17.5679 16.7269 17.5452 16.8518 17.5415 16.9812C17.5414 16.9832 17.5414 16.9852 17.5413 16.9871C17.541 17.0017 17.5409 17.0165 17.5411 17.0312C17.5408 17.2087 17.5781 17.3878 17.6543 17.5593L18.0814 18.6508C18.2237 18.8407 18.3187 19.1254 18.3661 19.4576H17.0848ZM10.4407 19.4576H7.5932V16.6102H10.4407H13.2881V19.4576H10.4407ZM3.79663 19.4576H0.949156V16.6102H3.79663H6.64409V19.4576H3.79663ZM0.949156 12.8136H3.32205V15.661H0.949156V12.8136ZM9.96609 15.661H7.11862H4.2712V12.8136H7.11867H9.96614V15.661H9.96609ZM17.5593 20.4068H18.5085C18.5094 20.415 18.5099 20.4232 18.5107 20.4314C18.5581 21.3111 18.4785 22.2913 18.2712 23.017C18.2237 23.1119 18.1763 23.1593 18.1763 23.2543H17.5593V20.4068ZM26.5763 15.661H24.2034V12.8136H26.5763V15.661ZM20.2644 0.996625C20.3119 0.996625 20.3119 0.949156 20.3593 0.949156C20.4068 0.949156 20.4543 0.996625 20.4543 0.996625L24.5831 11.1525C24.678 11.2949 24.6305 11.4848 24.5356 11.6271C24.4407 11.7695 24.2983 11.8644 24.1085 11.8644H23.7289H21.356H19.4576H17.0848H16.8346C16.7695 11.8338 16.6941 11.8169 16.6102 11.8169C16.4678 11.8169 16.278 11.722 16.1831 11.5796C16.128 11.4971 16.1056 11.4142 16.1052 11.3223C16.1076 11.2625 16.1184 11.2044 16.1356 11.1525L20.2644 0.996625ZM15.2825 10.7699L15.2813 10.7729C15.1327 11.1443 15.1302 11.5157 15.2724 11.8644H14.2373V9.01693H15.9932L15.2825 10.7699ZM13.2881 11.8644H10.4407H7.5932V9.01693H10.4407H13.2881V11.8644ZM9.96609 8.06777H7.11862H4.2712V5.22036H9.96614V8.06777H9.96609ZM0.949156 5.22036H3.32205V8.06783H0.949156V5.22036ZM0.949156 24.2034H3.79663H6.64409V27.0508H0.949156V24.2034ZM7.5932 24.2034H10.4407H13.2881V27.0508H7.5932V24.2034ZM14.2373 24.2034H17.0848H18.0339V25.6271C18.0339 25.6613 18.0348 25.6955 18.0364 25.7296C18.0567 26.2276 18.2239 26.6818 18.4972 27.0508H14.2373V24.2034H14.2373ZM26.5763 27.0508H22.3363C22.6419 26.6565 22.8361 26.1652 22.8745 25.6271V24.2034H23.7287H26.5762V27.0508H26.5763Z" fill="#4C5462"/>
</svg>
