<svg width="23" height="28" viewBox="0 0 23 28" fill="none" xmlns="http://www.w3.org/2000/svg">
<path d="M22.3688 13.5055C22.35 12.9588 22.1716 12.2683 21.9513 11.8277C20.8794 9.59058 20.0405 5.02326 20.0405 1.43459C20.0405 0.642282 19.388 0.0364337 18.6423 0.0364337H17.8966C17.7728 -0.0254227 17.6287 -0.00482239 17.5185 0.0703603C17.3706 0.127608 17.2729 0.254264 17.2498 0.424063C16.0084 2.21185 13.7937 3.25224 11.232 3.25224C8.57543 3.25224 6.29175 2.13372 5.08005 0.222891C4.94023 0.0830758 4.75383 -0.0101529 4.52079 0.0364892H3.72848C2.93618 0.0364892 2.33033 0.688979 2.33033 1.43464C2.33033 4.97667 1.49144 9.54405 0.419502 11.7811C0.193287 12.2335 0.0115495 12.9925 0.00105506 13.5055H0V13.5521V18.1661V20.4963V25.1569V26.6017C0 27.394 0.605848 27.9998 1.39815 27.9998H20.9726C21.7649 27.9998 22.3707 27.3474 22.3707 26.6483V25.1569V20.4963V18.1661V13.5987V13.5055H22.3688ZM0.932121 17.2339V14.4376H21.4386V17.2339H0.932121ZM19.1083 1.43459C19.1083 5.16307 19.9939 9.82362 21.1124 12.2005C21.2914 12.5137 21.4271 13.127 21.4376 13.5055H11.6514V11.6147C11.7033 11.6087 11.7548 11.6014 11.806 11.5935C11.8242 11.5906 11.8424 11.5878 11.8605 11.5848C11.9107 11.5763 11.9605 11.5669 12.01 11.5565C12.0345 11.5514 12.0589 11.546 12.0833 11.5406C12.1262 11.5307 12.1689 11.5205 12.2113 11.5093C12.2433 11.5009 12.275 11.4919 12.3067 11.4827C12.3215 11.4785 12.3361 11.474 12.3508 11.4695C14.3993 10.8534 15.8297 8.65846 16.7642 6.36344C17.6206 4.27137 18.0661 2.09857 18.1883 0.96861H18.6423C18.9219 0.968499 19.1083 1.20154 19.1083 1.43459ZM11.1854 4.23095C13.5157 4.23095 15.613 3.43864 17.0577 1.99385C16.6298 4.34711 15.4108 8.20059 13.3383 9.88148C13.3354 9.88381 13.3325 9.88614 13.3297 9.88842C13.2918 9.91901 13.2536 9.94878 13.2152 9.97787C13.2058 9.98493 13.1964 9.99181 13.1871 9.99875C13.1517 10.0251 13.1161 10.0511 13.0802 10.0762C13.0687 10.0843 13.0569 10.0919 13.0453 10.0999C12.9877 10.1393 12.9294 10.1768 12.8705 10.2128C12.8485 10.2263 12.8265 10.2402 12.8043 10.2532C12.7808 10.2669 12.757 10.2797 12.7333 10.2929C12.7055 10.3084 12.6777 10.3238 12.6496 10.3385C12.6269 10.3503 12.604 10.3616 12.5812 10.373C12.5511 10.3879 12.5209 10.4024 12.4905 10.4164C12.4688 10.4264 12.4472 10.4362 12.4254 10.4457C12.3917 10.4603 12.3577 10.4743 12.3236 10.4878C12.3047 10.4953 12.2858 10.5031 12.2668 10.5103C12.2196 10.528 12.1722 10.5445 12.1243 10.56C12.118 10.562 12.1118 10.5644 12.1055 10.5664C12.051 10.5836 11.996 10.5991 11.9407 10.6133C11.9244 10.6175 11.9081 10.6209 11.8918 10.6248C11.8522 10.6343 11.8125 10.6432 11.7724 10.6512C11.7523 10.6551 11.7321 10.6587 11.7119 10.6622C11.6746 10.6688 11.637 10.6747 11.5993 10.6799C11.5786 10.6828 11.5578 10.6856 11.5369 10.6881C11.4972 10.6927 11.4573 10.6963 11.4172 10.6993C11.3987 10.7007 11.3804 10.7025 11.3619 10.7037C11.3034 10.707 11.2447 10.7092 11.1853 10.7092C11.126 10.7092 11.0673 10.707 11.0088 10.7037C10.9903 10.7026 10.972 10.7008 10.9535 10.6993C10.9134 10.6963 10.8734 10.6927 10.8337 10.6881C10.8129 10.6856 10.7921 10.6828 10.7713 10.6799C10.7336 10.6747 10.6961 10.6688 10.6588 10.6622C10.6386 10.6587 10.6184 10.6551 10.5983 10.6512C10.5582 10.6432 10.5185 10.6343 10.4789 10.6248C10.4626 10.6209 10.4462 10.6175 10.43 10.6133C10.3747 10.5991 10.3197 10.5836 10.2652 10.5664C10.2589 10.5644 10.2527 10.562 10.2463 10.56C10.1985 10.5445 10.151 10.528 10.1039 10.5103C10.0849 10.5031 10.066 10.4953 10.047 10.4878C10.013 10.4742 9.97897 10.4603 9.94527 10.4457C9.9235 10.4362 9.90179 10.4264 9.88019 10.4164C9.84982 10.4024 9.81961 10.3879 9.78952 10.373C9.76664 10.3617 9.74376 10.3503 9.72111 10.3385C9.69301 10.3239 9.66519 10.3084 9.63732 10.2929C9.61367 10.2798 9.58984 10.267 9.56636 10.2533C9.54404 10.2402 9.52205 10.2262 9.49984 10.2127C9.4412 10.1768 9.38306 10.1395 9.32565 10.1001C9.31393 10.0921 9.30211 10.0844 9.29039 10.0763C9.25452 10.0512 9.21904 10.0253 9.18367 9.99892C9.17423 9.99192 9.16479 9.98498 9.15541 9.97793C9.11698 9.94883 9.07878 9.91913 9.04091 9.88853C9.03808 9.88625 9.03519 9.88392 9.03236 9.88159C6.95978 8.2007 5.74081 4.34722 5.31293 1.99396C6.75783 3.43864 8.85506 4.23095 11.1854 4.23095ZM1.25834 12.2005C2.37686 9.82357 3.2624 5.2096 3.2624 1.43459C3.2624 1.15496 3.49544 0.968555 3.72843 0.968555H4.22034C4.33727 2.21762 4.85778 4.74124 5.89645 7.02115C6.8228 9.06596 8.16854 10.9125 10.0199 11.4695C10.0346 11.4739 10.0493 11.4785 10.0641 11.4827C10.0958 11.4919 10.1275 11.5009 10.1595 11.5093C10.2019 11.5205 10.2447 11.5308 10.2876 11.5406C10.3119 11.5462 10.3363 11.5515 10.3608 11.5566C10.4102 11.5669 10.4601 11.5764 10.5102 11.5849C10.5284 11.5879 10.5466 11.5907 10.5648 11.5935C10.616 11.6015 10.6674 11.6088 10.7193 11.6147V13.5055H0.933121C0.943726 13.127 1.07938 12.5138 1.25834 12.2005ZM0.932121 18.166H10.7193V20.4963H0.932121V18.166ZM0.932121 24.2248V21.4284H21.4386V24.2248H0.932121ZM0.932121 26.6017V25.1569H10.7193V27.0677H1.39815C1.11852 27.0677 0.932121 26.8813 0.932121 26.6017ZM21.4386 26.6017C21.4386 26.8813 21.2522 27.0677 20.9726 27.0677H11.6514V25.1569H21.4386V26.6017ZM21.4386 20.4963H11.6514V18.1661H21.4386V20.4963Z" fill="#4C5462"/>
</svg>
