<svg width="32" height="23" viewBox="0 0 32 23" fill="none" xmlns="http://www.w3.org/2000/svg">
<path d="M15.6571 6.71424C15.7714 6.77136 15.8857 6.82855 16 6.82855C16.1143 6.82855 16.2286 6.77142 16.3429 6.71424L20.3429 3.85711C20.4572 3.7428 20.5714 3.57142 20.5714 3.39999C20.5714 3.22855 20.5143 3.05711 20.3429 2.94286L16.3429 0.0857344C16.1143 -0.0285781 15.8286 -0.0285781 15.6572 0.0857344L11.6572 2.94286C11.5429 3.05717 11.4286 3.22855 11.4286 3.39999C11.4286 3.57142 11.5429 3.74286 11.6572 3.85711L15.6571 6.71424ZM16 1.22855L19.0286 3.39999L16 5.57136L12.9714 3.39992L16 1.22855Z" fill="#4C5462"/>
<path d="M17.1429 7.39992C17.1429 7.57136 17.2572 7.7428 17.3714 7.85705L21.3714 10.7142C21.4857 10.7713 21.6 10.8285 21.7143 10.8285C21.8286 10.8285 21.9429 10.7714 22.0572 10.7142L26.0572 7.85705C26.1715 7.74274 26.2857 7.57136 26.2857 7.39992C26.2857 7.22849 26.2286 7.05705 26.0572 6.9428L22.0572 4.08567C21.8286 3.97136 21.5429 3.97136 21.3715 4.08567L17.3715 6.9428C17.2571 7.05711 17.1429 7.22855 17.1429 7.39992ZM21.7143 5.22855L24.7429 7.39999L21.7143 9.57142L18.6857 7.39999L21.7143 5.22855Z" fill="#4C5462"/>
<path d="M9.94288 10.7142C10.0572 10.7714 10.1714 10.8285 10.2858 10.8285C10.4001 10.8285 10.5143 10.7714 10.6286 10.7142L14.6286 7.85711C14.7429 7.74279 14.8572 7.57142 14.8572 7.39998C14.8572 7.22854 14.8001 7.05711 14.6286 6.94286L10.6286 4.08573C10.4001 3.97142 10.1143 3.97142 9.94294 4.08573L5.94294 6.94286C5.82863 7.05717 5.71438 7.22854 5.71438 7.39998C5.71438 7.57142 5.82869 7.74286 5.94294 7.85711L9.94288 10.7142ZM10.2857 5.22855L13.3143 7.39998L10.2857 9.57142L7.25713 7.39998L10.2857 5.22855Z" fill="#4C5462"/>
<path d="M16.3429 8.08567C16.1143 7.97135 15.8286 7.97135 15.6572 8.08567L11.6572 10.9428C11.5429 11.0571 11.4286 11.2285 11.4286 11.3999C11.4286 11.5714 11.5429 11.7428 11.6572 11.857L15.6572 14.7142C15.7715 14.7713 15.8858 14.8285 16.0001 14.8285C16.1144 14.8285 16.2286 14.7714 16.3429 14.7142L20.3429 11.857C20.4573 11.7427 20.5715 11.5714 20.5715 11.3999C20.5715 11.2285 20.5144 11.057 20.3429 10.9428L16.3429 8.08567ZM16 13.5714L12.9714 11.3999L16 9.22854L19.0286 11.4L16 13.5714Z" fill="#4C5462"/>
<path d="M20.3429 18.9428L16.3429 16.0857C16.1143 15.9713 15.8286 15.9713 15.6572 16.0857L11.6572 18.9428C11.5429 19.0571 11.4286 19.2285 11.4286 19.3999C11.4286 19.5713 11.5429 19.7428 11.6572 19.857L15.6572 22.7142C15.7715 22.7713 15.8858 22.8285 16.0001 22.8285C16.1144 22.8285 16.2286 22.7713 16.3429 22.7142L20.3429 19.857C20.4573 19.7427 20.5715 19.5713 20.5715 19.3999C20.5715 19.2285 20.5143 19.0571 20.3429 18.9428ZM16 21.5713L12.9714 19.3999L16 17.2285L19.0286 19.4L16 21.5713Z" fill="#4C5462"/>
<path d="M31.7714 10.9428L27.7714 8.08567C27.5429 7.97135 27.2571 7.97135 27.0858 8.08567L23.0857 10.9428C22.9714 11.0571 22.8572 11.2285 22.8572 11.3999C22.8572 11.5714 22.9715 11.7428 23.0857 11.857L27.0858 14.7142C27.2001 14.7713 27.3143 14.8285 27.4286 14.8285C27.5429 14.8285 27.6572 14.7714 27.7715 14.7142L31.7715 11.857C31.8858 11.7427 32.0001 11.5714 32.0001 11.3999C32.0001 11.2285 31.9429 11.0571 31.7714 10.9428ZM27.4286 13.5714L24.4 11.3999L27.4286 9.22848L30.4571 11.3999L27.4286 13.5714Z" fill="#4C5462"/>
<path d="M26.0571 14.9428L22.0571 12.0857C21.8286 11.9713 21.5428 11.9713 21.3714 12.0857L17.3714 14.9428C17.2571 15.0571 17.1429 15.2285 17.1429 15.3999C17.1429 15.5713 17.2572 15.7428 17.3714 15.857L21.3714 18.7142C21.4857 18.7713 21.6 18.8285 21.7143 18.8285C21.8286 18.8285 21.9429 18.7713 22.0572 18.7142L26.0572 15.857C26.1715 15.7427 26.2857 15.5713 26.2857 15.3999C26.2857 15.2285 26.2286 15.0571 26.0571 14.9428ZM21.7143 17.5713L18.6857 15.3999L21.7143 13.2285L24.7429 15.3999L21.7143 17.5713Z" fill="#4C5462"/>
<path d="M9.14287 11.3999C9.14287 11.2285 9.08575 11.057 8.91431 10.9428L4.91431 8.08567C4.68575 7.97135 4.4 7.97135 4.22862 8.08567L0.228625 10.9428C0.114312 11.0571 0 11.2285 0 11.3999C0 11.5713 0.114313 11.7428 0.228563 11.857L4.22856 14.7142C4.34288 14.7713 4.45712 14.8285 4.57144 14.8285C4.68575 14.8285 4.8 14.7714 4.91431 14.7142L8.91431 11.857C9.02856 11.7428 9.14287 11.5714 9.14287 11.3999ZM4.57144 13.5714L1.54288 11.3999L4.57144 9.22848L7.6 11.3999L4.57144 13.5714Z" fill="#4C5462"/>
<path d="M14.8571 15.3999C14.8571 15.2285 14.8 15.057 14.6286 14.9428L10.6286 12.0857C10.4 11.9713 10.1143 11.9713 9.94288 12.0857L5.94288 14.9428C5.82857 15.0571 5.71432 15.2285 5.71432 15.3999C5.71432 15.5713 5.82863 15.7428 5.94288 15.857L9.94288 18.7142C10.0572 18.7713 10.1714 18.8285 10.2858 18.8285C10.4001 18.8285 10.5143 18.7713 10.6286 18.7142L14.6286 15.857C14.7429 15.7428 14.8571 15.5713 14.8571 15.3999ZM10.2857 17.5713L7.25713 15.3999L10.2857 13.2285L13.3143 15.3999L10.2857 17.5713Z" fill="#4C5462"/>
</svg>
