<svg width="32" height="15" viewBox="0 0 32 15" fill="none" xmlns="http://www.w3.org/2000/svg">
<path d="M30.9333 2.58332H29.8667C29.8667 2.01497 29.3867 1.54998 28.8 1.54998H27.7333C27.7333 0.671636 27.04 0 26.1333 0H23.4667H11.7333H9.06669C8.346 0 7.76059 0.424551 7.55052 1.03974C6.51816 1.10481 5.65711 1.71667 5.26893 2.58332H3.84001L2.39997 1.29163C2.18666 1.08498 1.86666 1.08498 1.65329 1.29163L0.159998 2.73831C0.0533114 2.84161 0 2.94496 0 3.09996C0 3.25495 0.0533114 3.35831 0.159998 3.4616L2.39997 5.52828C2.50665 5.63163 2.61328 5.68327 2.77327 5.68327H4.87891L4.31994 12.7616C4.26663 13.2266 4.42663 13.6399 4.74662 13.9499C5.06662 14.3116 5.4933 14.4666 5.91998 14.4666C7.35996 14.4666 8.58663 13.4332 8.74663 11.9865L9.03466 8.26579C9.04534 8.26598 9.05589 8.26653 9.06662 8.26653H9.69658L10.88 13.3299C10.9867 13.7432 11.2533 14.1049 11.6267 14.3116C11.8933 14.4666 12.16 14.5182 12.4266 14.5182C12.5866 14.5182 12.7466 14.4666 12.9066 14.4149C14.2933 14.0532 15.1466 12.7099 14.88 11.3148L14.3481 8.26653H26.1333C27.0399 8.26653 27.7332 7.59489 27.7332 6.71655H28.7999C29.3866 6.71655 29.8666 6.25156 29.8666 5.68321H30.9333C31.5199 5.68321 31.9999 5.21822 31.9999 4.64987V3.61666C32 3.04831 31.5199 2.58332 30.9333 2.58332ZM22.9333 1.03328V3.09996C22.9333 3.40995 22.72 3.6166 22.4 3.6166H12.8C12.48 3.6166 12.2667 3.40995 12.2667 3.09996V1.03328H22.9333ZM4.95999 4.64993H2.98665L1.27998 3.09996L2.07997 2.37661L3.30664 3.4616C3.35995 3.56495 3.51995 3.6166 3.62664 3.6166H5.04215L4.96247 4.62587L4.95999 4.64993ZM7.68002 11.8316V11.935C7.57333 12.7617 6.82666 13.4333 5.92004 13.4333C5.76005 13.4333 5.65336 13.3816 5.54674 13.2783C5.44005 13.1233 5.38674 13.0199 5.38674 12.8649L6.09542 3.8907L6.13342 3.4616C6.13342 3.40995 6.18673 3.35824 6.18673 3.25495C6.20687 3.19635 6.2117 3.13043 6.20427 3.06542C6.38746 2.5257 6.8895 2.15267 7.46671 2.06662V2.56424V6.71661C7.46671 7.19072 7.66896 7.60437 7.99747 7.88488L7.68002 11.8316ZM13.8666 11.3666V11.47C14.0266 12.3483 13.4933 13.1749 12.6399 13.4333C12.48 13.4849 12.32 13.4333 12.2133 13.3816C12.0533 13.33 12 13.2266 11.9466 13.0716L10.8266 8.26665H13.2799L13.8666 11.3666ZM26.6666 6.71661C26.6666 7.02661 26.4533 7.23325 26.1333 7.23325H24.5333V6.19991C24.5333 5.88992 24.32 5.68327 24 5.68327C23.68 5.68327 23.4667 5.88992 23.4667 6.19991V7.23325H20.2667V6.19991C20.2667 5.88992 20.0534 5.68327 19.7334 5.68327C19.4134 5.68327 19.2001 5.88992 19.2001 6.19991V7.23325H16.0001V6.19991C16.0001 5.88992 15.7868 5.68327 15.4668 5.68327C15.1468 5.68327 14.9335 5.88992 14.9335 6.19991V7.23325H13.7068H11.7335V6.19991C11.7335 5.88992 11.5202 5.68327 11.2002 5.68327C10.8802 5.68327 10.6669 5.88992 10.6669 6.19991V7.23325H10.1336H9.06688C9.01738 7.23325 8.9708 7.22777 8.92683 7.21823C8.90383 7.20438 8.87969 7.1917 8.85357 7.18155C8.64026 7.07819 8.53357 6.9232 8.53357 6.71655V1.54992C8.53357 1.23992 8.74688 1.03328 9.06688 1.03328H11.2002V3.09996C11.2002 3.9783 11.8935 4.64993 12.8002 4.64993H22.4002C23.3069 4.64993 24.0002 3.9783 24.0002 3.09996V1.03328H26.1335C26.4535 1.03328 26.6668 1.23992 26.6668 1.54992V2.06656V6.19991V6.71661H26.6666ZM28.8 5.68327H27.7333V2.58326H28.8V3.09989V5.16657V5.68327ZM30.9333 4.64993H29.8667V3.61666H30.9333V4.64993Z" fill="#4C5462"/>
</svg>
