<svg width="28" height="28" viewBox="0 0 28 28" fill="none" xmlns="http://www.w3.org/2000/svg">
<path d="M21 10.2667C20.7666 10.2667 20.5333 10.5 20.5333 10.7333C20.5333 11.0133 20.72 11.2 21 11.2C21.28 11.2 21.4666 11.0133 21.4666 10.7333C21.4666 10.4533 21.28 10.2667 21 10.2667Z" fill="#4C5462"/>
<path d="M15.4 14.4667C15.12 14.4667 14.9334 14.6533 14.9334 14.9333V19.6C14.9334 19.88 15.12 20.0666 15.4 20.0666C15.68 20.0666 15.8667 19.88 15.8667 19.6V14.9333C15.8667 14.6533 15.68 14.4667 15.4 14.4667Z" fill="#4C5462"/>
<path d="M27.0667 4.2H25.2C24.6866 4.2 24.2666 4.61999 24.2666 5.13334V5.59998H17.7333V3.73336H18.2C18.7133 3.73336 19.1333 3.31336 19.1333 2.80002V0.933339C19.1333 0.419994 18.7133 0 18.2 0H9.79997C9.28663 0 8.86664 0.419994 8.86664 0.933339V2.80002C8.86664 3.31336 9.28663 3.73336 9.79997 3.73336H10.2666V14.9333H3.73336V14.4667C3.73336 13.9533 3.31336 13.5333 2.80002 13.5333H0.933339C0.419994 13.5333 0 13.9533 0 14.4667V22.8667C0 23.38 0.419994 23.8 0.933339 23.8H2.80002C3.31336 23.8 3.73336 23.38 3.73336 22.8667V22.4H10.2667V24.2667H9.80003C9.28669 24.2667 8.86669 24.6867 8.86669 25.2V27.0667C8.86669 27.5801 9.28669 28.0001 9.80003 28.0001H18.2C18.7134 28.0001 19.1334 27.5801 19.1334 27.0667V25.2C19.1334 24.6867 18.7134 24.2667 18.2 24.2667H17.7334V13.0666H24.2667V13.5333C24.2667 14.0466 24.6867 14.4666 25.2 14.4666H27.0667C27.5801 14.4666 28.0001 14.0466 28.0001 13.5333V5.13334C28 4.61999 27.58 4.2 27.0667 4.2ZM9.79997 0.933339H18.2V2.80002H17.2666H10.7333H9.79997V0.933339ZM2.80002 22.8667H0.933339V14.4667H2.80002V15.4V21.9333V22.8667ZM18.2 27.0667H9.79997V25.2H10.7333H17.2666H18.2V27.0667ZM17.2666 12.1333C16.9866 12.1333 16.8 12.3199 16.8 12.5999V24.2666H15.8667V22.3999C15.8667 22.1199 15.68 21.9333 15.4 21.9333C15.12 21.9333 14.9334 22.1199 14.9334 22.3999V24.2666H11.2V21.9333C11.2 21.6533 11.0134 21.4666 10.7334 21.4666H3.73336V15.8667H10.7334C11.0134 15.8667 11.2 15.68 11.2 15.4V3.73336H16.8V6.06668C16.8 6.34667 16.9866 6.53332 17.2666 6.53332H24.2666V10.2667H22.8667C22.5867 10.2667 22.4 10.4533 22.4 10.7333C22.4 11.0133 22.5867 11.2 22.8667 11.2H24.2666V12.1333H17.2666ZM27.0667 13.5333H25.2V12.6V6.06668V5.13334H27.0667V13.5333Z" fill="#4C5462"/>
<path d="M19.1333 10.2667H15.4C15.12 10.2667 14.9333 10.4533 14.9333 10.7333V12.6C14.9333 12.88 15.12 13.0666 15.4 13.0666C15.6799 13.0666 15.8666 12.88 15.8666 12.6V11.2H19.1333C19.4133 11.2 19.5999 11.0134 19.5999 10.7334C19.5999 10.4534 19.4133 10.2667 19.1333 10.2667Z" fill="#4C5462"/>
</svg>
