<svg width="29" height="25" viewBox="0 0 29 25" fill="none" xmlns="http://www.w3.org/2000/svg">
<path d="M24.6076 16.3626C23.313 16.3626 22.1425 16.8718 21.3252 17.781L19.734 17.2202C20.1057 17.0249 20.4514 16.7854 20.7969 16.5454L27.5969 10.4602C28.3455 10.3955 28.9008 9.82645 28.9008 9.09539C28.9008 8.31838 28.2737 7.72422 27.4536 7.72422H25.9157C25.7268 7.19766 25.3042 6.75991 24.7524 6.53586C25.09 6.03308 25.1383 5.43893 24.8489 4.98189C24.5595 4.57054 24.0288 4.25062 23.1606 4.38773C23.5947 3.79358 23.6912 3.108 23.3053 2.6509C22.9676 2.23955 22.3405 2.14813 21.6652 2.37667C21.6652 2.28524 21.6652 2.19387 21.617 2.10244C21.3758 1.09693 20.4111 0.41135 19.3016 0.41135C18.9157 0.41135 18.578 0.502779 18.2404 0.685583C18.1922 0.685583 18.1439 0.639896 18.1439 0.639896C17.758 0.228546 17.1791 0 16.6003 0C15.5391 0 14.6708 0.731271 14.4778 1.6454C14.1884 1.6454 13.8025 1.73683 13.5131 2.05675C13.2236 2.33098 13.1271 2.74233 13.1754 3.24511C12.2106 2.69665 11.4871 2.97088 11.1012 3.42792C10.7153 3.83927 10.6671 4.47916 10.86 5.02763C10.5706 5.02763 10.3294 5.11906 10.0882 5.25618C9.46117 5.66753 9.12347 6.58165 9.12347 7.2215C9.07525 7.26718 8.93054 7.35861 8.83405 7.4043C8.6765 7.49386 8.49866 7.58373 8.35373 7.72422H7.67635C6.85629 7.72422 6.22923 8.31838 6.22923 9.09539C6.22923 9.72666 6.64313 10.2372 7.23814 10.4066L7.4352 11.9748C7.48099 12.3218 7.5707 12.6583 7.70337 12.9798L2.12912 11.015C1.35735 10.7408 0.489073 11.0607 0.151373 11.7463C-0.0415576 12.112 -0.0415576 12.569 0.103155 12.9347C0.247867 13.3003 0.58551 13.6202 0.971428 13.7574L8.15882 16.2257V22.8985C8.15882 23.8126 9.02709 24.6353 10.0883 24.6353C10.5706 24.6353 11.0531 24.4525 11.3907 24.1325L16.6219 19.1321L20.2196 20.3676C20.2183 20.4174 20.2181 20.4676 20.2181 20.5218C20.2181 22.8071 22.1476 24.6353 24.5595 24.6353C26.9714 24.6353 28.9491 22.7614 28.9491 20.4761C28.949 18.1908 27.0195 16.3626 24.6076 16.3626ZM24.0043 21.382C24.4304 21.2697 24.8099 20.9851 24.9935 20.5675C25.1967 20.0863 25.0905 19.5376 24.7424 19.1584C25.4705 19.2417 26.0065 19.8182 26.0065 20.5218C26.0065 21.2988 25.3795 21.893 24.5594 21.893C24.1253 21.893 23.7393 21.7102 23.4982 21.4359C23.6732 21.4486 23.8441 21.4283 24.0043 21.382ZM10.0882 7.26718C10.0882 6.81015 10.3776 6.21594 10.667 5.9417C10.8117 5.85028 10.86 5.89602 10.9082 5.89602C11.1494 5.98745 11.7765 6.17025 12.0659 5.7589C12.3071 5.43898 12.0659 5.07332 11.9212 4.89051C11.68 4.66197 11.68 4.20493 11.873 3.97638C12.1142 3.70215 12.5483 3.88495 12.7895 4.02207L12.886 4.1135C13.1272 4.25062 13.5131 4.43342 13.8508 4.25062C14.1884 4.02207 14.1884 3.56503 14.1402 3.108C14.1402 2.87945 14.1402 2.69665 14.2367 2.60522C14.3814 2.4681 14.6708 2.4681 14.8155 2.4681C14.9602 2.4681 15.1532 2.4681 15.2979 2.33098L15.4426 2.19387V2.01106C15.4426 1.37117 15.9732 0.868441 16.6485 0.868441C16.9379 0.868441 17.2756 1.00556 17.5168 1.2341C17.5168 1.2341 18.0956 1.78257 18.578 1.50834C18.8192 1.37122 19.0603 1.32553 19.3015 1.32553C19.9286 1.32553 20.5075 1.73688 20.6522 2.28535C20.6522 2.33104 20.7004 2.5139 20.7004 2.6967L20.8933 2.92525L21.0862 3.10805L21.1345 3.15374C21.2792 3.24517 21.5686 3.38228 21.858 3.24517C22.2439 3.10805 22.4851 3.15374 22.5334 3.19948C22.6299 3.29091 22.6299 3.65652 22.3404 4.11361C22.0028 4.43353 22.1475 5.11911 22.2922 5.34766L22.5334 5.62189L22.8711 5.48477C23.4981 5.25623 23.9323 5.34766 24.077 5.53046C24.1735 5.71327 24.077 6.03324 23.7876 6.30748C23.5464 6.49028 23.5464 6.76451 23.6429 6.99306L23.7393 7.26729H24.0288C24.3182 7.31298 24.6076 7.49584 24.8005 7.72433H9.94347C10.0399 7.5871 10.0882 7.44999 10.0882 7.26718ZM7.67629 8.63835H7.82101H26.103H27.4536C27.743 8.63835 27.9359 8.82116 27.9359 9.09539C27.9359 9.36962 27.743 9.55243 27.4536 9.55243H27.4054H7.67629C7.38687 9.55243 7.19394 9.36962 7.19394 9.09539C7.19394 8.82116 7.38687 8.63835 7.67629 8.63835ZM8.9787 13.3917C8.64106 12.9347 8.39985 12.4319 8.35163 11.8834L8.20692 10.4666H26.2477L20.1216 15.8141C19.5156 16.3 18.9545 16.6144 18.3079 16.7175L9.0419 13.4516C9.02262 13.4334 9.01217 13.4235 8.9787 13.3917ZM0.971315 12.6147C0.874821 12.4319 0.923096 12.2948 0.971315 12.1577C1.06781 11.9749 1.26074 11.8378 1.50194 11.8378C1.59844 11.8378 1.64666 11.8378 1.69488 11.8835L23.7393 19.6534C23.9806 19.7449 24.1253 20.0191 24.0288 20.2476C24.0073 20.2983 23.976 20.3442 23.9382 20.3844C23.8051 20.4936 23.6161 20.5391 23.4499 20.4761L20.9416 19.6077C20.8532 19.5798 20.7648 19.5693 20.6764 19.5859L16.8435 18.2696C16.7988 18.2347 16.7478 18.207 16.6967 18.1909L14.6708 17.5053C14.6134 17.4691 14.5485 17.4547 14.4821 17.4587L10.8961 16.2272C10.8445 16.1834 10.783 16.1502 10.7153 16.1342L8.78583 15.4943C8.7583 15.4856 8.73083 15.4792 8.7033 15.4742L1.30901 12.9348C1.16425 12.889 1.01953 12.7519 0.971315 12.6147ZM11.0529 17.2196L13.6463 18.1102L11.0529 20.5675V17.2196ZM10.7152 23.447C10.5223 23.5841 10.3293 23.6755 10.0882 23.6755C9.60583 23.6755 9.12341 23.3098 9.12341 22.8528V16.557L9.33195 16.6286L10.04 16.9111V21.3445C10.04 21.5731 10.1847 21.7559 10.4259 21.8473C10.6671 21.9387 10.9565 21.893 11.1494 21.7102L14.6023 18.4386L15.629 18.7911L10.7152 23.447ZM24.5594 23.7212C22.7264 23.7212 21.2792 22.3957 21.1828 20.7046L22.2049 21.0523C22.4705 22.0829 23.4143 22.8071 24.5595 22.8071C25.9101 22.8071 26.9713 21.8016 26.9713 20.5218C26.9713 19.242 25.9101 18.2365 24.5595 18.2365C24.1743 18.2365 23.7892 18.3243 23.4286 18.5224L22.3455 18.1406C22.9241 17.5952 23.7417 17.3224 24.5595 17.3224C26.4407 17.3224 27.9361 18.7392 27.9361 20.5218C27.936 22.3043 26.4407 23.7212 24.5594 23.7212Z" fill="#4C5462"/>
</svg>
