<svg width="28" height="26" viewBox="0 0 28 26" fill="none" xmlns="http://www.w3.org/2000/svg">
<path d="M26.3594 10.0625H21.1094V8.42202C21.1094 8.12009 20.8645 7.87514 20.5625 7.87514H17.2813C16.9793 7.87514 16.7344 8.12009 16.7344 8.42202V10.0625H15.6406V4.10147C15.6406 3.65691 16.0163 3.28137 16.4609 3.28137C16.9056 3.28137 17.2813 3.65691 17.2813 4.10147V5.19522C17.2813 5.49715 17.5261 5.7421 17.8281 5.7421H20.0157C20.3177 5.7421 20.5626 5.49715 20.5626 5.19522V4.10147C20.5626 1.83991 18.7226 0 16.4609 0C14.1993 0 12.3593 1.83997 12.3593 4.10147V10.0625H11.2656V8.42202C11.2656 8.12009 11.0207 7.87514 10.7187 7.87514H7.43742C7.13543 7.87514 6.89054 8.12009 6.89054 8.42202V10.0625H1.64058C0.735933 10.0625 0 10.7985 0 11.7032V12.7971C0 13.0991 0.244837 13.344 0.546877 13.344H1.10857C1.24163 15.8458 2.28502 18.1854 4.08113 19.9815C6.00772 21.9081 8.55912 22.9691 11.2655 22.9691H11.2657V24.6096C11.2657 24.9116 11.5105 25.1565 11.8125 25.1565H16.1875C16.4895 25.1565 16.7343 24.9116 16.7343 24.6096V22.9691H16.7344C19.4408 22.9691 21.9924 21.9081 23.9188 19.9815C25.715 18.1854 26.7584 15.8458 26.8914 13.344H27.4531C27.7552 13.344 28 13.0991 28 12.7971V11.7032C28 10.7985 27.2641 10.0625 26.3594 10.0625ZM17.8282 8.96889H20.0156V10.0625H17.8282V8.96889ZM13.4531 4.10147C13.4531 2.44301 14.8024 1.09375 16.4609 1.09375C18.1195 1.09375 19.4688 2.44301 19.4688 4.10147V4.64835H18.375V4.10147C18.375 3.04616 17.5164 2.18762 16.4609 2.18762C15.4055 2.18762 14.5469 3.04616 14.5469 4.10147V10.0625H13.4531V4.10147ZM7.9843 8.96889H10.1718V10.0625H7.9843V8.96889ZM15.6406 24.0627H12.3594V22.9691H15.6406V24.0627ZM16.7344 21.8753H16.1875H11.8125H11.2656C6.44347 21.8753 2.48747 18.0961 2.20375 13.344H25.7962C25.5125 18.0961 21.5565 21.8753 16.7344 21.8753ZM26.9062 12.2503H26.3594H1.64058H1.09375V11.7032C1.09375 11.4016 1.33903 11.1563 1.64058 11.1563H7.43742H10.7187H17.2813H20.5625H26.3594C26.661 11.1563 26.9062 11.4016 26.9062 11.7032V12.2503Z" fill="#4C5462"/>
</svg>
