<svg width="25" height="26" viewBox="0 0 25 26" fill="none" xmlns="http://www.w3.org/2000/svg">
<path d="M6.73456 0H0.434547C0.254564 0 0.0745292 0.127914 0.0295468 0.255828C-0.0154355 0.383742 -0.0154355 0.554278 0.0745293 0.682192L1.42453 2.3877C1.51455 2.51561 1.64955 2.55823 1.78454 2.55823H2.23453V3.48561L1.91954 3.41101C1.64955 3.36839 1.42453 3.4963 1.33456 3.75213C1.28958 3.96534 1.42458 4.1785 1.69458 4.26379L2.23458 4.3917V5.23379L1.9196 5.15919C1.69458 5.07389 1.42458 5.24448 1.3796 5.45764C1.28958 5.67084 1.46962 5.92667 1.69458 5.96929L2.23458 6.09721V6.93929L1.9196 6.86469C1.69458 6.7794 1.42458 6.94998 1.3796 7.16314C1.28958 7.37635 1.46962 7.63218 1.69458 7.6748L2.23458 7.80271V8.6448L1.9196 8.5702C1.69458 8.4849 1.42458 8.65549 1.3796 8.86865C1.28958 9.08185 1.46962 9.33768 1.69458 9.3803L2.23458 9.50822V10.3503L1.9196 10.2757C1.69458 10.1904 1.42458 10.361 1.3796 10.5742C1.28958 10.7874 1.46962 11.0432 1.69458 11.0858L2.23732 11.2144C2.26538 12.9584 2.57899 14.6638 3.17958 16.3303C3.22456 16.5008 3.4046 16.6287 3.58458 16.6287C3.76456 16.6287 3.9446 16.5008 4.03456 16.3303C4.52462 14.8659 4.82431 13.3715 4.909 11.8472L5.29459 11.9386C5.29459 11.9386 5.33958 11.9386 5.38461 11.9386C5.60963 11.9386 5.78961 11.8107 5.83459 11.6401C5.92461 11.4269 5.74458 11.1711 5.51961 11.1285L4.93426 10.9898C4.93426 10.9792 4.93458 10.9686 4.93458 10.9579V10.1478L5.29459 10.2331C5.29459 10.2331 5.33958 10.2331 5.38461 10.2331C5.60963 10.2331 5.78961 10.1052 5.83459 9.93468C5.92461 9.72147 5.74458 9.46565 5.51961 9.42303L4.93463 9.28447V8.44233L5.29465 8.52763C5.29465 8.52763 5.33963 8.52763 5.38466 8.52763C5.60968 8.52763 5.78966 8.39971 5.83465 8.22918C5.92466 8.01597 5.74463 7.76014 5.51966 7.71752L4.93468 7.57896V6.73688L5.2947 6.82217C5.2947 6.82217 5.33968 6.82217 5.38472 6.82217C5.60973 6.82217 5.78972 6.69426 5.8347 6.52372C5.92472 6.31051 5.74468 6.05469 5.51972 6.01206L4.93473 5.87351V5.03127L5.29475 5.11657C5.29475 5.11657 5.33973 5.11657 5.38477 5.11657C5.60979 5.11657 5.78977 4.98865 5.83475 4.77544C5.92477 4.56224 5.74473 4.30641 5.51977 4.26379L4.93479 4.12523V2.55828H5.38477C5.51977 2.55828 5.65477 2.51566 5.74479 2.38775L7.09479 0.682242C7.1848 0.554328 7.22978 0.426414 7.13977 0.255878C7.04975 0.0853427 6.91454 0 6.73456 0ZM3.58458 14.6675C3.30952 13.5879 3.17177 12.5082 3.14124 11.4286L4.02127 11.637C3.98056 12.676 3.8435 13.6862 3.58458 14.6675ZM4.03456 10.7768L3.13454 10.5636V9.72147L4.03456 9.93468V10.7768ZM4.03456 9.07126L3.13454 8.85805V8.01597L4.03456 8.22918V9.07126ZM4.03456 7.36571L3.13454 7.1525V6.31041L4.03456 6.52362V7.36571ZM4.03456 5.6602L3.13454 5.44699V4.60491L4.03456 4.81812V5.6602ZM4.03456 3.91202L3.13454 3.69882V2.55828H4.03456V3.91202ZM5.15954 1.70551H4.48454H2.68456H2.00956L1.33456 0.852728H5.83454L5.15954 1.70551Z" fill="#4C5462"/>
<path d="M15.2846 0H8.98461C8.80463 0 8.66963 0.127914 8.57961 0.255828C8.48959 0.383742 8.53463 0.554278 8.62459 0.682192L9.9746 2.3877C10.0646 2.51561 10.1996 2.55823 10.3346 2.55823H10.7846V3.52823L10.4696 3.45363C10.2446 3.36834 9.9746 3.53892 9.92961 3.75208C9.8396 3.96529 10.0196 4.22112 10.2446 4.26374L10.7846 4.39165V5.23374L10.4696 5.15913C10.2446 5.07384 9.9746 5.24443 9.92961 5.45758C9.8396 5.67079 10.0196 5.92662 10.2446 5.96924L10.7846 6.09716V6.93924L10.4696 6.86464C10.2446 6.77935 9.9746 6.94993 9.92961 7.16309C9.8396 7.3763 10.0196 7.63212 10.2446 7.67475L10.7846 7.80266V8.64474L10.4696 8.57014C10.2446 8.48485 9.9746 8.65544 9.92961 8.86859C9.8396 9.0818 10.0196 9.33763 10.2446 9.38025L10.7846 9.50816V10.3502L10.4696 10.2756C10.2446 10.1904 9.9746 10.3609 9.92961 10.5741C9.8396 10.7873 10.0196 11.0431 10.2446 11.0858L10.7846 11.2137V12.0558L10.4696 11.9812C10.2446 11.8959 9.9746 12.0664 9.92961 12.2796C9.8396 12.4928 10.0196 12.7486 10.2446 12.7913L10.7846 12.9192V13.7613L10.4696 13.6867C10.2446 13.6014 9.9746 13.772 9.92961 13.9851C9.8396 14.1983 10.0196 14.4541 10.2446 14.4968L10.7846 14.6247V14.7952C10.7846 15.0209 10.7895 15.2458 10.799 15.4702L10.4696 15.3921C10.2446 15.3068 9.9746 15.4774 9.92961 15.6906C9.8396 15.9038 10.0196 16.1596 10.2446 16.2022L10.8619 16.3484C10.9901 17.6432 11.2787 18.9164 11.7296 20.1676C11.7746 20.3381 11.9546 20.466 12.1346 20.466C12.3146 20.466 12.4946 20.3381 12.5396 20.1676C12.9236 19.1281 13.1899 18.0409 13.3398 16.9354L13.8446 17.0549C13.8446 17.0549 13.8896 17.0549 13.9346 17.0549C14.1597 17.0549 14.3396 16.927 14.3846 16.7565C14.4746 16.5433 14.2946 16.2875 14.0696 16.2448L13.4312 16.0936C13.4538 15.817 13.4688 15.5398 13.477 15.2623L13.8446 15.3494C13.8446 15.3494 13.8896 15.3494 13.9346 15.3494C14.1597 15.3494 14.3396 15.2215 14.3846 15.051C14.4746 14.8378 14.2946 14.582 14.0696 14.5393L13.4847 14.4008V13.5589L13.8447 13.6442C13.8447 13.6442 13.8897 13.6442 13.9347 13.6442C14.1597 13.6442 14.3397 13.5163 14.3847 13.3457C14.4747 13.1325 14.2947 12.8767 14.0697 12.8341L13.4847 12.6955V11.8534L13.8447 11.9387C13.8447 11.9387 13.8897 11.9387 13.9348 11.9387C14.1598 11.9387 14.3398 11.8108 14.3847 11.6403C14.4748 11.4271 14.2947 11.1712 14.0698 11.1286L13.4848 10.9901V10.148L13.8448 10.2333C13.8448 10.2333 13.8898 10.2333 13.9348 10.2333C14.1598 10.2333 14.3398 10.1054 14.3848 9.93483C14.4748 9.72162 14.2948 9.46579 14.0698 9.42317L13.4848 9.28461V8.44233L13.8448 8.52762C13.8448 8.52762 13.8898 8.52762 13.9349 8.52762C14.1599 8.52762 14.3399 8.39971 14.3848 8.22917C14.4749 8.01597 14.2948 7.76014 14.0699 7.71752L13.4849 7.57896V6.73688L13.8449 6.82217C13.8449 6.82217 13.8899 6.82217 13.9349 6.82217C14.1599 6.82217 14.3399 6.69425 14.3849 6.52372C14.4749 6.31051 14.2949 6.05468 14.0699 6.01206L13.4849 5.87351V5.03127L13.8449 5.11656C13.8449 5.11656 13.8899 5.11656 13.935 5.11656C14.16 5.11656 14.34 4.98865 14.3849 4.81811C14.475 4.60491 14.2949 4.34908 14.07 4.30646L13.485 4.1679V2.55828H13.935C14.07 2.55828 14.205 2.51566 14.295 2.38775L15.645 0.682242C15.735 0.554328 15.78 0.383792 15.69 0.255878C15.5996 0.0852927 15.4646 0 15.2846 0ZM12.1346 18.5049C11.97 17.8589 11.855 17.2128 11.7823 16.5667L12.4717 16.73C12.3984 17.3317 12.2881 17.9234 12.1346 18.5049ZM12.5498 15.8851L11.7088 15.6859C11.6934 15.4033 11.6856 15.1207 11.6849 14.8381L12.5827 15.0507C12.5787 15.331 12.5677 15.609 12.5498 15.8851ZM12.5846 14.1878L11.6846 13.9746V13.1325L12.5846 13.3457V14.1878ZM12.5846 12.4823L11.6846 12.2691V11.427L12.5846 11.6402V12.4823ZM12.5846 10.7768L11.6846 10.5636V9.72147L12.5846 9.93468V10.7768ZM12.5846 9.07126L11.6846 8.85805V8.01597L12.5846 8.22917V9.07126ZM12.5846 7.3657L11.6846 7.1525V6.31041L12.5846 6.52362V7.3657ZM12.5846 5.6602L11.6846 5.44699V4.60491L12.5846 4.81811V5.6602ZM12.5846 3.95469L11.6846 3.74149V2.55828H12.5846V3.95469ZM13.7096 1.7055H13.0346H11.2346H10.5596L9.88463 0.852727H14.3846L13.7096 1.7055Z" fill="#4C5462"/>
<path d="M22.4845 2.55829C22.6195 2.55829 22.7545 2.51567 22.8446 2.38776L24.1945 0.682253C24.2846 0.554339 24.3295 0.383803 24.2395 0.255889C24.1495 0.0853537 24.0145 6.10352e-05 23.8345 6.10352e-05H17.5345C17.3546 6.10352e-05 17.2196 0.0853537 17.1295 0.255889C17.0395 0.383803 17.0846 0.554339 17.1745 0.682253L18.5245 2.38776C18.6145 2.51567 18.7495 2.55829 18.8845 2.55829H19.3345V3.52829L19.0195 3.45369C18.7945 3.3684 18.5245 3.53898 18.4795 3.75214C18.3895 3.96535 18.5695 4.22118 18.7945 4.2638L19.3345 4.39171V5.2338L19.0195 5.1592C18.7945 5.0739 18.5245 5.24449 18.4795 5.45765C18.3895 5.67085 18.5695 5.92668 18.7945 5.9693L19.3345 6.09722V6.9393L19.0195 6.8647C18.7945 6.77941 18.5245 6.94999 18.4795 7.16315C18.3895 7.37636 18.5695 7.63218 18.7945 7.67481L19.3345 7.80272V8.6448L19.0195 8.5702C18.7945 8.48491 18.5245 8.6555 18.4795 8.86866C18.3895 9.08186 18.5695 9.33769 18.7945 9.38031L19.3345 9.50823V10.3503L19.0195 10.2757C18.7945 10.1904 18.5245 10.361 18.4795 10.5742C18.3895 10.7874 18.5695 11.0432 18.7945 11.0858L19.3345 11.2137V12.0558L19.0195 11.9812C18.7945 11.8959 18.5245 12.0665 18.4795 12.2797C18.3895 12.4929 18.5695 12.7487 18.7945 12.7913L19.3345 12.9192V13.7613L19.0195 13.6867C18.7945 13.6014 18.5245 13.772 18.4795 13.9852C18.3895 14.1984 18.5695 14.4542 18.7945 14.4968L19.3345 14.6247V15.4668L19.0195 15.3922C18.7945 15.3069 18.5245 15.4775 18.4795 15.6907C18.3895 15.9039 18.5695 16.1597 18.7945 16.2023L19.3345 16.3302V17.1723L19.0195 17.0977C18.7945 17.0124 18.5245 17.183 18.4795 17.3962C18.3895 17.6094 18.5695 17.8652 18.7945 17.9078L19.3345 18.0357V18.8778L19.0195 18.8032C18.7945 18.7179 18.5245 18.8885 18.4795 19.1017C18.3895 19.3149 18.5695 19.5707 18.7945 19.6133L19.3345 19.7413V19.9118C19.3345 20.1374 19.3394 20.3624 19.349 20.5867L19.0195 20.5087C18.7945 20.4234 18.5245 20.594 18.4795 20.8071C18.3895 21.0203 18.5695 21.2762 18.7945 21.3188L19.4118 21.465C19.54 22.7598 19.8286 24.033 20.2795 25.2841C20.3245 25.4547 20.5045 25.5826 20.6845 25.5826C20.8645 25.5826 21.0445 25.4547 21.0895 25.2841C21.4735 24.2446 21.7398 23.1575 21.8897 22.052L22.3945 22.1715C22.3945 22.1715 22.4395 22.1715 22.4845 22.1715C22.7096 22.1715 22.8895 22.0436 22.9345 21.8731C23.0245 21.6599 22.8445 21.404 22.6195 21.3614L21.9811 21.2102C22.0037 20.9336 22.0187 20.6564 22.0269 20.3789L22.3945 20.466C22.3945 20.466 22.4395 20.466 22.4845 20.466C22.7096 20.466 22.8895 20.3381 22.9345 20.1676C23.0245 19.9544 22.8445 19.6985 22.6195 19.6559L22.0346 19.5174V18.6755L22.3946 18.7608C22.3946 18.7608 22.4396 18.7608 22.4846 18.7608C22.7096 18.7608 22.8896 18.6328 22.9346 18.4623C23.0246 18.2491 22.8446 17.9933 22.6196 17.9507L22.0346 17.8121V16.97L22.3946 17.0553C22.3946 17.0553 22.4396 17.0553 22.4846 17.0553C22.7097 17.0553 22.8896 16.9274 22.9346 16.7569C23.0246 16.5436 22.8446 16.2878 22.6196 16.2452L22.0347 16.1066V15.2646L22.3947 15.3499C22.3947 15.3499 22.4397 15.3499 22.4847 15.3499C22.7097 15.3499 22.8897 15.2219 22.9347 15.0514C23.0247 14.8382 22.8447 14.5824 22.6197 14.5397L22.0347 14.4012V13.5589L22.3947 13.6442C22.3947 13.6442 22.4397 13.6442 22.4847 13.6442C22.7098 13.6442 22.8897 13.5163 22.9347 13.3457C23.0247 13.1325 22.8447 12.8767 22.6197 12.8341L22.0348 12.6955V11.8534L22.3948 11.9387C22.3948 11.9387 22.4398 11.9387 22.4848 11.9387C22.7098 11.9387 22.8898 11.8108 22.9348 11.6403C23.0248 11.4271 22.8448 11.1713 22.6198 11.1286L22.0348 10.9901V10.148L22.3948 10.2333C22.3948 10.2333 22.4398 10.2333 22.4849 10.2333C22.7099 10.2333 22.8899 10.1054 22.9348 9.93484C23.0248 9.72163 22.8448 9.4658 22.6199 9.42318L22.0349 9.28463V8.44234L22.3949 8.52763C22.3949 8.52763 22.4399 8.52763 22.4849 8.52763C22.7099 8.52763 22.8899 8.39972 22.9349 8.22918C23.0249 8.01598 22.8449 7.76015 22.6199 7.71753L22.0349 7.57897V6.73689L22.3949 6.82218C22.3949 6.82218 22.4399 6.82218 22.485 6.82218C22.71 6.82218 22.89 6.69426 22.9349 6.52373C23.025 6.31052 22.8449 6.05469 22.62 6.01207L22.035 5.87352V5.03128L22.395 5.11657C22.395 5.11657 22.44 5.11657 22.485 5.11657C22.71 5.11657 22.89 4.98866 22.935 4.81813C23.025 4.60492 22.845 4.34909 22.62 4.30647L22.035 4.16791V2.55829H22.4845ZM18.4345 0.852788H22.9345L22.2595 1.70557H21.5845H19.7845H19.1095L18.4345 0.852788ZM20.6845 23.6215C20.5199 22.9754 20.4049 22.3294 20.3322 21.6833L21.0216 21.8466C20.9484 22.4483 20.838 23.04 20.6845 23.6215ZM21.0997 21.0017L20.2587 20.8024C20.2433 20.5198 20.2355 20.2373 20.2348 19.9547L21.1326 20.1673C21.1286 20.4475 21.1176 20.7256 21.0997 21.0017ZM21.1345 19.3044L20.2345 19.0912V18.2491L21.1345 18.4623V19.3044ZM21.1345 17.5988L20.2345 17.3856V16.5436L21.1345 16.7568V17.5988ZM21.1345 15.8933L20.2345 15.6801V14.838L21.1345 15.0513V15.8933ZM21.1345 14.1878L20.2345 13.9746V13.1325L21.1345 13.3457V14.1878ZM21.1345 12.4823L20.2345 12.2691V11.427L21.1345 11.6402V12.4823ZM21.1345 10.7768L20.2345 10.5636V9.72148L21.1345 9.93469V10.7768ZM21.1345 9.07127L20.2345 8.85806V8.01598L21.1345 8.22918V9.07127ZM21.1345 7.36571L20.2345 7.15251V6.31042L21.1345 6.52363V7.36571ZM21.1345 5.66021L20.2345 5.447V4.60492L21.1345 4.81813V5.66021ZM21.1345 3.95471L20.2345 3.7415V2.55829H21.1345V3.95471Z" fill="#4C5462"/>
</svg>
