<svg width="30" height="30" viewBox="0 0 30 30" fill="none" xmlns="http://www.w3.org/2000/svg">
<path d="M29.8801 0.200549C29.7798 0.0501225 29.6293 0 29.4789 0H21.4562H13.2329C13.1884 0 13.1442 0.00493586 13.1011 0.0136324C13.0635 0.00528842 13.0241 0 12.9822 0H12.9321H4.9093H4.80899C4.55826 0 4.35771 0.150426 4.30759 0.350975L3.70589 3.2592C3.69302 3.33635 3.68021 3.41356 3.66816 3.49154L2.50247 9.12582C2.48156 9.2263 2.4654 9.32678 2.45135 9.4272L1.32844 14.9482C1.31552 14.9786 1.30553 15.0101 1.29906 15.0426L0.0956539 20.9594C-0.155076 22.1628 0.0956539 23.3662 0.747482 24.3691C1.39931 25.3719 2.40217 26.0739 3.60558 26.2745C3.90643 26.3246 4.20729 26.3748 4.50814 26.3748C5.4107 26.3748 6.26313 26.1241 6.96508 25.6227C7.37588 25.3556 7.73514 25.0289 8.03464 24.6544C8.16379 25.0971 8.35911 25.5225 8.61977 25.9234C9.2716 26.9263 10.2745 27.6283 11.4779 27.879C11.7787 27.9291 12.0796 27.9793 12.3804 27.9793C13.2329 27.9793 14.0852 27.7286 14.8876 27.2272C15.2768 26.9741 15.6201 26.6676 15.9099 26.3176C16.3456 27.8893 17.6247 29.1815 19.3502 29.5337C19.651 29.5838 19.9519 29.634 20.2527 29.634C21.1052 29.634 21.9575 29.3833 22.81 28.8317C23.8128 28.1799 24.5148 27.177 24.7655 25.9736L25.9689 20.107C25.9815 20.0315 25.9783 19.9592 25.9625 19.8923L26.9727 14.9254C27.0557 14.7055 27.123 14.4769 27.1723 14.2404L28.3757 8.37375C28.3806 8.3449 28.3824 8.31669 28.3827 8.28884L29.529 2.60737V2.55725C29.5361 2.51429 29.5377 2.47257 29.5352 2.43215L29.9802 0.651886C30.0305 0.501401 29.9803 0.350975 29.8801 0.200549ZM6.56093 19.3761C6.53161 19.3834 6.50199 19.3897 6.47244 19.3963C6.44594 19.4022 6.41955 19.4085 6.39293 19.4137C6.35539 19.4212 6.31754 19.4276 6.27964 19.4338C6.26343 19.4365 6.24721 19.4395 6.23093 19.442C5.83577 19.5009 5.42386 19.4921 5.00954 19.4049C3.88546 19.1979 3.00605 18.4496 2.5456 17.4797C2.24052 16.8131 2.13916 16.0364 2.30187 15.2431C2.31427 15.1688 2.31121 15.0976 2.29605 15.0317L2.90357 12.1343C3.50528 13.3377 4.60838 14.2403 6.06253 14.5411C7.4005 14.7889 8.78712 14.4486 9.78746 13.6179L9.21202 16.447C9.16748 16.5063 9.13569 16.5745 9.12117 16.6471L9.01023 17.1926C8.59768 18.2717 7.69459 19.0701 6.62051 19.3599C6.60065 19.3653 6.58085 19.3711 6.56093 19.3761ZM25.8186 10.3794C25.2725 10.7207 24.6567 10.9222 24.0345 10.9531C23.7639 10.9615 23.4881 10.9392 23.2111 10.8808C21.4946 10.5194 20.267 8.97781 20.3337 7.28257C20.3352 7.25683 20.3379 7.23098 20.3399 7.20518L20.4533 6.61876C20.4576 6.59273 20.4599 6.56775 20.4613 6.54325L21.2555 3.4598C21.2817 3.5121 21.3082 3.57815 21.3485 3.65054C21.3826 3.7217 21.4182 3.79204 21.4561 3.8609C22.0077 4.96401 23.0105 5.71614 24.1637 5.96687C24.2322 5.97662 24.2984 5.98632 24.3638 5.99572C25.4709 6.19839 26.6139 5.99102 27.5734 5.41529C27.7239 5.36517 27.8242 5.26486 27.9746 5.16456L27.3729 8.17308C27.1724 9.0757 26.6208 9.87795 25.8186 10.3794ZM15.5394 20.5081C14.7371 21.0095 13.7844 21.2101 12.8818 21.0095C11.2174 20.6591 10.0506 19.1992 10.0494 17.5655C10.121 17.3664 10.18 17.1605 10.2243 16.948L10.8425 13.9087C11.4568 15.0042 12.53 15.8572 13.8847 16.1959C15.2385 16.4466 16.6425 16.0956 17.6454 15.2432L16.9935 18.352C16.8467 19.0129 16.5378 19.6194 16.0683 20.094C15.9095 20.2476 15.7335 20.3868 15.5394 20.5081ZM18.1969 12.3851C17.9662 13.481 17.2539 14.3604 16.3283 14.8343C15.6673 15.1465 14.9055 15.2549 14.1354 15.0928C12.4698 14.7421 11.3024 13.2802 11.3029 11.6451L11.4277 11.0312C11.4327 11.0015 11.4346 10.9725 11.4348 10.9439L12.0075 7.92453C12.615 9.05267 13.7055 9.93272 15.0882 10.229C16.442 10.4797 17.846 10.1287 18.8488 9.27631L18.1969 12.3851ZM19.4505 6.51845L19.3679 6.92443C18.7849 8.52312 17.0833 9.54325 15.3388 9.176C13.6008 8.8101 12.3641 7.23415 12.4646 5.51401L12.5309 5.16468V5.11455L13.1732 1.90289C13.7864 3.10865 14.9144 4.0145 16.2916 4.31224C16.5924 4.36236 16.8432 4.41254 17.144 4.41254C18.2628 4.41254 19.3682 3.98647 20.2454 3.28587L19.4505 6.51845ZM11.6211 4.69066C11.6016 4.72956 11.5868 4.77075 11.5782 4.81358L11.4926 5.23454C11.2525 6.00483 10.7797 6.67899 10.0739 7.1201C9.27166 7.6215 8.31892 7.82211 7.41636 7.6215C6.55094 7.43218 5.80269 6.93624 5.29653 6.26014C4.743 5.4915 4.49862 4.50779 4.70869 3.50993L5.11102 1.49821C5.86638 2.25545 7.07291 3.00853 8.41916 3.00853C9.54131 3.00853 11.0319 2.59309 12.157 1.90366L11.6211 4.69066ZM5.75057 8.04739C6.1878 8.32557 6.67968 8.54057 7.21581 8.6746C8.56965 8.92533 9.97361 8.5743 10.9765 7.72192L10.3246 10.8308C10.1241 11.7333 9.62263 12.5356 8.82038 13.037C8.25246 13.392 7.60915 13.5952 6.96162 13.6131C6.73128 13.6118 6.49759 13.5878 6.26313 13.5384C4.35771 13.1373 3.10418 11.282 3.50534 9.37661C3.51773 9.30234 3.51468 9.23112 3.49952 9.16519L4.10698 6.26802C4.48428 6.99858 5.05508 7.61645 5.75057 8.04739ZM24.8658 19.9565C24.6653 20.8591 24.1638 21.6613 23.3616 22.1628C22.7943 22.5173 22.1517 22.7205 21.505 22.7388C21.2739 22.7378 21.0395 22.7137 20.8043 22.6642C19.0203 22.2887 17.8078 20.6383 17.9899 18.8655C18.0312 18.7306 18.0673 18.593 18.0966 18.4523L18.6965 15.503C18.7503 15.6027 18.8246 15.6963 18.8989 15.8449C19.5507 16.8477 20.5536 17.5497 21.757 17.8004C22.9316 18.018 24.1438 17.7823 25.0991 17.1594C25.1383 17.1393 25.1776 17.1192 25.2168 17.0985C25.3174 17.0331 25.4142 16.9632 25.5086 16.8908L24.8658 19.9565ZM26.1194 13.9896C25.8347 15.3422 24.8168 16.3656 23.5687 16.7024C23.5488 16.7078 23.5289 16.7136 23.5089 16.7186C23.4797 16.7259 23.4502 16.7322 23.4208 16.7387C23.3942 16.7447 23.3677 16.751 23.341 16.7563C23.3033 16.7637 23.2654 16.7701 23.2274 16.7764C23.2113 16.7791 23.1952 16.7821 23.179 16.7845C22.7839 16.8435 22.3719 16.8346 21.9576 16.7474C21.5668 16.6606 21.1949 16.5171 20.858 16.3174C20.853 16.3145 20.848 16.3117 20.8431 16.3087C20.8062 16.2866 20.7701 16.2634 20.7341 16.2399C20.7204 16.2309 20.7065 16.2222 20.6929 16.2131C20.6583 16.1898 20.6243 16.1656 20.5905 16.141C20.5797 16.1332 20.5687 16.1255 20.5579 16.1175C20.2434 15.8826 19.969 15.5913 19.7514 15.2432C19.3516 14.6034 19.1439 13.868 19.1775 13.1386L19.2619 12.7234C19.2749 12.6776 19.2882 12.632 19.3001 12.5856L19.8879 9.54443C20.4968 10.7117 21.5842 11.5393 23.0106 11.8836C24.3644 12.1343 25.7684 11.7833 26.7712 10.9309L26.1504 13.8918C26.1368 13.9232 26.1262 13.9559 26.1194 13.9896ZM28.5585 2.25616C28.5443 2.28842 28.5332 2.32197 28.5262 2.35664V2.40676C28.3257 3.30932 27.7741 4.06145 27.022 4.51273C26.2197 5.01413 25.267 5.16456 24.4146 4.96401C23.512 4.81358 22.81 4.262 22.3587 3.40962C21.9576 2.70761 21.8072 1.85524 21.9075 1.0028H28.8271L28.5585 2.25616ZM20.8043 1.0028C20.1023 2.60737 18.1969 3.71048 16.4921 3.3595C15.2385 3.10877 14.2357 2.20621 13.8847 1.0028H20.8043ZM11.7286 1.0028C10.7759 1.60451 9.42208 2.00566 8.41922 2.00566C7.56679 2.00566 6.66423 1.55439 6.06253 1.0028H11.7286ZM6.41356 24.8203C5.6113 25.3217 4.65857 25.5223 3.75601 25.3217C2.85345 25.1211 2.0512 24.6197 1.54974 23.8175C1.04833 23.0152 0.847727 22.0625 1.04833 21.1599L1.70016 18.0511C1.76732 18.1798 1.84166 18.3049 1.92104 18.4269C1.92991 18.4408 1.93832 18.455 1.94737 18.4688C1.95013 18.4729 1.95312 18.477 1.95595 18.4812C2.27172 18.9581 2.67782 19.3763 3.15724 19.7067C3.63919 20.0457 4.19536 20.3045 4.80899 20.4579C5.70009 20.6229 6.61293 20.5272 7.41877 20.1994C7.70805 20.0934 7.99151 19.962 8.2688 19.8061C8.35288 19.7514 8.43397 19.6934 8.51371 19.634L7.91776 22.5639C7.91101 22.6044 7.90607 22.6448 7.90031 22.6852C7.6896 23.5586 7.19454 24.3322 6.41356 24.8203ZM14.2858 26.4248C13.4836 26.9262 12.5309 27.1269 11.6283 26.9262C10.7257 26.7257 9.92349 26.2242 9.42203 25.422C8.92057 24.6197 8.72002 23.667 8.92062 22.7644L9.57733 19.6647C10.18 20.8632 11.2808 21.7122 12.6311 22.0123C12.8664 22.0613 13.1016 22.0905 13.3354 22.102C13.4182 22.1086 13.501 22.1126 13.5838 22.1126C14.4362 22.1126 15.2886 21.8619 16.141 21.3104C16.2417 21.2449 16.3385 21.175 16.433 21.1026L15.79 24.2186C15.5896 25.1212 15.0881 25.9234 14.2858 26.4248ZM23.6624 25.8231C23.4619 26.7257 22.9604 27.528 22.1581 28.0294C21.3559 28.5309 20.4031 28.7314 19.5006 28.5308C18.598 28.3303 17.7958 27.8288 17.2943 27.0266C16.8744 26.3547 16.6666 25.5775 16.7275 24.8125C16.7729 24.668 16.8115 24.5201 16.843 24.369L17.4705 21.3101C18.0776 22.4884 19.1691 23.3704 20.5536 23.6671C21.9074 23.9178 23.3114 23.5667 24.3142 22.7144L23.6624 25.8231Z" fill="#4C5462"/>
</svg>
