<svg width="28" height="28" viewBox="0 0 28 28" fill="none" xmlns="http://www.w3.org/2000/svg">
<path d="M25.2 0H2.80002C1.25998 0 0 1.22061 0 2.71252V24.4125C0 25.9043 1.25998 27.125 2.80002 27.125H25.2C26.74 27.125 28 25.9044 28 24.4125V2.71252C28 1.22061 26.74 0 25.2 0ZM27.0667 24.4125C27.0667 25.4071 26.2267 26.2208 25.2 26.2208H2.80002C1.77333 26.2208 0.933339 25.4071 0.933339 24.4125V2.71252C0.933339 1.71791 1.77333 0.904172 2.80002 0.904172H25.2C26.2267 0.904172 27.0667 1.71791 27.0667 2.71252V24.4125Z" fill="#4C5462"/>
<path d="M24.5 1.80835H3.5C2.61331 1.80835 1.86667 2.53171 1.86667 3.39064V23.7344C1.86667 24.5934 2.61336 25.3167 3.5 25.3167H24.5C25.3867 25.3167 26.1333 24.5933 26.1333 23.7344V3.39064C26.1333 2.53165 25.3866 1.80835 24.5 1.80835ZM25.2 23.7344C25.2 24.0961 24.8733 24.4125 24.5 24.4125H3.5C3.12665 24.4125 2.80001 24.0961 2.80001 23.7344V3.39064C2.80001 3.02896 3.12665 2.71252 3.5 2.71252H24.5C24.8733 2.71252 25.2 3.02896 25.2 3.39064V23.7344Z" fill="#4C5462"/>
<path d="M14 6.78127C10.1266 6.78127 6.99995 9.81022 6.99995 13.5625C6.99995 17.3148 10.1266 20.3438 14 20.3438C17.8733 20.3438 21 17.3148 21 13.5625C21 9.81022 17.8733 6.78127 14 6.78127ZM14.4667 19.4225V18.5354C14.4667 18.2641 14.28 18.0833 14 18.0833C13.72 18.0833 13.5334 18.2641 13.5334 18.5354V19.4225C10.3929 19.193 7.9334 16.6653 7.9334 13.5625C7.9334 10.4596 10.3929 7.93191 13.5334 7.7024V8.58956C13.5334 8.8608 13.72 9.04161 14 9.04161C14.28 9.04161 14.4667 8.8608 14.4667 8.58956V7.7024C17.6071 7.93191 20.0666 10.4596 20.0666 13.5625C20.0666 16.6653 17.6071 19.193 14.4667 19.4225Z" fill="#4C5462"/>
<path d="M10.7333 11.7541C9.7066 11.7541 8.86662 12.5679 8.86662 13.5625C8.86662 14.5571 9.7066 15.3708 10.7333 15.3708C11.76 15.3708 12.6 14.5571 12.6 13.5625C12.6 12.5679 11.76 11.7541 10.7333 11.7541ZM10.7333 14.4666C10.2199 14.4666 9.79995 14.0598 9.79995 13.5625C9.79995 13.0652 10.2199 12.6583 10.7333 12.6583C11.2466 12.6583 11.6666 13.0652 11.6666 13.5625C11.6666 14.0598 11.2466 14.4666 10.7333 14.4666Z" fill="#4C5462"/>
<path d="M15.4 13.5625C15.4 14.5571 16.24 15.3708 17.2667 15.3708C18.2934 15.3708 19.1334 14.5571 19.1334 13.5625C19.1334 12.5679 18.2934 11.7541 17.2667 11.7541C16.24 11.7541 15.4 12.5679 15.4 13.5625ZM18.2 13.5625C18.2 14.0598 17.78 14.4666 17.2666 14.4666C16.7533 14.4666 16.3333 14.0598 16.3333 13.5625C16.3333 13.0652 16.7533 12.6583 17.2666 12.6583C17.78 12.6583 18.2 13.0652 18.2 13.5625Z" fill="#4C5462"/>
<path d="M14 13.1104C13.72 13.1104 13.5333 13.2912 13.5333 13.5625C13.5333 13.8337 13.72 14.0145 14 14.0145C14.28 14.0145 14.4666 13.8337 14.4666 13.5625C14.4666 13.2912 14.28 13.1104 14 13.1104Z" fill="#4C5462"/>
</svg>
