<svg width="32" height="24" viewBox="0 0 32 24" fill="none" xmlns="http://www.w3.org/2000/svg">
<path d="M30.7292 5.92195H30.2084C30.2084 5.62585 30.0001 5.42847 29.6876 5.42847C29.3751 5.42847 29.1667 5.62585 29.1667 5.92195V9.86993H28.6459V7.89597C28.6459 7.59987 28.4376 7.40249 28.1251 7.40249H26.0418C25.7293 7.40249 25.521 7.59987 25.521 7.89597V9.86993H24.5312V8.88292C24.5312 8.83359 24.4792 8.7842 24.4792 8.73487L21.9792 1.97396C21.5104 0.789574 20.3125 0 19.0104 0H14.375C13.0208 0 11.8229 0.789574 11.4062 1.97396L8.9751 8.54866C8.9079 8.62245 8.86603 8.7188 8.85645 8.83203C8.85431 8.84903 8.85419 8.86598 8.85419 8.88298V9.86999H7.8125V3.45445C7.8125 3.15835 7.60419 2.96097 7.29169 2.96097H5.20831H2.60419C2.5 2.96097 2.34375 3.0103 2.23962 3.10902L0.15625 5.08299C0.052063 5.1817 0 5.28042 0 5.42847V10.8569C0 11.9426 0.9375 12.8309 2.08331 12.8309H4.6875V19.2346C4.05164 19.6808 3.64581 20.398 3.64581 21.2203C3.64581 22.6021 4.79163 23.6878 6.25 23.6878C7.70831 23.6878 8.85419 22.6021 8.85419 21.2203C8.85419 20.398 8.44836 19.6808 7.8125 19.2346V10.8569H8.85419V11.8439C8.85419 12.0243 8.93182 12.1677 9.06287 12.2525L12.6562 17.8152C13.0208 18.4074 13.6979 18.7528 14.4271 18.7528H18.9062C19.6354 18.7528 20.3125 18.4074 20.7812 17.8152L24.4792 12.0906C24.4792 12.0413 24.5312 11.9426 24.5312 11.8438V10.8568H25.5208V19.2345C24.8849 19.6807 24.4791 20.398 24.4791 21.2202C24.4791 22.602 25.6249 23.6877 27.0833 23.6877C28.5416 23.6877 29.6875 22.6021 29.6875 21.2202C29.6875 20.398 29.2817 19.6807 28.6458 19.2345V10.8569H29.1666V14.8049C29.1666 15.101 29.3749 15.2983 29.6874 15.2983C29.9999 15.2983 30.2083 15.101 30.2083 14.8049V6.90896H30.7291C31.0416 6.90896 31.2499 6.71158 31.2499 6.41548C31.2499 6.11939 31.0417 5.92195 30.7292 5.92195ZM2.08331 11.8439C1.51038 11.8439 1.04163 11.3997 1.04163 10.8569V10.3634H2.08331C2.39581 10.3634 2.60413 10.166 2.60413 9.86993C2.60413 9.57384 2.39581 9.37646 2.08331 9.37646H1.04169V8.38945H2.08337C2.39587 8.38945 2.60419 8.19207 2.60419 7.89597C2.60419 7.59987 2.39587 7.40249 2.08337 7.40249H1.04169V5.62591L2.8125 3.94804H4.6875V11.8439H2.08331ZM6.25 22.7008C5.36456 22.7008 4.6875 22.0593 4.6875 21.2203C4.6875 20.7187 4.92969 20.2878 5.31366 20.0223C5.37793 20.0076 5.43463 19.9866 5.46875 19.9866C5.98956 19.6905 6.51044 19.6905 7.03125 19.9866C7.09277 20.0254 7.16248 20.0484 7.23376 20.0567C7.59003 20.3242 7.8125 20.7397 7.8125 21.2203C7.8125 22.0593 7.13544 22.7008 6.25 22.7008ZM6.25 18.7529C6.07117 18.7529 5.89709 18.7694 5.72919 18.8006V12.3374V3.94798H6.77087V18.8006C6.60291 18.7694 6.42883 18.7529 6.25 18.7529ZM9.89581 9.3764H23.4375V11.3504H9.89581V9.3764ZM12.3958 2.31945C12.7083 1.52988 13.4896 0.98701 14.375 0.98701H19.0104C19.8959 0.98701 20.6771 1.52988 20.9896 2.31945L23.22 8.38945H10.118L12.3958 2.31945ZM19.7917 17.2724C19.5834 17.5685 19.2709 17.7658 18.9062 17.7658H14.4271C14.0625 17.7658 13.75 17.5685 13.5416 17.2724L10.3152 12.3374H23.0181L19.7917 17.2724ZM27.0833 22.7008C26.1979 22.7008 25.5208 22.0593 25.5208 21.2203C25.5208 20.7397 25.7433 20.3242 26.0995 20.0567C26.1709 20.0484 26.2405 20.0254 26.3021 19.9866C26.8229 19.6905 27.3438 19.6905 27.8646 19.9866C27.9348 20.0199 27.9816 20.0305 28.0364 20.0341C28.4106 20.3005 28.6458 20.7261 28.6458 21.2203C28.6458 22.0593 27.9688 22.7008 27.0833 22.7008ZM27.5884 18.798C27.4341 18.7533 27.2346 18.7528 27.0833 18.7528C26.9321 18.7528 26.7325 18.7532 26.5782 18.798C26.573 18.7989 26.5677 18.7996 26.5624 18.8006V8.38945H27.6041V18.8006C27.5989 18.7996 27.5936 18.7989 27.5884 18.798Z" fill="#4C5462"/>
</svg>
