<svg width="22" height="22" viewBox="0 0 22 22" fill="none" xmlns="http://www.w3.org/2000/svg">
<path d="M8.93532 12.9484C8.97481 12.9851 9.01387 13.0241 9.05105 13.0641C9.0644 13.078 9.41921 13.4448 10.0578 13.7986C10.8588 14.2423 11.7315 14.4672 12.6517 14.4672C12.6903 14.4672 12.7291 14.4668 12.768 14.466L14.7372 12.4969C15.1556 12.0784 15.7119 11.848 16.3037 11.848C16.8954 11.848 17.4517 12.0784 17.8702 12.4968L21.3327 15.9593C22.1964 16.8231 22.1964 18.2285 21.3327 19.0923L19.8903 20.5347C19.3453 21.0796 18.5542 21.4072 17.9864 21.586C17.1672 21.8441 16.2223 21.9805 15.254 21.9805C14.5038 21.9805 13.7331 21.9003 12.9634 21.7422C12.1116 21.5671 11.2532 21.2947 10.412 20.9326C8.49589 20.1075 6.64721 18.8121 4.91739 17.0823C3.40022 15.5651 2.21315 13.9509 1.38927 12.2844C0.676178 10.8421 0.235992 9.36816 0.0810432 7.90352C-0.0472832 6.69055 0.0265903 5.4904 0.294708 4.43271C0.414738 3.95931 0.570366 3.52504 0.757254 3.14199C0.962545 2.72111 1.20068 2.37365 1.46503 2.10934L2.90739 0.666984C3.32578 0.248633 3.88214 0.0181885 4.47385 0.0181885C5.06555 0.0181885 5.62192 0.248633 6.04035 0.66706L9.50278 4.12953C10.3665 4.99327 10.3665 6.39871 9.50282 7.26249L7.53354 9.23177C7.5145 10.1418 7.71447 11.0071 8.12973 11.8089C8.5026 12.5287 8.91801 12.9318 8.93532 12.9484ZM8.36051 5.27179L4.89804 1.80932C4.78092 1.6922 4.62737 1.63364 4.47389 1.63364C4.32037 1.63364 4.16681 1.6922 4.04969 1.80932L2.60733 3.25172C1.56251 4.29655 0.048687 9.92891 6.05973 15.9399C9.51654 19.3967 12.8481 20.365 15.254 20.365C17.0317 20.365 18.304 19.8363 18.748 19.3924L20.1904 17.95C20.4246 17.7157 20.4246 17.3359 20.1904 17.1016L16.7279 13.6392C16.6108 13.5221 16.4573 13.4634 16.3038 13.4634C16.1502 13.4634 15.9967 13.5221 15.8796 13.6392L13.6351 15.8836C13.5345 15.9843 13.4011 16.0458 13.2593 16.0575C13.0513 16.0746 12.8491 16.0827 12.6518 16.0827C9.75049 16.0827 8.02475 14.3336 7.86727 14.1634C7.85732 14.1526 7.84713 14.1424 7.83639 14.1325C7.65463 13.9643 5.67211 12.0079 5.94226 8.74052C5.95403 8.59862 6.01546 8.46532 6.11614 8.36463L8.36059 6.12019C8.59477 5.8859 8.59477 5.50608 8.36051 5.27179Z" fill="white"/>
<path d="M15.2532 22C16.2234 22 17.1703 21.8633 17.9914 21.6047C18.5611 21.4252 19.3553 21.0963 19.9029 20.5487L21.3453 19.1063C22.2163 18.2352 22.2163 16.8178 21.3452 15.9466L17.8828 12.4841C17.4608 12.0622 16.8998 11.8298 16.303 11.8298C15.7061 11.8298 15.145 12.0622 14.7231 12.4842L12.7593 14.448C12.7231 14.4487 12.6869 14.449 12.651 14.449C11.7339 14.449 10.8643 14.2249 10.0662 13.7828C9.42968 13.4302 9.07857 13.0671 9.06394 13.0517C9.02672 13.0117 8.98742 12.9724 8.94738 12.9353C8.93025 12.9188 8.51847 12.5204 8.14574 11.8008C7.73373 11.0054 7.53379 10.1439 7.55151 9.24035L9.5154 7.27643C10.3865 6.4053 10.3865 4.9879 9.51536 4.11681L6.05293 0.654339C5.63096 0.232405 5.06991 0 4.47308 0C3.87625 0 3.31524 0.232405 2.89323 0.654377L1.45087 2.09674C1.18509 2.36248 0.945749 2.71163 0.739515 3.13443C0.552021 3.51862 0.395981 3.95409 0.275648 4.42878C0.00696754 5.48857 -0.0670948 6.69102 0.0614948 7.90618C0.216669 9.37294 0.657459 10.849 1.37157 12.2935C2.19632 13.9617 3.38459 15.5777 4.90323 17.0963C6.63483 18.8278 8.48543 20.1246 10.4037 20.9505C11.2463 21.3133 12.106 21.5861 12.9587 21.7613C13.7299 21.9197 14.5019 22 15.2532 22ZM16.3029 11.8675C16.8896 11.8675 17.4412 12.096 17.8561 12.5108L21.3185 15.9733C22.1749 16.8297 22.1749 18.2232 21.3186 19.0796L19.8762 20.522C19.334 21.0643 18.5457 21.3905 17.98 21.5687C17.1625 21.8262 16.2196 21.9623 15.2532 21.9623C14.5044 21.9623 13.735 21.8823 12.9663 21.7243C12.1161 21.5497 11.2589 21.2777 10.4187 20.9159C8.50478 20.0918 6.65809 18.7978 4.9299 17.0696C3.41415 15.5539 2.2283 13.9413 1.40536 12.2767C0.693209 10.8363 0.2537 9.36449 0.0989399 7.90218C-0.0291595 6.6914 0.0445633 5.49351 0.312113 4.43802C0.431841 3.96586 0.586979 3.53283 0.773302 3.15095C0.977726 2.73188 1.21462 2.38616 1.47746 2.12336L2.91993 0.681037C3.33477 0.266193 3.88639 0.0377097 4.47308 0.0377097C5.05977 0.0377097 5.61142 0.266193 6.02627 0.681037L9.4887 4.14351C10.3451 4.99989 10.3451 6.39338 9.48874 7.24981L7.5141 9.22444L7.51395 9.23202C7.49487 10.1447 7.69617 11.0149 8.11222 11.8182C8.48781 12.5433 8.90397 12.9459 8.92151 12.9628C8.96106 12.9994 8.99968 13.038 9.03648 13.0777C9.05145 13.0933 9.40649 13.4604 10.0479 13.8158C10.8517 14.261 11.7275 14.4868 12.651 14.4868C12.6897 14.4868 12.7286 14.4864 12.7677 14.4856L12.7753 14.4854L12.7806 14.48L14.7498 12.5109C15.1646 12.096 15.7162 11.8675 16.3029 11.8675ZM15.2532 20.3845C16.9909 20.3845 18.2894 19.8775 18.7605 19.4064L20.2029 17.964C20.4441 17.7227 20.4441 17.3301 20.2029 17.0889L16.7404 13.6265C16.6235 13.5096 16.4682 13.4452 16.3029 13.4452C16.1377 13.4452 15.9824 13.5096 15.8654 13.6265L13.621 15.871C13.5237 15.9682 13.3944 16.028 13.2569 16.0393C13.0542 16.056 12.8503 16.0645 12.6509 16.0645C9.68483 16.0645 7.95256 14.2293 7.88027 14.1512C7.87001 14.1401 7.85941 14.1296 7.84833 14.1193C7.75982 14.0374 5.68462 12.0757 5.9602 8.7427C5.97159 8.60513 6.03143 8.47579 6.12865 8.37857L8.37309 6.13413C8.61429 5.8929 8.61429 5.50038 8.37306 5.25915L4.91059 1.79668C4.79369 1.67982 4.63832 1.61545 4.47308 1.61545C4.3078 1.61545 4.15243 1.67982 4.03553 1.79668L2.59317 3.23908C1.979 3.85325 1.44601 5.63813 1.668 7.73619C1.87533 9.69539 2.8031 12.7115 6.04558 15.954C7.63176 17.5401 9.31301 18.722 11.0427 19.4668C12.4571 20.0757 13.8737 20.3845 15.2532 20.3845ZM16.3029 13.4829C16.4581 13.4829 16.604 13.5434 16.7138 13.6531L20.1762 17.1156C20.4028 17.3421 20.4028 17.7107 20.1762 17.9373L18.7338 19.3797C18.268 19.8455 16.9802 20.3468 15.2532 20.3468C13.8788 20.3468 12.4672 20.0391 11.0576 19.4321C9.33239 18.6892 7.6551 17.51 6.07227 15.9273C2.83757 12.6926 1.91225 9.68533 1.70556 7.73215C1.45796 5.392 2.13496 3.75061 2.61987 3.2657L4.06223 1.8233C4.17197 1.71357 4.3179 1.65312 4.47312 1.65312C4.62833 1.65312 4.77419 1.71357 4.88396 1.8233L8.34643 5.28577C8.57296 5.51229 8.57299 5.88091 8.34647 6.10743L6.10203 8.35187C5.99851 8.45542 5.93478 8.59306 5.92268 8.73953C5.64559 12.0906 7.73373 14.0645 7.82276 14.147C7.83317 14.1566 7.84301 14.1664 7.85262 14.1768C7.9254 14.2554 9.66861 16.1022 12.651 16.1022C12.8514 16.1022 13.0563 16.0937 13.26 16.0769C13.4064 16.0648 13.5441 16.0011 13.6477 15.8976L15.8921 13.6531C16.0019 13.5433 16.1478 13.4829 16.3029 13.4829Z" fill="white"/>
</svg>
