<svg width="52" height="32" viewBox="0 0 52 32" fill="none" xmlns="http://www.w3.org/2000/svg">
<path d="M51.0614 27.1125H26.0063V0.9375C26.0063 0.41975 25.5861 0 25.0677 0C24.5493 0 24.1291 0.41975 24.1291 0.9375V12.5224L19.8973 2.86162C19.1943 1.25694 17.2701 0 15.5166 0H6.46821C4.56474 0 3.01613 1.54669 3.01613 3.44788V16.0951C1.31783 16.3099 0 17.761 0 19.5146V25.5395C0 27.4408 1.54861 28.9875 3.45209 28.9875H4.13497C4.55754 30.7144 6.11904 32 7.97627 32C9.83344 32 11.3948 30.7144 11.8174 28.9875H18.2103C18.6328 30.7144 20.1943 32 22.0516 32C23.9087 32 25.4701 30.7144 25.8927 28.9875H51.0614C51.5797 28.9875 52 28.5677 52 28.05C52 27.5322 51.5797 27.1125 51.0614 27.1125ZM6.46821 1.875H15.5166C16.5284 1.875 17.7718 2.68725 18.1774 3.61325L23.6325 16.0667H21.435L16.6862 11.3237L17.4443 10.5665C17.8109 10.2004 17.8109 9.60675 17.4443 9.24069C17.0778 8.87463 16.4835 8.87463 16.1169 9.24069L14.6954 10.6606L13.2732 12.0811C12.9066 12.4471 12.9066 13.0407 13.2732 13.4069C13.4565 13.5899 13.6967 13.6814 13.9369 13.6814C14.1771 13.6814 14.4173 13.5899 14.6005 13.4069L15.3586 12.6496L18.78 16.0667H8.9149V8.97081C8.9149 8.45306 8.49465 8.03331 7.97627 8.03331C7.4579 8.03331 7.03765 8.45306 7.03765 8.97081V16.0666H4.89338V3.44788C4.89338 2.58056 5.59986 1.875 6.46821 1.875ZM1.87726 25.5396V19.5146C1.87726 18.6473 2.58373 17.9417 3.45209 17.9417H24.1291L24.1289 24.6908C23.5248 24.3167 22.8132 24.1 22.0516 24.1C20.1943 24.1 18.6328 25.3856 18.2103 27.1125H11.8174C11.3948 25.3856 9.83344 24.1 7.97627 24.1C6.11904 24.1 4.55754 25.3856 4.13497 27.1125H3.45209C2.58373 27.1125 1.87726 26.4069 1.87726 25.5396ZM7.97627 30.125C6.83127 30.125 5.89972 29.195 5.89884 28.0516L5.8989 28.05L5.89884 28.0484C5.89972 26.905 6.83127 25.975 7.97627 25.975C9.12171 25.975 10.0536 26.9059 10.0536 28.05C10.0536 29.1941 9.12165 30.125 7.97627 30.125ZM22.0515 30.125C20.9059 30.125 19.974 29.1941 19.974 28.05C19.974 26.9059 20.906 25.975 22.0515 25.975C23.1969 25.975 24.1288 26.9059 24.1288 28.05C24.1288 29.1941 23.1969 30.125 22.0515 30.125Z" fill="white"/>
</svg>
