<svg width="27" height="27" viewBox="0 0 27 27" fill="none" xmlns="http://www.w3.org/2000/svg">
<g clip-path="url(#clip0)">
<path d="M0.0610352 13.3832V8.35214C0.0610352 5.80844 2.12875 3.74072 4.67245 3.74072H12.6413C13.798 3.74072 14.7398 4.68246 14.7398 5.83915H17.3551L20.1906 7.25687V8.35726H26.061V9.19151H20.1906V10.2919L17.3551 11.7096H14.7398V13.3884C14.7398 14.5451 13.798 15.4868 12.6413 15.4868H10.113C10.0158 16.9813 8.8693 18.1891 7.41064 18.3888L7.01143 20.5179C7.33387 20.4821 8.32678 20.5384 8.44962 21.7769V22.1966C8.44962 22.8927 7.88663 23.4557 7.19056 23.4557H1.73977C1.04371 23.4557 0.480721 22.8927 0.480721 22.1966V21.7769C0.480721 21.1525 0.941349 20.6305 1.54017 20.5332L2.49214 15.4868H2.15946C1.00277 15.4817 0.0610352 14.5399 0.0610352 13.3832ZM14.7347 10.86H16.8331V10.0258H17.6725V10.6041L19.3512 9.76474V7.76868L17.6725 6.92931V7.50765H16.8331V6.66828H14.7347V10.86ZM9.27875 15.4817H7.95828L7.57954 17.4982C8.49568 17.2474 9.18662 16.4541 9.27875 15.4817ZM2.23623 21.3521H1.73466C1.50434 21.3521 1.31497 21.5415 1.31497 21.7718V22.1915C1.31497 22.4218 1.50434 22.6112 1.73466 22.6112H7.19056C7.42088 22.6112 7.61025 22.4218 7.61025 22.1915V21.7718C7.61025 21.5415 7.42088 21.3521 7.19056 21.3521H5.99804L7.10355 15.4817H3.34174L2.23623 21.3521ZM12.6413 14.6372C13.3374 14.6423 13.9004 14.0793 13.9004 13.3832V11.7045V5.83403C13.9004 5.13797 13.3374 4.57497 12.6413 4.57497H11.3823V5.41434H10.5429V4.57497H9.70355V5.41434H8.86418V4.57497H8.02481V5.41434H7.18544V4.57497H4.66733C2.58426 4.57497 0.895287 6.26907 0.895287 8.34702V13.3781C0.895287 14.0742 1.45828 14.6372 2.15434 14.6372H12.6413Z" fill="#4C5462"/>
<path d="M4.67256 8.35205C6.29501 8.35205 7.19067 9.68788 7.19067 10.8702C7.19067 12.2111 6.06981 13.3883 4.67256 13.3883C3.33162 13.3883 2.15445 12.2981 2.15445 10.8702C2.15957 9.86189 2.89658 8.35205 4.67256 8.35205ZM6.34619 10.865C6.3513 10.1895 5.83949 9.19142 4.67256 9.19142C4.3706 9.19142 4.07886 9.27843 3.82296 9.42685L6.11075 11.7146C6.25918 11.4587 6.34619 11.1721 6.34619 10.865ZM4.67256 12.5438C4.97453 12.5438 5.26627 12.4568 5.52217 12.3083L3.23437 10.0206C3.08595 10.2765 2.99894 10.5631 2.99894 10.8702C2.99894 11.5099 3.49028 12.5438 4.67256 12.5438Z" fill="#4C5462"/>
</g>
<defs>
<clipPath id="clip0">
<rect width="26" height="26" transform="matrix(-1 0 0 1 26.061 0.598145)" fill="white"/>
</clipPath>
</defs>
</svg>
