<svg width="28" height="28" viewBox="0 0 28 28" fill="none" xmlns="http://www.w3.org/2000/svg">
<path d="M27.5333 0H24.2666H21.14H15.8667H7.09331H3.96665H0.466642C0.186646 0 0 0.186646 0 0.466642V3.96665V9.23998V14.5133V19.8333V25.1066V27.5333C0 27.8133 0.186646 27.9999 0.466642 27.9999H3.31331H7.74665H13.0666H15.1666H20.4866H24.9199H27.5332C27.8132 27.9999 27.9999 27.8133 27.9999 27.5333V24.8733V19.6001C27.9999 19.6 27.9999 19.6 27.9999 19.5999V14.3266V14.3266V9.05334C27.9999 9.04655 27.9993 9.04038 27.9991 9.03388C27.9995 9.02481 27.9999 9.01575 27.9999 9.00669V3.73336V0.466642C28 0.186646 27.8133 0 27.5333 0ZM23.8933 20.58L23.1556 19.8423C23.1323 19.789 23.0984 19.7384 23.0533 19.6934L20.7433 17.3833L22.7033 15.4234L27.0666 19.7867V23.7534L23.8933 20.58ZM13.2533 27.0667L12.1566 25.97L20.0666 18.06L22.0295 20.0228L19.8389 22.2526C19.7868 22.2759 19.7374 22.3092 19.6933 22.3533L14.98 27.0667H13.2533ZM4.15335 0.979986H6.90666L13.44 7.5133L11.5766 9.3767L11.4881 9.46521L5.87997 3.82665C5.83488 3.78156 5.78434 3.74764 5.73102 3.72435L3.54665 1.53998L4.15335 0.979986ZM24.08 0.933339L27.0667 3.96665V7.88665L20.72 1.53998L21.3266 0.933339H24.08ZM27.0667 18.48L27.0663 18.4796L23.1222 14.5065C23.103 14.4761 23.0804 14.447 23.0534 14.42L20.7434 12.1099L22.7034 10.15L27.0667 14.5133V18.48H27.0667ZM3.55933 6.82599L5.52837 4.87502L13.44 12.7866L11.48 14.7466L5.87997 9.14663L3.55933 6.82599ZM5.52837 10.1484L13.44 18.06L11.48 20.0199L5.87997 14.42L3.55933 12.0993L5.52837 10.1484ZM12.1362 20.6762L14.4666 18.3866L20.0666 12.7866L22.0033 14.7233L14.0933 22.6333L12.1362 20.6762ZM14.0933 17.36L12.1566 15.4233L14.4667 13.1133L20.0666 7.5133L22.0033 9.44998L14.0933 17.36ZM14.0943 12.0856L12.1396 10.1203L20.0433 2.21667L22.0033 4.17665L14.0943 12.0856ZM0.933339 14.7467L2.89331 12.7867L4.85328 14.7467L0.933283 18.6667V14.7467H0.933339ZM3.54665 17.4066L5.50663 15.4467L13.4166 23.3567L11.48 25.2933L5.87997 19.6933C5.83488 19.6482 5.78434 19.6143 5.73102 19.591L3.54665 17.4066ZM0.933339 4.15335L2.89331 2.19338L4.87664 4.1767L2.56667 6.48667C2.56667 6.48667 2.56667 6.48667 2.56661 6.48672L0.933283 8.12005V4.15335H0.933339ZM0.933339 9.42796L2.90287 7.4765L4.85328 9.47339L2.56661 11.7601L0.933283 13.3934V9.42796H0.933339ZM0.933339 20.02L2.89331 18.1067L4.85328 20.0666L2.56661 22.3533L0.933283 23.9866V20.02H0.933339ZM23.1221 9.23314C23.103 9.20279 23.0803 9.17365 23.0533 9.14663L20.7433 6.83661L22.7033 4.87664L27.0666 9.23998V13.2066L23.1221 9.23314ZM27.0667 0.933339V2.61332L25.3867 0.933339H27.0667ZM14.0933 6.81331L12.1333 4.85334L16.0533 0.933339H20.0199L14.0933 6.81331ZM14.7 0.933339L11.4567 4.17665L8.21335 0.933339H14.7ZM0.933339 0.933339H2.84666L2.56667 1.21333L0.933339 2.84666V0.933339ZM0.933339 25.2946L2.90304 23.343L4.87669 25.3166L3.12666 27.0667H0.933339V25.2946ZM4.47999 27.0667L5.55333 25.9933L6.62667 27.0667H4.47999ZM7.98 27.0667L3.60615 22.6463L5.56 20.7104L11.1533 26.2733L11.9466 27.0667H7.98ZM20.0666 23.3333L22.05 25.3166L20.3 27.0666H16.3333L20.0666 23.3333ZM21.6066 27.0667L22.7033 25.97L23.8 27.0667H21.6066ZM27.0667 27.0667H25.1533L23.0534 24.9667C23.0083 24.9216 22.9577 24.8877 22.9044 24.8644L20.72 22.68L22.7034 20.6967L27.0667 25.06V27.0667H27.0667Z" fill="#4C5462"/>
</svg>
