<svg width="54" height="49" viewBox="0 0 54 49" fill="none" xmlns="http://www.w3.org/2000/svg">
<path d="M41.2181 20.7656C40.248 18.9472 38.3645 17.8184 36.3046 17.8184H17.151C15.0912 17.8184 13.2076 18.9473 12.2375 20.7656L5.10979 34.1302C4.68132 34.9349 4.45508 35.8408 4.45508 36.7501V44.5455C4.45508 47.0022 6.45398 49.0001 8.90964 49.0001H44.5458C47.0015 49.0001 49.0004 47.0023 49.0004 44.5455V36.7501C49.0004 35.8409 48.7742 34.935 48.3457 34.1291L41.2181 20.7656ZM46.7732 44.5454C46.7732 45.7732 45.7748 46.7727 44.5459 46.7727H8.90964C7.68071 46.7727 6.68241 45.7732 6.68241 44.5454V36.75C6.68241 36.2051 6.81949 35.6602 7.07612 35.1773L14.2038 21.8138C14.7846 20.723 15.9156 20.0454 17.151 20.0454H36.3046C37.54 20.0454 38.6711 20.723 39.2518 21.8138L46.3795 35.1763C46.6361 35.6602 46.7732 36.2051 46.7732 36.75V44.5454Z" fill="#4C5462"/>
<path d="M20.0456 28.9545C21.2757 28.9545 22.2728 27.9573 22.2728 26.7272C22.2728 25.4972 21.2757 24.5 20.0456 24.5C18.8155 24.5 17.8184 25.4972 17.8184 26.7272C17.8184 27.9573 18.8155 28.9545 20.0456 28.9545Z" fill="#4C5462"/>
<path d="M20.0456 35.6361C21.2757 35.6361 22.2728 34.6389 22.2728 33.4089C22.2728 32.1788 21.2757 31.1816 20.0456 31.1816C18.8155 31.1816 17.8184 32.1788 17.8184 33.4089C17.8184 34.6389 18.8155 35.6361 20.0456 35.6361Z" fill="#4C5462"/>
<path d="M20.0456 42.3182C21.2757 42.3182 22.2728 41.3211 22.2728 40.091C22.2728 38.8609 21.2757 37.8638 20.0456 37.8638C18.8155 37.8638 17.8184 38.8609 17.8184 40.091C17.8184 41.3211 18.8155 42.3182 20.0456 42.3182Z" fill="#4C5462"/>
<path d="M26.7292 42.3182C27.9592 42.3182 28.9564 41.3211 28.9564 40.091C28.9564 38.8609 27.9592 37.8638 26.7292 37.8638C25.4991 37.8638 24.502 38.8609 24.502 40.091C24.502 41.3211 25.4991 42.3182 26.7292 42.3182Z" fill="#4C5462"/>
<path d="M33.4069 42.3182C34.637 42.3182 35.6341 41.3211 35.6341 40.091C35.6341 38.8609 34.637 37.8638 33.4069 37.8638C32.1769 37.8638 31.1797 38.8609 31.1797 40.091C31.1797 41.3211 32.1769 42.3182 33.4069 42.3182Z" fill="#4C5462"/>
<path d="M26.7292 35.6361C27.9592 35.6361 28.9564 34.6389 28.9564 33.4089C28.9564 32.1788 27.9592 31.1816 26.7292 31.1816C25.4991 31.1816 24.502 32.1788 24.502 33.4089C24.502 34.6389 25.4991 35.6361 26.7292 35.6361Z" fill="#4C5462"/>
<path d="M33.4069 35.6361C34.637 35.6361 35.6341 34.6389 35.6341 33.4089C35.6341 32.1788 34.637 31.1816 33.4069 31.1816C32.1769 31.1816 31.1797 32.1788 31.1797 33.4089C31.1797 34.6389 32.1769 35.6361 33.4069 35.6361Z" fill="#4C5462"/>
<path d="M26.7292 28.9545C27.9592 28.9545 28.9564 27.9573 28.9564 26.7272C28.9564 25.4972 27.9592 24.5 26.7292 24.5C25.4991 24.5 24.502 25.4972 24.502 26.7272C24.502 27.9573 25.4991 28.9545 26.7292 28.9545Z" fill="#4C5462"/>
<path d="M33.4069 28.9545C34.637 28.9545 35.6341 27.9573 35.6341 26.7272C35.6341 25.4972 34.637 24.5 33.4069 24.5C32.1769 24.5 31.1797 25.4972 31.1797 26.7272C31.1797 27.9573 32.1769 28.9545 33.4069 28.9545Z" fill="#4C5462"/>
<path d="M52.5408 11.2429C45.648 3.99342 36.4802 0 26.7261 0C16.9731 0 7.80528 3.99342 0.913527 11.243C0.306736 11.8813 0 12.7194 0 13.5576C0 14.3956 0.306632 15.2336 0.913527 15.8715L6.04671 21.2733C7.25392 22.5413 9.39627 22.5413 10.6035 21.2733C12.3207 19.4669 14.2728 17.978 16.3957 16.8536C17.4593 16.3055 18.1466 15.1516 18.1368 14.0608L18.9133 8.20765C24.5076 6.41755 29.0002 6.4187 34.5423 8.2066L35.3079 13.914C35.3079 15.1484 35.9626 16.2751 37.0327 16.8634C39.1665 17.9933 41.1185 19.4821 42.8369 21.2875C43.4404 21.9237 44.2496 22.2728 45.1153 22.2728C45.9798 22.2728 46.7889 21.9237 47.3926 21.2886L52.541 15.8727C53.1283 15.255 53.4357 14.4499 53.4546 13.6389C53.4745 12.7737 53.1672 11.9018 52.5408 11.2429ZM50.927 14.3369L45.7785 19.7539C45.4186 20.1313 44.8084 20.1302 44.4506 19.7528C42.566 17.7724 40.4213 16.1379 38.0897 14.9035C37.7427 14.7122 37.535 14.3424 37.5253 13.7671L36.6574 7.22229C36.6019 6.80363 36.3137 6.45232 35.9145 6.31524C32.666 5.20272 29.7124 4.64698 26.7499 4.64698C23.7885 4.64698 20.8196 5.20272 17.5429 6.31419C17.1416 6.45012 16.8523 6.80248 16.7969 7.22229L15.9193 13.9139C15.9193 14.3207 15.7007 14.7067 15.3646 14.8796C13.0177 16.1226 10.8731 17.7573 8.98941 19.7376C8.63048 20.1139 8.0193 20.1128 7.66047 19.7386L2.52728 14.3368C2.12492 13.9148 2.12492 13.2004 2.52728 12.7784C8.99495 5.97384 17.5887 2.22723 26.7261 2.22723C35.8636 2.22723 44.4584 5.97373 50.927 12.7785C51.3293 13.2004 51.3293 13.9149 50.927 14.3369Z" fill="#4C5462"/>
</svg>
