<svg width="28" height="28" viewBox="0 0 28 28" fill="none" xmlns="http://www.w3.org/2000/svg">
<path d="M25.6667 14.4527C25.4334 14.4527 25.2 14.686 25.2 14.9193C25.2 15.1993 25.3867 15.3859 25.6667 15.3859C25.9467 15.3859 26.1333 15.1993 26.1333 14.9193C26.1333 14.6393 25.9467 14.4527 25.6667 14.4527Z" fill="#4C5462"/>
<path d="M27.0667 13.0527C26.8334 13.0527 26.6 13.286 26.6 13.5193C26.6 13.7993 26.7867 13.986 27.0667 13.986C27.3467 13.986 27.5333 13.7993 27.5333 13.5193C27.5333 13.2393 27.3467 13.0527 27.0667 13.0527Z" fill="#4C5462"/>
<path d="M24.2667 13.0527C24.0333 13.0527 23.8001 13.286 23.8001 13.5193C23.8001 13.7993 23.9867 13.986 24.2667 13.986C24.5467 13.986 24.7333 13.7993 24.7333 13.5193C24.7333 13.2393 24.5467 13.0527 24.2667 13.0527Z" fill="#4C5462"/>
<path d="M22.8667 14.4527C22.6334 14.4527 22.4 14.686 22.4 14.9193C22.4 15.1993 22.5867 15.3859 22.8667 15.3859C23.1467 15.3859 23.3333 15.1993 23.3333 14.9193C23.3333 14.6393 23.1467 14.4527 22.8667 14.4527Z" fill="#4C5462"/>
<path d="M20.0667 14.4527C19.8334 14.4527 19.6001 14.686 19.6001 14.9193C19.6001 15.1993 19.7867 15.3859 20.0667 15.3859C20.3467 15.3859 20.5333 15.1993 20.5333 14.9193C20.5333 14.6393 20.3467 14.4527 20.0667 14.4527Z" fill="#4C5462"/>
<path d="M21.4667 13.0527C21.2334 13.0527 21 13.286 21 13.5193C21 13.7993 21.1867 13.986 21.4667 13.986C21.7467 13.986 21.9333 13.7993 21.9333 13.5193C21.9333 13.2393 21.7467 13.0527 21.4667 13.0527Z" fill="#4C5462"/>
<path d="M18.6666 13.0527C18.4333 13.0527 18.2 13.286 18.2 13.5193C18.2 13.7993 18.3866 13.986 18.6666 13.986C18.9466 13.986 19.1333 13.7993 19.1333 13.5193C19.1333 13.2393 18.9466 13.0527 18.6666 13.0527Z" fill="#4C5462"/>
<path d="M17.2666 14.4527C17.0333 14.4527 16.8 14.686 16.8 14.9193C16.8 15.1993 16.9866 15.3859 17.2666 15.3859C17.5466 15.3859 17.7333 15.1993 17.7333 14.9193C17.7333 14.6393 17.5467 14.4527 17.2666 14.4527Z" fill="#4C5462"/>
<path d="M14.4666 14.4527C14.2333 14.4527 14 14.686 14 14.9193C14 15.1993 14.1866 15.3859 14.4666 15.3859C14.7466 15.3859 14.9333 15.1993 14.9333 14.9193C14.9333 14.6393 14.7466 14.4527 14.4666 14.4527Z" fill="#4C5462"/>
<path d="M15.8667 13.0527C15.6334 13.0527 15.4001 13.286 15.4001 13.5193C15.4001 13.7993 15.5867 13.986 15.8667 13.986C16.1467 13.986 16.3333 13.7993 16.3333 13.5193C16.3333 13.2393 16.1467 13.0527 15.8667 13.0527Z" fill="#4C5462"/>
<path d="M25.6667 11.6527C25.4334 11.6526 25.2 11.886 25.2 12.1193C25.2 12.3993 25.3867 12.586 25.6667 12.586C25.9467 12.586 26.1333 12.3993 26.1333 12.1193C26.1333 11.8393 25.9467 11.6527 25.6667 11.6527Z" fill="#4C5462"/>
<path d="M25.6667 8.85268C25.4334 8.85268 25.2 9.08598 25.2 9.31933C25.2 9.59932 25.3867 9.78597 25.6667 9.78597C25.9467 9.78597 26.1333 9.59932 26.1333 9.31933C26.1333 9.03933 25.9467 8.85268 25.6667 8.85268Z" fill="#4C5462"/>
<path d="M27.0667 10.2527C26.8334 10.2527 26.6 10.486 26.6 10.7193C26.6 10.9993 26.7867 11.186 27.0667 11.186C27.3467 11.186 27.5333 10.9993 27.5333 10.7193C27.5333 10.4393 27.3467 10.2527 27.0667 10.2527Z" fill="#4C5462"/>
<path d="M24.2667 10.2527C24.0333 10.2527 23.8001 10.486 23.8001 10.7193C23.8001 10.9993 23.9867 11.186 24.2667 11.186C24.5467 11.186 24.7333 10.9993 24.7333 10.7193C24.7333 10.4393 24.5467 10.2527 24.2667 10.2527Z" fill="#4C5462"/>
<path d="M22.8667 11.6527C22.6334 11.6526 22.4 11.886 22.4 12.1193C22.4 12.3993 22.5867 12.586 22.8667 12.586C23.1467 12.586 23.3333 12.3993 23.3333 12.1193C23.3333 11.8393 23.1467 11.6527 22.8667 11.6527Z" fill="#4C5462"/>
<path d="M20.0667 11.6527C19.8334 11.6526 19.6001 11.886 19.6001 12.1193C19.6001 12.3993 19.7867 12.586 20.0667 12.586C20.3467 12.586 20.5333 12.3993 20.5333 12.1193C20.5333 11.8393 20.3467 11.6527 20.0667 11.6527Z" fill="#4C5462"/>
<path d="M22.8667 8.85268C22.6334 8.85268 22.4 9.08598 22.4 9.31933C22.4 9.59932 22.5867 9.78597 22.8667 9.78597C23.1467 9.78597 23.3333 9.59932 23.3333 9.31933C23.3333 9.03933 23.1467 8.85268 22.8667 8.85268Z" fill="#4C5462"/>
<path d="M20.0667 8.85268C19.8334 8.85268 19.6001 9.08598 19.6001 9.31933C19.6001 9.59932 19.7867 9.78597 20.0667 9.78597C20.3467 9.78597 20.5333 9.59932 20.5333 9.31933C20.5333 9.03933 20.3467 8.85268 20.0667 8.85268Z" fill="#4C5462"/>
<path d="M21.4667 10.2527C21.2334 10.2527 21 10.486 21 10.7193C21 10.9993 21.1867 11.186 21.4667 11.186C21.7467 11.186 21.9333 10.9993 21.9333 10.7193C21.9333 10.4393 21.7467 10.2527 21.4667 10.2527Z" fill="#4C5462"/>
<path d="M18.6666 10.2527C18.4333 10.2527 18.2 10.486 18.2 10.7193C18.2 10.9993 18.3866 11.186 18.6666 11.186C18.9466 11.186 19.1333 10.9993 19.1333 10.7193C19.1333 10.4393 18.9466 10.2527 18.6666 10.2527Z" fill="#4C5462"/>
<path d="M17.2666 11.6527C17.0333 11.6526 16.8 11.886 16.8 12.1193C16.8 12.3993 16.9866 12.586 17.2666 12.586C17.5466 12.586 17.7333 12.3993 17.7333 12.1193C17.7333 11.8393 17.5467 11.6527 17.2666 11.6527Z" fill="#4C5462"/>
<path d="M14.4666 11.6527C14.2333 11.6526 14 11.886 14 12.1193C14 12.3993 14.1866 12.586 14.4666 12.586C14.7466 12.586 14.9333 12.3993 14.9333 12.1193C14.9333 11.8393 14.7466 11.6527 14.4666 11.6527Z" fill="#4C5462"/>
<path d="M17.2666 8.85268C17.0333 8.85268 16.8 9.08598 16.8 9.31933C16.8 9.59932 16.9866 9.78597 17.2666 9.78597C17.5466 9.78597 17.7333 9.59932 17.7333 9.31933C17.7333 9.03933 17.5467 8.85268 17.2666 8.85268Z" fill="#4C5462"/>
<path d="M14.4666 8.85268C14.2333 8.85268 14 9.08598 14 9.31933C14 9.59932 14.1866 9.78597 14.4666 9.78597C14.7466 9.78597 14.9333 9.59932 14.9333 9.31933C14.9333 9.03933 14.7466 8.85268 14.4666 8.85268Z" fill="#4C5462"/>
<path d="M15.8667 10.2527C15.6334 10.2527 15.4001 10.486 15.4001 10.7193C15.4001 10.9993 15.5867 11.186 15.8667 11.186C16.1467 11.186 16.3333 10.9993 16.3333 10.7193C16.3333 10.4393 16.1467 10.2527 15.8667 10.2527Z" fill="#4C5462"/>
<path d="M25.6667 6.05266C25.4334 6.05266 25.2 6.28601 25.2 6.5193C25.2 6.7993 25.3867 6.98595 25.6667 6.98595C25.9467 6.98595 26.1333 6.7993 26.1333 6.5193C26.1333 6.23931 25.9467 6.05266 25.6667 6.05266Z" fill="#4C5462"/>
<path d="M27.0667 7.45269C26.8334 7.45263 26.6 7.68598 26.6 7.91933C26.6 8.19933 26.7867 8.38597 27.0667 8.38597C27.3467 8.38597 27.5333 8.19933 27.5333 7.91933C27.5333 7.63933 27.3467 7.45269 27.0667 7.45269Z" fill="#4C5462"/>
<path d="M24.2667 7.45269C24.0333 7.45263 23.8001 7.68598 23.8001 7.91933C23.8001 8.19933 23.9867 8.38597 24.2667 8.38597C24.5467 8.38597 24.7333 8.19933 24.7333 7.91933C24.7333 7.63933 24.5467 7.45269 24.2667 7.45269Z" fill="#4C5462"/>
<path d="M27.0667 4.65269C26.8334 4.65269 26.6 4.88598 26.6 5.11933C26.6 5.39932 26.7867 5.58597 27.0667 5.58597C27.3467 5.58597 27.5333 5.39932 27.5333 5.11933C27.5333 4.83933 27.3467 4.65269 27.0667 4.65269Z" fill="#4C5462"/>
<path d="M24.2667 4.65269C24.0333 4.65269 23.8001 4.88598 23.8001 5.11933C23.8001 5.39932 23.9867 5.58597 24.2667 5.58597C24.5467 5.58597 24.7333 5.39932 24.7333 5.11933C24.7333 4.83933 24.5467 4.65269 24.2667 4.65269Z" fill="#4C5462"/>
<path d="M22.8667 6.05266C22.6334 6.05266 22.4 6.28601 22.4 6.5193C22.4 6.7993 22.5867 6.98595 22.8667 6.98595C23.1467 6.98595 23.3333 6.7993 23.3333 6.5193C23.3333 6.23931 23.1467 6.05266 22.8667 6.05266Z" fill="#4C5462"/>
<path d="M20.0667 6.05266C19.8334 6.05266 19.6001 6.28601 19.6001 6.5193C19.6001 6.7993 19.7867 6.98595 20.0667 6.98595C20.3467 6.98595 20.5333 6.7993 20.5333 6.5193C20.5333 6.23931 20.3467 6.05266 20.0667 6.05266Z" fill="#4C5462"/>
<path d="M21.4667 7.45269C21.2334 7.45263 21 7.68598 21 7.91933C21 8.19933 21.1867 8.38597 21.4667 8.38597C21.7467 8.38597 21.9333 8.19933 21.9333 7.91933C21.9333 7.63933 21.7467 7.45269 21.4667 7.45269Z" fill="#4C5462"/>
<path d="M18.6666 7.45269C18.4333 7.45263 18.2 7.68598 18.2 7.91933C18.2 8.19933 18.3866 8.38597 18.6666 8.38597C18.9466 8.38597 19.1333 8.19933 19.1333 7.91933C19.1333 7.63933 18.9466 7.45269 18.6666 7.45269Z" fill="#4C5462"/>
<path d="M21.4667 4.65269C21.2334 4.65269 21 4.88598 21 5.11933C21 5.39932 21.1867 5.58597 21.4667 5.58597C21.7467 5.58597 21.9333 5.39932 21.9333 5.11933C21.9333 4.83933 21.7467 4.65269 21.4667 4.65269Z" fill="#4C5462"/>
<path d="M18.6666 4.65269C18.4333 4.65269 18.2 4.88598 18.2 5.11933C18.2 5.39932 18.3866 5.58597 18.6666 5.58597C18.9466 5.58597 19.1333 5.39932 19.1333 5.11933C19.1333 4.83933 18.9466 4.65269 18.6666 4.65269Z" fill="#4C5462"/>
<path d="M17.2666 6.05266C17.0333 6.05266 16.8 6.28601 16.8 6.5193C16.8 6.7993 16.9866 6.98595 17.2666 6.98595C17.5466 6.98595 17.7333 6.7993 17.7333 6.5193C17.7333 6.23931 17.5467 6.05266 17.2666 6.05266Z" fill="#4C5462"/>
<path d="M14.4666 6.05266C14.2333 6.05266 14 6.28601 14 6.5193C14 6.7993 14.1866 6.98595 14.4666 6.98595C14.7466 6.98595 14.9333 6.7993 14.9333 6.5193C14.9333 6.23931 14.7466 6.05266 14.4666 6.05266Z" fill="#4C5462"/>
<path d="M15.8667 7.45269C15.6334 7.45263 15.4001 7.68598 15.4001 7.91933C15.4001 8.19933 15.5867 8.38597 15.8667 8.38597C16.1467 8.38597 16.3333 8.19933 16.3333 7.91933C16.3333 7.63933 16.1467 7.45269 15.8667 7.45269Z" fill="#4C5462"/>
<path d="M15.8667 4.65269C15.6334 4.65269 15.4001 4.88598 15.4001 5.11933C15.4001 5.39932 15.5867 5.58597 15.8667 5.58597C16.1467 5.58597 16.3333 5.39932 16.3333 5.11933C16.3333 4.83933 16.1467 4.65269 15.8667 4.65269Z" fill="#4C5462"/>
<path d="M25.6667 3.25272C25.4334 3.25266 25.2 3.48601 25.2 3.71936C25.2 3.99935 25.3867 4.186 25.6667 4.186C25.9467 4.186 26.1333 3.99935 26.1333 3.71936C26.1333 3.43936 25.9467 3.25272 25.6667 3.25272Z" fill="#4C5462"/>
<path d="M25.6667 0.45269C25.4334 0.45269 25.2 0.685983 25.2 0.919332C25.2 1.19933 25.3867 1.38597 25.6667 1.38597C25.9467 1.38597 26.1333 1.19933 26.1333 0.919332C26.1333 0.639336 25.9467 0.45269 25.6667 0.45269Z" fill="#4C5462"/>
<path d="M27.0667 1.85267C26.8334 1.85267 26.6 2.08602 26.6 2.31931C26.6 2.59931 26.7867 2.78595 27.0667 2.78595C27.3467 2.78595 27.5333 2.59931 27.5333 2.31931C27.5333 2.03931 27.3467 1.85267 27.0667 1.85267Z" fill="#4C5462"/>
<path d="M24.2667 1.85267C24.0333 1.85267 23.8001 2.08602 23.8001 2.31931C23.8001 2.59931 23.9867 2.78595 24.2667 2.78595C24.5467 2.78595 24.7333 2.59931 24.7333 2.31931C24.7333 2.03931 24.5467 1.85267 24.2667 1.85267Z" fill="#4C5462"/>
<path d="M22.8667 3.25272C22.6334 3.25266 22.4 3.48601 22.4 3.71936C22.4 3.99935 22.5867 4.186 22.8667 4.186C23.1467 4.186 23.3333 3.99935 23.3333 3.71936C23.3333 3.43936 23.1467 3.25272 22.8667 3.25272Z" fill="#4C5462"/>
<path d="M20.0667 3.25272C19.8334 3.25266 19.6001 3.48601 19.6001 3.71936C19.6001 3.99935 19.7867 4.186 20.0667 4.186C20.3467 4.186 20.5333 3.99935 20.5333 3.71936C20.5333 3.43936 20.3467 3.25272 20.0667 3.25272Z" fill="#4C5462"/>
<path d="M22.8667 0.45269C22.6334 0.45269 22.4 0.685983 22.4 0.919332C22.4 1.19933 22.5867 1.38597 22.8667 1.38597C23.1467 1.38597 23.3333 1.19933 23.3333 0.919332C23.3333 0.639336 23.1467 0.45269 22.8667 0.45269Z" fill="#4C5462"/>
<path d="M20.0667 0.45269C19.8334 0.45269 19.6001 0.685983 19.6001 0.919332C19.6001 1.19933 19.7867 1.38597 20.0667 1.38597C20.3467 1.38597 20.5333 1.19933 20.5333 0.919332C20.5333 0.639336 20.3467 0.45269 20.0667 0.45269Z" fill="#4C5462"/>
<path d="M21.4667 1.85267C21.2334 1.85267 21 2.08602 21 2.31931C21 2.59931 21.1867 2.78595 21.4667 2.78595C21.7467 2.78595 21.9333 2.59931 21.9333 2.31931C21.9333 2.03931 21.7467 1.85267 21.4667 1.85267Z" fill="#4C5462"/>
<path d="M18.6666 1.85267C18.4333 1.85267 18.2 2.08602 18.2 2.31931C18.2 2.59931 18.3866 2.78595 18.6666 2.78595C18.9466 2.78595 19.1333 2.59931 19.1333 2.31931C19.1333 2.03931 18.9466 1.85267 18.6666 1.85267Z" fill="#4C5462"/>
<path d="M17.2666 3.25272C17.0333 3.25266 16.8 3.48601 16.8 3.71936C16.8 3.99935 16.9866 4.186 17.2666 4.186C17.5466 4.186 17.7333 3.99935 17.7333 3.71936C17.7333 3.43936 17.5467 3.25272 17.2666 3.25272Z" fill="#4C5462"/>
<path d="M14.4666 3.25272C14.2333 3.25266 14 3.48601 14 3.71936C14 3.99935 14.1866 4.186 14.4666 4.186C14.7466 4.186 14.9333 3.99935 14.9333 3.71936C14.9333 3.43936 14.7466 3.25272 14.4666 3.25272Z" fill="#4C5462"/>
<path d="M17.2666 0.45269C17.0333 0.45269 16.8 0.685983 16.8 0.919332C16.8 1.19933 16.9866 1.38597 17.2666 1.38597C17.5466 1.38597 17.7333 1.19933 17.7333 0.919332C17.7333 0.639336 17.5467 0.45269 17.2666 0.45269Z" fill="#4C5462"/>
<path d="M14.4666 0.45269C14.2333 0.45269 14 0.685983 14 0.919332C14 1.19933 14.1866 1.38597 14.4666 1.38597C14.7466 1.38597 14.9333 1.19933 14.9333 0.919332C14.9333 0.639336 14.7466 0.45269 14.4666 0.45269Z" fill="#4C5462"/>
<path d="M15.8667 1.85267C15.6334 1.85267 15.4001 2.08602 15.4001 2.31931C15.4001 2.59931 15.5867 2.78595 15.8667 2.78595C16.1467 2.78595 16.3333 2.59931 16.3333 2.31931C16.3333 2.03931 16.1467 1.85267 15.8667 1.85267Z" fill="#4C5462"/>
<path d="M28 0.466642C28 0.186646 27.8134 0 27.5334 0H14H0.466642C0.186646 0 0 0.186646 0 0.466642V27.5334C0 27.8134 0.186646 28 0.466642 28H14C14.28 28 14.4667 27.8133 14.4666 27.5332V21.9333H25.6667C26.9734 21.9333 28 20.4866 28 18.6667C28 18.6667 28 18.6667 28 18.6666V0.466642ZM14.4667 0.933339H27.0667V16.0406C26.9393 15.9081 26.8013 15.7941 26.6551 15.7C26.6337 15.6862 26.6123 15.6724 26.5905 15.6595C26.5771 15.6516 26.5633 15.6443 26.5497 15.6366C26.5315 15.6264 26.5132 15.6162 26.4948 15.6067C26.4775 15.5977 26.46 15.5892 26.4425 15.5808C26.4286 15.5741 26.4148 15.5676 26.4009 15.5613C26.3798 15.5518 26.3587 15.5426 26.3374 15.5339C26.3289 15.5304 26.3202 15.5272 26.3116 15.5238C26.2027 15.4811 26.0903 15.449 25.9751 15.4284C25.9636 15.4263 25.9521 15.4242 25.9405 15.4223C25.9199 15.419 25.8993 15.4161 25.8785 15.4136C25.8598 15.4112 25.841 15.4095 25.8223 15.4077C25.8066 15.4063 25.7908 15.4047 25.775 15.4037C25.7389 15.4015 25.7028 15.4 25.6667 15.4H25.6666H14.4667V0.933339ZM12.1333 20.9999C11.69 20.9999 11.2796 20.6215 11.0193 20.0504C10.8412 19.6596 10.7333 19.1785 10.7333 18.6666C10.7333 18.391 10.7646 18.1243 10.8212 17.8758C11.0236 16.9884 11.5499 16.3333 12.1333 16.3333H13.9987C13.9991 16.3333 13.9995 16.3333 14 16.3333H24.0231C23.5955 16.9238 23.3333 17.7474 23.3333 18.6667C23.3333 19.5859 23.5955 20.4095 24.023 20.9999H12.1333ZM13.5334 27.0667H0.933339V0.933339H13.5333V15.4H12.1334H12.1333C10.8267 15.4 9.79997 16.8467 9.79997 18.6667C9.79997 20.4866 10.8266 21.9333 12.1333 21.9333H12.1334H13.5333V27.0667H13.5334ZM25.6667 20.9999C25.2234 20.9999 24.813 20.6215 24.5526 20.0504C24.3746 19.6596 24.2667 19.1785 24.2667 18.6666C24.2667 18.391 24.2979 18.1243 24.3546 17.8758C24.5568 16.989 25.0826 16.3342 25.6655 16.3333H25.6667C26.172 16.3333 26.6343 16.8253 26.8806 17.5337C26.9982 17.872 27.0667 18.2594 27.0667 18.6666C27.0667 19.9266 26.4134 20.9999 25.6667 20.9999Z" fill="#4C5462"/>
</svg>
