<svg width="17" height="13" viewBox="0 0 17 13" fill="none" xmlns="http://www.w3.org/2000/svg">
<path d="M15.068 13C15.4399 13 15.7622 12.8772 16.0361 12.6347L11.3485 7.94694C11.2361 8.02748 11.127 8.10579 11.0241 8.18026C10.6733 8.43871 10.3886 8.6404 10.1699 8.78491C9.95134 8.92976 9.6605 9.0774 9.29745 9.22814C8.93415 9.37906 8.5957 9.45428 8.28173 9.45428H8.27254H8.26335C7.94935 9.45428 7.6109 9.37909 7.24763 9.22814C6.88437 9.0774 6.59353 8.92976 6.37514 8.78491C6.15655 8.6404 5.87199 8.43874 5.52101 8.18026C5.4232 8.10855 5.31473 8.02988 5.19746 7.94568L0.508972 12.6347C0.7829 12.8772 1.10537 13 1.47726 13H15.068Z" fill="white"/>
<path d="M0.932627 4.99508C0.581859 4.76122 0.270803 4.4934 0 4.19171V11.3238L4.13162 7.19215C3.30506 6.61509 2.24008 5.88358 0.932627 4.99508Z" fill="white"/>
<path d="M15.6222 4.99508C14.3646 5.84627 13.2957 6.57905 12.4155 7.1938L16.5455 11.3239V4.19171C16.2807 4.48733 15.9729 4.75498 15.6222 4.99508Z" fill="white"/>
<path d="M15.0685 0H1.47779C1.00365 0 0.639123 0.160109 0.38376 0.479996C0.128187 0.800034 0.000610352 1.20028 0.000610352 1.68027C0.000610352 2.06799 0.169911 2.48809 0.508363 2.94069C0.846814 3.39311 1.20695 3.74847 1.5886 4.00696C1.79782 4.15478 2.42877 4.59341 3.48143 5.3227C4.04968 5.71649 4.54386 6.05972 4.96852 6.3559C5.33049 6.60811 5.64266 6.82653 5.9004 7.00778C5.92999 7.02854 5.97652 7.06182 6.03828 7.10598C6.10481 7.15377 6.18901 7.21442 6.29289 7.28943C6.49292 7.4341 6.6591 7.55104 6.79145 7.64038C6.92362 7.72974 7.08376 7.82956 7.27163 7.94041C7.45934 8.0511 7.63639 8.13434 7.80257 8.1897C7.96877 8.24504 8.12264 8.27279 8.26418 8.27279H8.27337H8.28256C8.42408 8.27279 8.57797 8.24504 8.74421 8.1897C8.91035 8.13434 9.08725 8.05128 9.27512 7.94041C9.4628 7.82956 9.62273 7.72953 9.75533 7.64038C9.88768 7.55104 10.0539 7.43413 10.2539 7.28943C10.3576 7.21442 10.4418 7.15374 10.5083 7.10613C10.5701 7.06179 10.6166 7.02872 10.6464 7.00778C10.8472 6.86807 11.16 6.65056 11.5807 6.35845C12.3462 5.82661 13.4735 5.04382 14.9674 4.00696C15.4167 3.69314 15.7921 3.31443 16.0937 2.87139C16.3949 2.42834 16.5459 1.9636 16.5459 1.47733C16.5459 1.07105 16.3995 0.723404 16.1074 0.433856C15.8149 0.144669 15.4686 0 15.0685 0Z" fill="white"/>
</svg>
