<svg width="33" height="24" viewBox="0 0 33 24" fill="none" xmlns="http://www.w3.org/2000/svg">
<path d="M28.4512 2.69174H25.1684C24.8401 2.69174 24.6213 2.90706 24.6213 3.23007C24.6213 3.55308 24.8401 3.7684 25.1684 3.7684H28.4512C28.7795 3.7684 28.9984 3.55308 28.9984 3.23007C28.9984 2.90713 28.7795 2.69174 28.4512 2.69174Z" fill="#4C5462"/>
<path d="M28.4512 4.84509H25.1684C24.8401 4.84509 24.6213 5.06041 24.6213 5.38342C24.6213 5.70643 24.8401 5.92175 25.1684 5.92175H28.4512C28.7795 5.92175 28.9984 5.70643 28.9984 5.38342C28.9984 5.06041 28.7795 4.84509 28.4512 4.84509Z" fill="#4C5462"/>
<path d="M32.3359 6.94481L31.7888 2.15339C31.7341 1.23817 31.0228 0.538331 30.0926 0.538331H13.6785C13.6785 0.215319 13.4596 0 13.1314 0H10.9428C10.6145 0 10.3957 0.215319 10.3957 0.538331V2.15339H8.20711C7.00337 2.15339 6.01854 3.12242 6.01854 4.30684V4.84517H0.54711C0.218831 4.84517 0 5.06049 0 5.3835C0 5.70652 0.218831 5.92183 0.54711 5.92183H6.01847V6.46017C6.01847 7.64458 7.00331 8.61362 8.20704 8.61362H10.3956V11.7899H9.30133C9.0825 11.7899 8.91836 11.8976 8.80891 12.0591C8.75422 12.2206 8.69946 12.4359 8.80891 12.5974L9.8485 14.6432V21.9112L9.35608 22.8802C9.24664 23.0417 9.24664 23.257 9.35608 23.4185C9.46553 23.58 9.68436 23.6877 9.8485 23.6877H14.2256C14.4445 23.6877 14.6634 23.58 14.7181 23.4185C14.7728 23.257 14.8275 23.0417 14.7181 22.8802L14.2256 21.9112V14.6433L15.2652 12.5976C15.3747 12.4361 15.3747 12.2208 15.2652 12.0592C15.1558 11.8977 14.937 11.79 14.7728 11.79H13.6785V9.59856C14.2717 10.238 15.0624 10.7099 15.9766 10.9287C18.6876 11.5564 21.502 11.5741 24.2189 10.9821L25.1685 14.1588C25.2779 14.3741 25.4968 14.5356 25.7156 14.5356H26.8099V18.2503C26.8099 18.8426 26.5911 19.3809 26.1533 19.8116L25.9345 20.0269C25.4421 20.5114 25.1685 21.1574 25.1685 21.8573V22.1804C25.1685 22.9879 25.8797 23.6878 26.7005 23.6878H31.187C32.1172 23.6878 32.8284 22.988 32.8284 22.0727L32.8831 15.0202L32.3359 6.94481ZM8.20711 7.53696C7.60524 7.53696 7.11282 7.05244 7.11282 6.46023V4.30678C7.11282 3.71457 7.60524 3.23005 8.20711 3.23005H10.3957V7.53696H8.20711ZM13.186 22.2881L13.3502 22.6111H10.7239L10.888 22.2881C10.9427 22.2342 10.9427 22.1804 10.9427 22.0727V14.5356C10.9427 14.428 10.9427 14.3741 10.888 14.3203L10.1768 12.9206H10.9428H13.1314H13.8974L13.1861 14.3203C13.1314 14.3741 13.1314 14.428 13.1314 14.5356V22.0727C13.1314 22.1804 13.186 22.2342 13.186 22.2881ZM12.5842 11.79H11.4899V8.07535V2.69178V1.07673H12.5295V6.67568C12.5295 6.90793 12.5487 7.13576 12.5842 7.35833V11.79ZM26.1533 13.4589L25.3367 10.7274L26.8098 10.3903V13.459H26.1533V13.4589ZM31.1869 22.6111H26.7004C26.4815 22.6111 26.2627 22.3957 26.2627 22.1804V21.8573C26.2627 21.4266 26.4268 21.0498 26.7004 20.7806L26.9192 20.5653C27.5211 19.9731 27.904 19.1118 27.904 18.2503V9.69041C27.904 9.5289 27.7946 9.3674 27.6852 9.25971C27.6401 9.23751 27.5949 9.21551 27.5498 9.1971C27.4479 9.13399 27.3205 9.11013 27.1928 9.15201L24.4571 9.79804C24.4539 9.79964 24.4503 9.80169 24.4469 9.80336L24.2382 9.85192C21.6119 10.4441 18.8762 10.4441 16.25 9.85192C14.718 9.5289 13.6785 8.18298 13.6785 6.67561V1.61506H30.0926C30.3662 1.61506 30.6397 1.88426 30.6397 2.20727V2.26108L31.1868 7.0525L31.7339 15.074V17.2275H30.0926C29.7643 17.2275 29.5454 17.4428 29.5454 17.7658C29.5454 18.0888 29.7643 18.3042 30.0926 18.3042H31.7339V19.3809H30.0926C29.7643 19.3809 29.5454 19.5962 29.5454 19.9192C29.5454 20.2422 29.7643 20.4575 30.0926 20.4575H31.7339V22.0726C31.7341 22.3957 31.5152 22.6111 31.1869 22.6111Z" fill="#4C5462"/>
<path d="M15.8671 2.69174C15.5388 2.69174 15.3199 2.90706 15.3199 3.23007V7.53698C15.3199 7.86 15.5388 8.07532 15.8671 8.07532H20.2442C20.5725 8.07532 20.7913 7.86 20.7913 7.53698C20.7913 5.1144 18.3292 2.69174 15.8671 2.69174ZM16.4142 6.99865V3.82235C17.8914 4.09155 19.3688 5.5451 19.6423 6.99865H16.4142Z" fill="#4C5462"/>
</svg>
