<svg width="33" height="23" viewBox="0 0 33 23" fill="none" xmlns="http://www.w3.org/2000/svg">
<path d="M32.7274 2.06728C32.7274 1.75719 32.5092 1.55048 32.1819 1.55048H31.091V1.03367C31.091 0.465143 30.6001 0 30.0001 0H15.2727H6.00004H2.7273C2.12728 0 1.63637 0.465143 1.63637 1.03367V1.55048H0.545435C0.218161 1.55048 0 1.75719 0 2.06728C0 4.67069 1.02644 7.10724 2.7273 9.05188V17.0552V20.673C2.7273 21.81 3.70912 22.7403 4.9091 22.7403H27.8183C29.0182 22.7403 30.0001 21.81 30.0001 20.673V17.0552V9.05188C31.7009 7.10724 32.7274 4.67069 32.7274 2.06728ZM3.81817 10.1494C5.98879 12.0774 8.90459 13.3187 12.0849 13.4286C12.299 14.0453 12.8983 14.4711 13.6364 14.4711H19.0909C19.8289 14.4711 20.4283 14.0453 20.6424 13.4286C23.8227 13.3187 26.7385 12.0774 28.9091 10.1494V16.5384H3.81817V10.1494ZM7.6364 6.20191C8.05675 6.20191 8.4769 6.10555 8.84853 5.86752C9.18303 6.67934 9.99233 7.23552 10.9091 7.23552C10.9203 7.23552 10.9314 7.23485 10.9426 7.23473C10.9497 7.23479 10.9566 7.23552 10.9637 7.23552C12.1637 7.23552 13.1455 6.30523 13.1455 5.16823V4.51576C13.246 4.55125 13.3463 4.57978 13.4467 4.60128C14.0621 4.75257 14.8067 4.57627 15.2728 4.13462H28.9092V8.26919H3.81817V4.13456H5.45454C5.45454 5.27162 6.43636 6.20191 7.6364 6.20191ZM20.6362 12.3945C20.4167 11.7876 19.8217 11.3701 19.091 11.3701H13.6364C12.9056 11.3701 12.3107 11.7876 12.0912 12.3945C9.15222 12.2844 6.45042 11.1132 4.45789 9.30286H28.2696C26.277 11.1132 23.5751 12.2844 20.6362 12.3945ZM19.6364 12.9206C19.6364 13.2307 19.4183 13.4374 19.091 13.4374H13.6364C13.3092 13.4374 13.091 13.2307 13.091 12.9206C13.091 12.6105 13.3092 12.4038 13.6364 12.4038H19.091C19.4183 12.4038 19.6364 12.6105 19.6364 12.9206ZM31.6364 2.58409C31.5326 4.28955 30.9449 5.90102 30.0001 7.30692V4.13456C30.6001 4.13456 31.091 3.66942 31.091 3.10089V2.58409H31.6364ZM30.0001 3.10095H29.4546H15.8182C15.8182 2.99757 15.8182 2.9459 15.8182 2.84252V1.03361H30.0001V3.10095H30.0001ZM14.7273 2.84252C14.7273 3.01804 14.6489 3.15595 14.5917 3.25691C14.4575 3.44927 14.237 3.58778 13.9914 3.6134C13.964 3.616 13.9366 3.61776 13.9091 3.61776C13.9091 3.61776 13.9091 3.61776 13.909 3.61776C13.8816 3.61776 13.8542 3.616 13.8269 3.61346C13.426 3.57167 13.0909 3.22978 13.0909 2.84258V2.06734C13.0909 1.75725 12.8728 1.55054 12.5455 1.55054C12.2182 1.55054 12.0001 1.75725 12.0001 2.06734V2.84258V3.10101V3.61776V5.16823C12.0001 5.73676 11.5092 6.20191 10.9091 6.20191C10.3091 6.20191 9.81821 5.73676 9.81821 5.16823V4.13456V2.58409C9.81821 2.27399 9.60005 2.06728 9.27277 2.06728C8.9455 2.06728 8.72734 2.27399 8.72734 2.58409V4.13456C8.72734 4.70309 8.23643 5.16823 7.6364 5.16823C7.03638 5.16823 6.54547 4.70309 6.54547 4.13456V3.61776V1.03361H14.7273V2.84252ZM2.7273 1.03361H5.4546V3.10089H3.27274H2.7273V1.03361ZM1.63637 2.58409V3.10089C1.63637 3.66942 2.12728 4.13456 2.7273 4.13456V7.30692C1.78243 5.90102 1.1948 4.28955 1.09093 2.58409H1.63637ZM27.8183 21.7067H4.9091C4.30908 21.7067 3.81817 21.2415 3.81817 20.673V17.572H28.9091V20.673C28.9092 21.2415 28.4183 21.7067 27.8183 21.7067Z" fill="#4C5462"/>
</svg>
