<svg width="105" height="29" viewBox="0 0 105 29" fill="none" xmlns="http://www.w3.org/2000/svg">
<g clip-path="url(#clip0)">
<path fill-rule="evenodd" clip-rule="evenodd" d="M101.378 0.00415039C102.026 0.00415039 102.636 0.156656 103.208 0.499793C103.742 0.804804 104.161 1.26232 104.504 1.79609C104.809 2.32986 105 2.93988 105 3.62615C105 4.2743 104.809 4.88432 104.504 5.41809C104.161 5.98999 103.742 6.40938 103.208 6.71439C102.636 7.05753 102.026 7.21003 101.378 7.21003C100.73 7.21003 100.12 7.05753 99.5479 6.71439C99.0142 6.40938 98.5566 5.98999 98.2516 5.41809C97.9466 4.88432 97.756 4.2743 97.756 3.62615C97.756 2.93988 97.9466 2.32986 98.2516 1.79609C98.5948 1.26232 99.0142 0.804804 99.5479 0.499793C100.12 0.156656 100.73 0.00415039 101.378 0.00415039ZM99.7386 1.64358H101.759C102.331 1.64358 102.712 1.75796 102.941 1.98672C103.17 2.17735 103.284 2.48236 103.284 2.90175C103.284 3.16864 103.17 3.3974 102.979 3.62615C102.789 3.85491 102.522 3.96929 102.179 3.96929L103.132 5.5706H102.102L101.34 4.04554H100.692V5.5706H99.7386V1.64358ZM100.692 2.36798V3.3974H101.836C102.217 3.3974 102.369 3.20676 102.369 2.86363C102.369 2.52049 102.217 2.36798 101.836 2.36798H100.692ZM78.5784 24.1381V3.51178H89.1394C90.6645 3.51178 91.9608 3.70241 93.0283 4.15992C94.0577 4.57931 94.8965 5.15121 95.5065 5.87561C96.1166 6.56188 96.5741 7.32441 96.8028 8.12506C97.0697 8.96385 97.1841 9.7645 97.1841 10.6033C97.1841 12.4715 96.5741 14.149 95.354 15.5597C94.0959 17.0085 92.037 17.7329 89.1394 17.7329H86.6993V24.1381H78.5784ZM86.6993 8.84947V12.3952H87.5762C88.8725 12.3952 89.5207 11.7852 89.5207 10.6033C89.5207 9.45949 88.8725 8.84947 87.5762 8.84947H86.6993ZM63.061 18.1523V3.51178H77.2059V9.49761H71.1438V11.2133H76.5959V16.1697H71.1438V18.1523H77.2059V24.1381H63.2135V28.2558H56.3508V24.1381H45.8279V28.2558H38.927V18.1523C42.2821 16.0553 42.9684 13.7678 42.9684 9.30698V3.51178H60.7734V18.1523H63.061ZM50.2505 9.49761V12.3952C50.2505 13.9584 50.098 15.1784 49.793 16.0553C49.488 16.9704 49.0305 17.6567 48.4205 18.1523H52.6906V9.49761H50.2505ZM11.7429 18.1904C12.4292 18.1904 13.0773 17.9998 13.6874 17.6948C14.2974 17.3516 14.7549 16.856 15.1362 16.2079C15.5174 15.5597 15.6699 14.7972 15.6699 13.844C15.6699 12.929 15.5174 12.1283 15.1362 11.4802C14.7549 10.832 14.2974 10.3364 13.6874 9.99326C13.0773 9.68825 12.4292 9.53574 11.7429 9.53574C11.0185 9.53574 10.3704 9.68825 9.76035 9.99326C9.15033 10.3364 8.65468 10.832 8.31155 11.4802C7.93028 12.1283 7.73965 12.929 7.73965 13.844C7.73965 14.7591 7.93028 15.5597 8.31155 16.2079C8.65468 16.856 9.15033 17.3516 9.76035 17.6948C10.3704 17.9998 11.0185 18.1904 11.7429 18.1904ZM31.2636 8.88759V12.3952H32.1405C33.4368 12.3952 34.085 11.8233 34.085 10.6414C34.085 9.49761 33.4368 8.88759 32.1405 8.88759H31.2636ZM11.7429 24.7863C9.8366 24.7863 8.12091 24.4813 6.63399 23.9094C5.14706 23.2994 3.92702 22.4987 2.93573 21.4693C1.94444 20.4018 1.22004 19.258 0.724401 17.9235C0.228758 16.6272 0 15.2547 0 13.844C0 12.4333 0.228758 11.0608 0.724401 9.7645C1.22004 8.43008 1.94444 7.24816 2.93573 6.21875C3.92702 5.18934 5.14706 4.38868 6.63399 3.81679C8.12091 3.20676 9.79847 2.90175 11.7429 2.90175C13.6492 2.90175 15.3268 3.20676 16.8137 3.81679C18.3007 4.38868 19.5207 5.18934 20.512 6.21875C21.4651 7.24816 22.2277 8.43008 22.6852 9.72637C22.8758 10.2601 23.0283 10.7558 23.1427 11.2896V3.5499H33.7037C35.2288 3.5499 36.5251 3.74053 37.5926 4.19805C38.622 4.61744 39.4608 5.18934 40.0708 5.91374C40.6808 6.60001 41.1383 7.36254 41.3671 8.16319C41.634 9.00197 41.7484 9.80262 41.7484 10.6414C41.7484 12.5096 41.1383 14.149 39.9183 15.5978C38.6601 17.0466 36.6013 17.771 33.7037 17.771H31.2636V24.1763H23.1427V16.3985C23.0283 16.9323 22.8758 17.4279 22.6852 17.9617C22.2277 19.258 21.4651 20.4399 20.512 21.4693C19.5207 22.4987 18.2625 23.2994 16.8137 23.9094C15.3268 24.4813 13.6111 24.7863 11.7429 24.7863Z" fill="url(#paint0_linear)"/>
</g>
<defs>
<linearGradient id="paint0_linear" x1="51.8831" y1="10.9446" x2="51.8831" y2="29.2434" gradientUnits="userSpaceOnUse">
<stop stop-color="#E31E24"/>
<stop offset="0.439216" stop-color="#CE2423"/>
<stop offset="1" stop-color="#B92B22"/>
</linearGradient>
<clipPath id="clip0">
<rect width="105" height="28.2602" fill="white"/>
</clipPath>
</defs>
</svg>
