<svg width="34" height="51" viewBox="0 0 34 51" fill="none" xmlns="http://www.w3.org/2000/svg">
<path d="M29.75 0H4.25003C1.90712 0 0 1.90603 0 4.25003V46.7501C0 49.094 1.90712 51 4.25003 51H29.75C32.0929 51 34.0001 49.094 34.0001 46.75V4.25003C34.0001 1.90603 32.0929 0 29.75 0ZM31.875 46.75C31.875 47.9214 30.9224 48.8749 29.75 48.8749H4.25003C3.07753 48.8749 2.12507 47.9214 2.12507 46.75V42.4999H31.8751V46.75H31.875ZM31.875 40.375H2.12507V4.25003C2.12507 3.07863 3.07763 2.12507 4.25003 2.12507H29.75C30.9225 2.12507 31.875 3.07863 31.875 4.25003V40.375Z" fill="#4C5462"/>
<path d="M15.9375 6.37507H18.0625C18.6498 6.37507 19.125 5.89983 19.125 5.31253C19.125 4.72524 18.6498 4.25 18.0625 4.25H15.9375C15.3502 4.25 14.875 4.72524 14.875 5.31253C14.8751 5.89983 15.3503 6.37507 15.9375 6.37507Z" fill="#4C5462"/>
<path d="M13.8125 46.75H20.1875C20.7748 46.75 21.2501 46.2747 21.2501 45.6874C21.2501 45.1001 20.7748 44.625 20.1875 44.625H13.8125C13.2252 44.625 12.75 45.1002 12.75 45.6875C12.75 46.2748 13.2252 46.75 13.8125 46.75Z" fill="#4C5462"/>
<path d="M28.6875 6.37507C29.2744 6.37507 29.7501 5.89935 29.7501 5.31253C29.7501 4.72571 29.2744 4.25 28.6875 4.25C28.1007 4.25 27.625 4.72571 27.625 5.31253C27.625 5.89935 28.1007 6.37507 28.6875 6.37507Z" fill="#4C5462"/>
<path d="M17 23.375C19.9302 23.375 22.3124 20.9917 22.3124 18.0626C22.3124 15.1335 19.9302 12.75 17 12.75C14.0698 12.75 11.6875 15.1334 11.6875 18.0625C11.6875 20.9916 14.0698 23.375 17 23.375ZM17 14.875C18.7577 14.875 20.1875 16.3048 20.1875 18.0625C20.1875 19.8202 18.7577 21.25 17 21.25C15.2423 21.25 13.8125 19.8202 13.8125 18.0625C13.8125 16.3049 15.2423 14.875 17 14.875Z" fill="#4C5462"/>
<path d="M24.2673 26.6299C22.5698 25.6296 19.9301 24.4375 17 24.4375C14.0699 24.4375 11.4301 25.6297 9.7327 26.6299C8.31735 27.4651 7.4375 29.0869 7.4375 30.8622V31.5428C7.4375 32.8979 8.4585 33.9999 9.71397 33.9999H24.286C25.5415 33.9999 26.5625 32.8979 26.5625 31.5428V30.8622C26.5625 29.0869 25.6827 27.4651 24.2673 26.6299ZM24.4375 31.5429C24.4375 31.764 24.3109 31.8749 24.286 31.8749H9.71397C9.68907 31.8749 9.56247 31.7639 9.56247 31.5429V30.8623C9.56247 29.8507 10.0522 28.9085 10.8118 28.4602C12.281 27.5948 14.5471 26.5625 17 26.5625C19.4529 26.5625 21.719 27.5949 23.1882 28.4602C23.9478 28.9085 24.4375 29.8506 24.4375 30.8623V31.5429Z" fill="#4C5462"/>
</svg>
