<svg width="18" height="24" viewBox="0 0 18 24" fill="none" xmlns="http://www.w3.org/2000/svg">
<path fill-rule="evenodd" clip-rule="evenodd" d="M5.76174 16.3086H8.78909V0C3.95509 0 0 4.00392 0 8.83792C0 10.4981 0.439454 12.0118 1.46485 13.5743L3.17384 16.3086H5.76174Z" fill="#FFED00"/>
<path fill-rule="evenodd" clip-rule="evenodd" d="M4.78517 16.3086H5.76174C3.32032 11.2793 3.75978 5.51759 5.51759 2.39259C6.3965 0.878909 7.56838 0 8.78909 0C3.95509 0 0 4.00392 0 8.83792C0 10.4981 0.439454 12.0118 1.46485 13.5743L3.17384 16.3086H4.78517Z" fill="#E31E24"/>
<path fill-rule="evenodd" clip-rule="evenodd" d="M12.5 16.7969L11.4746 18.5059H13.086L14.1114 16.7969H12.5ZM11.1329 18.9942H6.49416H4.88283H4.73635C4.34572 18.9942 4.05275 19.336 4.05275 19.6778C4.05275 20.0684 4.34572 20.3614 4.73635 20.3614H5.41994V22.461C5.41994 22.8028 5.71291 23.1446 6.10354 23.1446H11.5235C11.9141 23.1446 12.2071 22.8028 12.2071 22.461V20.3614H12.8907C13.2325 20.3614 13.5254 20.0684 13.5254 19.6778C13.5254 19.336 13.2325 18.9942 12.8907 18.9942H12.7442H11.1329ZM6.15237 18.5059L5.07815 16.7969H3.46681L4.54103 18.5059H6.15237Z" fill="#9D9E9E"/>
<path fill-rule="evenodd" clip-rule="evenodd" d="M17.627 8.83792C17.627 4.00392 13.6719 0 8.78909 0C11.4746 0 13.5254 3.90626 13.5254 8.83792C13.5254 11.8164 12.793 13.9161 11.7188 16.3086H12.8418H14.4532L16.1622 13.5743C17.1387 12.0118 17.627 10.4981 17.627 8.83792Z" fill="#51AF44"/>
<path fill-rule="evenodd" clip-rule="evenodd" d="M8.78909 0V16.3086H11.7188C12.793 13.9161 13.5254 11.8164 13.5254 8.83792C13.5254 3.90626 11.4746 0 8.78909 0Z" fill="#007FC6"/>
<path fill-rule="evenodd" clip-rule="evenodd" d="M11.1328 18.9942H6.49416H6.44534H4.88283H4.73635C4.34572 18.9942 4.05275 19.336 4.05275 19.6778C4.05275 20.0684 4.34572 20.3614 4.73635 20.3614H5.41994V22.461C5.41994 22.8028 5.71291 23.1446 6.10354 23.1446H11.5235C11.9141 23.1446 12.2071 22.8028 12.2071 22.461V20.3614H12.8907C13.2325 20.3614 13.5254 20.0684 13.5254 19.6778C13.5254 19.336 13.2325 18.9942 12.8907 18.9942H12.7442H11.1328Z" fill="#B57846"/>
</svg>
