<svg width="29" height="23" viewBox="0 0 29 23" fill="none" xmlns="http://www.w3.org/2000/svg">
<path d="M19.7354 8.09294V8.23492V21.7232H27.5444V8.23492V8.09294C27.5444 7.52501 27.4024 7.24105 26.9765 6.95709C26.8345 6.81511 26.6925 6.81511 26.6925 6.67312C26.1246 6.1052 25.6986 5.39529 25.4147 4.5434C25.1307 3.69152 24.9887 2.83963 24.9887 2.12972C24.8467 1.84576 24.5628 1.70378 24.4208 1.5618C24.1368 1.41981 23.8529 1.27783 23.7109 1.27783C23.4269 1.27783 23.143 1.41981 22.859 1.5618C22.717 1.70378 22.575 1.84576 22.2911 2.12972C22.2911 2.83963 22.1491 3.69152 21.8651 4.5434C21.5812 5.39529 21.1552 6.1052 20.5873 6.67312C20.5873 6.81511 20.4453 6.81511 20.3033 6.95709C19.8774 7.24105 19.7354 7.52501 19.7354 8.09294ZM1.27783 21.7232H9.22879V7.80898L8.23492 6.53114C8.09294 6.38916 8.09294 6.24718 8.09294 6.1052V4.82737H7.24105C7.09907 4.82737 6.81511 4.68539 6.67312 4.5434L5.67926 3.26557C5.67926 3.12359 5.53727 2.98161 5.53727 2.83963V1.84576C5.53727 1.70378 5.67926 1.5618 5.82124 1.41981C5.53727 1.27783 5.39529 1.27783 5.25331 1.27783C5.11133 1.27783 4.82737 1.41981 4.68539 1.41981C4.82737 1.5618 4.82737 1.70378 4.82737 1.84576V2.83963C4.82737 3.12359 4.82737 3.26557 4.68539 3.26557L3.69152 4.5434C3.54953 4.68539 3.40755 4.82737 3.26557 4.82737H2.41368V6.1052C2.41368 6.24718 2.2717 6.38916 2.2717 6.53114L1.27783 7.66699V21.7232ZM9.79671 23.001H0.709907C0.283963 23.001 0 22.717 0 22.2911V7.52501C0 7.38303 0 7.24105 0.141981 7.09907L1.13585 5.82124V5.25331C0.851888 5.11133 0.709907 4.96935 0.709907 4.68539V4.11746C0.709907 3.8335 0.99387 3.54953 1.41981 3.54953H2.83963L3.54953 2.69765V2.41368C3.26557 2.41368 3.12359 2.12972 3.12359 1.84576V1.27783C3.12359 1.13585 3.26557 0.99387 3.40755 0.851888C3.97548 0.283963 4.5434 0 5.25331 0C5.82124 0 6.38916 0.283963 6.95709 0.851888C7.09907 0.851888 7.24105 1.13585 7.24105 1.27783V1.84576C7.24105 2.12972 7.09907 2.41368 6.95709 2.41368V2.69765L7.52501 3.54953H9.08681C9.51275 3.54953 9.79671 3.8335 9.79671 4.11746V4.68539C9.79671 4.96935 9.65473 5.11133 9.37077 5.25331V5.82124L10.0807 6.81511H10.2227V5.67926C10.2227 5.25331 10.5066 4.96935 10.9326 4.96935H11.3585V3.8335C11.3585 3.54953 11.6425 3.26557 11.9264 3.26557H12.2104V2.12972C12.2104 1.70378 12.4944 1.41981 12.9203 1.41981H13.0623V0.709907C13.0623 0.425944 13.3462 0.141981 13.7722 0.141981H15.192C15.476 0.141981 15.7599 0.425944 15.7599 0.709907V1.41981H16.0439C16.3279 1.41981 16.6118 1.70378 16.6118 2.12972V3.26557H16.8958C17.3217 3.26557 17.6057 3.54953 17.6057 3.8335V4.96935H18.0316C18.3156 4.96935 18.5996 5.25331 18.5996 5.67926V6.81511H18.7415C18.8835 6.53114 19.1675 6.24718 19.4514 5.96322C19.5934 5.96322 19.5934 5.82124 19.7354 5.67926C20.1614 5.39529 20.4453 4.82737 20.5873 4.25944C20.8713 3.40755 21.0132 2.55566 21.0132 1.84576C21.0132 1.84576 21.0132 1.70378 21.1552 1.5618C21.4392 1.13585 21.8651 0.709907 22.2911 0.425944C22.717 0.141981 23.143 0 23.7109 0C24.1368 0 24.7048 0.141981 25.1307 0.425944C25.5566 0.709907 25.8406 1.13585 26.1246 1.5618C26.2666 1.5618 26.2666 1.70378 26.2666 1.84576C26.2666 2.55566 26.4085 3.40755 26.6925 4.25944C26.8345 4.82737 27.1184 5.39529 27.5444 5.67926C27.6864 5.82124 27.8284 5.96322 27.8284 5.96322C28.5383 6.53114 28.9642 6.95709 28.9642 8.09294V8.23492V22.2911C28.9642 22.717 28.5383 23.001 28.2543 23.001H19.0255C19.0255 23.001 19.0255 23.001 18.8835 23.001H9.9387C9.9387 23.001 9.9387 23.001 9.79671 23.001ZM10.5066 8.09294V21.7232H18.4576V8.23492V8.09294H18.0316C17.6057 8.09294 17.3217 7.80898 17.3217 7.38303V6.24718H16.8958C16.6118 6.24718 16.3279 5.96322 16.3279 5.67926V4.40142H16.0439C15.618 4.40142 15.334 4.11746 15.334 3.8335V2.69765H15.192C14.7661 2.69765 14.4821 2.41368 14.4821 2.12972V1.27783H14.3401V2.12972C14.3401 2.41368 14.0562 2.69765 13.7722 2.69765H13.4882V3.8335C13.4882 4.11746 13.2043 4.40142 12.9203 4.40142H12.6363V5.67926C12.6363 5.96322 12.3524 6.24718 11.9264 6.24718H11.5005V7.38303C11.5005 7.80898 11.2165 8.09294 10.9326 8.09294H10.5066Z" fill="#6B6B6B"/>
<path fill-rule="evenodd" clip-rule="evenodd" d="M13.6302 9.08679H16.0439V11.5005H13.6302V9.08679Z" fill="#6B6B6B"/>
<path fill-rule="evenodd" clip-rule="evenodd" d="M24.4208 8.94482H25.9826V12.2104H24.4208V8.94482Z" fill="#6B6B6B"/>
<path fill-rule="evenodd" clip-rule="evenodd" d="M21.2972 8.94482H23.001V12.2104H21.2972V8.94482Z" fill="#6B6B6B"/>
<path fill-rule="evenodd" clip-rule="evenodd" d="M21.4392 16.6118H23.5689V22.0071H21.4392V16.6118Z" fill="#6B6B6B"/>
<path fill-rule="evenodd" clip-rule="evenodd" d="M12.0684 13.0623H14.3401V15.4759H12.0684V13.0623Z" fill="#6B6B6B"/>
<path fill-rule="evenodd" clip-rule="evenodd" d="M13.7722 16.8958H16.1859V19.3095H13.7722V16.8958Z" fill="#6B6B6B"/>
<path fill-rule="evenodd" clip-rule="evenodd" d="M5.9632 8.94482H7.80895V12.2104H5.9632V8.94482Z" fill="#6B6B6B"/>
<path fill-rule="evenodd" clip-rule="evenodd" d="M2.69763 8.94482H4.54339V12.2104H2.69763V8.94482Z" fill="#6B6B6B"/>
<path fill-rule="evenodd" clip-rule="evenodd" d="M5.9632 14.1981H7.80895V17.6057H5.9632V14.1981Z" fill="#6B6B6B"/>
<path fill-rule="evenodd" clip-rule="evenodd" d="M2.69763 14.1981H4.54339V17.6057H2.69763V14.1981Z" fill="#6B6B6B"/>
</svg>
