<svg width="27" height="22" viewBox="0 0 27 22" fill="none" xmlns="http://www.w3.org/2000/svg">
<path fill-rule="evenodd" clip-rule="evenodd" d="M2.38398 8.74127H4.10575V2.51643C4.10575 1.19199 5.1653 0.132444 6.48973 0.132444H11.9199C13.7741 0.132444 15.3635 1.32444 15.8932 3.17865L18.5421 11.655H20.5288V0.662218C20.5288 0.264887 20.7936 0 21.191 0C21.4559 0 21.8532 0.264887 21.8532 0.662218V18.6745H26.0914C26.4887 18.6745 26.7536 18.9394 26.7536 19.3368C26.7536 19.7341 26.4887 19.999 26.0914 19.999H21.191C20.7936 19.999 20.5288 19.7341 20.5288 19.3368V16.423H18.807V18.4097C18.807 20.2639 17.2177 21.7207 15.4959 21.7207C13.9066 21.7207 12.5821 20.7936 12.1848 19.3368V19.0719H6.62218L6.48973 19.3368C6.0924 20.7936 4.76797 21.7207 3.31109 21.7207C1.45688 21.7207 0 20.2639 0 18.4097V11.1253C0 9.80082 1.05955 8.74127 2.38398 8.74127ZM18.807 15.0986H20.5288V12.9795H18.807V15.0986ZM16.8203 10.5955L13.5092 8.2115V9.66838C13.5092 10.0657 13.1119 10.3306 12.847 10.3306C12.4497 10.3306 12.0524 10.0657 12.0524 9.66838C12.0524 8.2115 12.0524 6.75462 12.0524 5.29774C12.0524 4.90041 12.4497 4.50308 12.847 4.50308C13.1119 4.50308 13.5092 4.90041 13.5092 5.29774V6.62218L16.2906 8.47639L14.5688 3.44353C14.1715 2.25154 13.1119 1.45688 11.9199 1.45688H6.48973C5.95996 1.45688 5.43019 1.85421 5.43019 2.51643V9.13861L7.2844 10.5955V5.29774C7.2844 4.90041 7.54928 4.50308 7.94661 4.50308C8.34394 4.50308 8.60883 4.90041 8.60883 5.29774V11.655H17.2177L16.8203 10.5955ZM13.5092 18.4097C13.5092 19.4692 14.3039 20.3963 15.4959 20.3963C16.5554 20.3963 17.3501 19.4692 17.3501 18.4097C17.3501 17.3501 16.5554 16.423 15.4959 16.423C14.3039 16.423 13.5092 17.3501 13.5092 18.4097ZM3.31109 20.3963C4.37064 20.3963 5.29774 19.4692 5.29774 18.4097C5.29774 17.3501 4.37064 16.423 3.31109 16.423C2.25154 16.423 1.32444 17.3501 1.32444 18.4097C1.32444 19.4692 2.25154 20.3963 3.31109 20.3963ZM1.72177 15.6283C2.1191 15.231 2.78131 15.0986 3.31109 15.0986C4.76797 15.0986 6.0924 16.1581 6.48973 17.615L6.62218 17.7474H12.1848V17.615C12.5821 16.1581 13.9066 15.0986 15.4959 15.0986C16.0257 15.0986 16.5554 15.231 17.0852 15.6283L17.3501 15.7608V12.9795H7.94661C7.81417 12.9795 7.68173 12.847 7.54928 12.7146L4.50308 10.0657H2.38398C1.85421 10.0657 1.32444 10.463 1.32444 11.1253V15.7608L1.72177 15.6283Z" fill="white"/>
</svg>
