<svg width="18" height="24" viewBox="0 0 18 24" fill="none" xmlns="http://www.w3.org/2000/svg">
<path fill-rule="evenodd" clip-rule="evenodd" d="M17.6259 8.72392C17.6259 3.91686 13.709 0 8.72392 0C3.91686 0 0 3.91686 0 8.72392C0 10.5043 0.534118 11.9286 1.42431 13.531L4.80706 19.0502C4.27294 19.0502 4.0949 19.2282 4.0949 19.5843C4.0949 19.9404 4.27294 20.2965 4.80706 20.2965H5.34118V22.4329C5.34118 22.789 5.69726 23.1451 6.05333 23.1451H11.5726C11.9286 23.1451 12.1067 22.789 12.1067 22.4329V20.2965H12.8188C13.1749 20.2965 13.531 19.9404 13.531 19.5843C13.531 19.2282 13.1749 19.0502 12.8188 19.0502H12.6408L16.2016 13.531C17.0918 11.9286 17.6259 10.5043 17.6259 8.72392ZM6.40941 19.0502L4.80706 16.2016H12.8188L11.0384 19.0502H6.40941ZM5.34118 8.18981C5.51922 6.05333 6.05333 4.0949 6.94353 2.67059C7.29961 2.13647 7.65569 1.78039 8.18981 1.60235V14.9553H6.58745C5.51922 12.2847 5.34118 9.79216 5.34118 8.18981ZM10.8604 14.9553H9.43608V1.60235C9.9702 1.78039 10.5043 2.49255 11.0384 3.38275C11.7506 4.80706 12.1067 6.76549 12.1067 8.72392C12.1067 11.0384 11.7506 12.8188 10.8604 14.9553ZM2.67059 12.8188C1.78039 11.3945 1.42431 10.1482 1.42431 8.72392C1.42431 5.69726 3.20471 3.20471 5.69726 1.95843C4.80706 3.56078 4.0949 5.69726 4.0949 8.01177C3.91686 10.3263 4.27294 12.6408 5.16314 14.9553H3.91686C3.91686 14.7773 2.67059 12.8188 2.67059 12.8188ZM6.76549 21.7208V20.2965H10.8604V21.7208H6.76549ZM13.709 14.9553H12.2847C12.9969 12.8188 13.531 11.0384 13.531 8.72392C13.531 6.58745 12.9969 4.45098 12.2847 2.67059C12.1067 2.49255 11.9286 2.31451 11.7506 1.95843C14.4212 3.20471 16.2016 5.69726 16.2016 8.72392C16.2016 10.1482 15.8455 11.3945 14.9553 12.8188C14.9553 12.8188 13.709 14.7773 13.709 14.9553Z" fill="#6B6B6B"/>
</svg>
