<svg width="28" height="22" viewBox="0 0 28 22" fill="none" xmlns="http://www.w3.org/2000/svg">
<path fill-rule="evenodd" clip-rule="evenodd" d="M0 21.76H9.22637V6.89452L8.13397 5.47735V4.0159H8.4735V3.54351H6.61346L5.60963 2.24443V1.27013H5.96392V0.650117C5.00438 -0.235615 4.14817 -0.191328 3.17387 0.650117C3.17387 1.00441 3.17387 0.915836 3.17387 1.27013H3.52816V2.2592L2.55386 3.54351H0.752872V4.0159H1.0924V5.46259L0 6.89452V21.76Z" fill="#E31E24"/>
<path fill-rule="evenodd" clip-rule="evenodd" d="M9.22638 6.79119V21.76H18.438V6.79119H17.4046V5.00496H16.327V3.20398H15.3674V1.44728H14.5703V0.0596313H13.0941V1.44728H12.2969V3.20398H11.3374V5.00496H10.2597V6.79119H9.22638Z" fill="#EF7F1A"/>
<path fill-rule="evenodd" clip-rule="evenodd" d="M18.4528 7.4112V7.67692V21.76H18.5561H27.6201H27.6791V7.67692V7.4112C27.6791 6.43689 27.192 6.2007 26.5129 5.56592C25.5091 4.60638 25.0219 2.53968 25.0219 1.27013C23.9738 -0.397999 22.1433 -0.33895 21.0952 1.27013C21.0952 2.53968 20.608 4.60638 19.619 5.56592C18.9399 6.2007 18.4528 6.43689 18.4528 7.4112Z" fill="#7E71B1"/>
<path fill-rule="evenodd" clip-rule="evenodd" d="M13.0203 8.51837H15.4413V10.9394H13.0203V8.51837Z" fill="#FEFEFE"/>
<path fill-rule="evenodd" clip-rule="evenodd" d="M23.7671 8.25262H25.4647V11.6332H23.7671V8.25262Z" fill="#FEFEFE"/>
<path fill-rule="evenodd" clip-rule="evenodd" d="M20.6671 8.25262H22.3499V11.6332H20.6671V8.25262Z" fill="#FEFEFE"/>
<path fill-rule="evenodd" clip-rule="evenodd" d="M20.7852 16.0471H22.9404V21.76H20.7852V16.0471Z" fill="#FEFEFE"/>
<path fill-rule="evenodd" clip-rule="evenodd" d="M11.3817 12.4156H13.7879V14.8366H11.3817V12.4156Z" fill="#FEFEFE"/>
<path fill-rule="evenodd" clip-rule="evenodd" d="M13.1088 16.2242H15.5298V18.6452H13.1088V16.2242Z" fill="#FEFEFE"/>
<path fill-rule="evenodd" clip-rule="evenodd" d="M5.32916 8.25262H7.20396V11.6332H5.32916V8.25262Z" fill="#FEFEFE"/>
<path fill-rule="evenodd" clip-rule="evenodd" d="M2.0224 8.25262H3.8972V11.6332H2.0224V8.25262Z" fill="#FEFEFE"/>
<path fill-rule="evenodd" clip-rule="evenodd" d="M5.32916 13.6113H7.20396V16.9919H5.32916V13.6113Z" fill="#FEFEFE"/>
<path fill-rule="evenodd" clip-rule="evenodd" d="M2.0224 13.6113H3.8972V16.9919H2.0224V13.6113Z" fill="#FEFEFE"/>
</svg>
