<svg width="15" height="14" viewBox="0 0 15 14" fill="none" xmlns="http://www.w3.org/2000/svg">
<path d="M13.7172 11.0733L11.5502 8.9061C11.1186 8.47621 10.4038 8.48927 9.95712 8.9361L8.86539 10.0276C8.79641 9.98957 8.72502 9.94987 8.64996 9.90774C7.96054 9.52574 7.01695 9.00217 6.02402 8.00851C5.02815 7.01276 4.50409 6.06772 4.12093 5.37786C4.08049 5.30478 4.04175 5.23431 4.0035 5.16739L4.73621 4.43577L5.09644 4.07509C5.54378 3.62763 5.55612 2.91305 5.1255 2.48192L2.95852 0.314451C2.52791 -0.116083 1.81281 -0.103021 1.36547 0.344444L0.754738 0.95868L0.771428 0.975248C0.566642 1.23655 0.395517 1.53793 0.268171 1.86292C0.150782 2.17228 0.0776956 2.46748 0.0442768 2.76329C-0.241859 5.13542 0.842135 7.30337 3.78396 10.2452C7.85045 14.3114 11.1275 14.0043 11.2689 13.9893C11.5768 13.9525 11.8719 13.8789 12.1718 13.7624C12.4939 13.6366 12.7951 13.4657 13.0562 13.2613L13.0696 13.2732L13.6883 12.6673C14.1347 12.22 14.1476 11.5051 13.7172 11.0733Z" fill="white"/>
</svg>
