<svg width="21" height="22" viewBox="0 0 21 22" fill="none" xmlns="http://www.w3.org/2000/svg">
<path d="M5.21828 19.4027H2.40846C2.06965 19.4027 1.86524 19.2097 1.77357 19.0946C1.61532 18.8958 1.55401 18.6371 1.60548 18.3847C2.42965 14.3427 5.92333 11.3908 9.95653 11.295C10.0237 11.2976 10.0911 11.2993 10.1588 11.2993C10.2271 11.2993 10.2951 11.2975 10.3628 11.2949C11.3491 11.3179 12.3124 11.5072 13.2294 11.8588C13.6397 12.0162 14.0973 11.804 14.2514 11.385C14.4055 10.9661 14.1977 10.4989 13.7874 10.3416C13.656 10.2912 13.5237 10.244 13.3907 10.1993C14.7043 9.19322 15.5557 7.59068 15.5557 5.78892C15.5557 2.75052 13.1347 0.278564 10.1588 0.278564C7.18294 0.278564 4.76193 2.75052 4.76193 5.78892C4.76193 7.5923 5.61479 9.1961 6.93032 10.202C5.72511 10.6071 4.59415 11.237 3.60438 12.0683C1.78961 13.5924 0.527811 15.7183 0.0514979 18.0544C-0.0977889 18.7864 0.0810219 19.5383 0.542097 20.1171C1.00083 20.6931 1.68111 21.0234 2.40846 21.0234H5.21828C5.65662 21.0234 6.01194 20.6606 6.01194 20.2131C6.01194 19.7655 5.65662 19.4027 5.21828 19.4027ZM6.34924 5.78892C6.34924 3.64413 8.05819 1.89926 10.1588 1.89926C12.2594 1.89926 13.9683 3.64413 13.9683 5.78892C13.9683 7.87017 12.3591 9.57477 10.3443 9.67392C10.2825 9.67278 10.2207 9.67181 10.1588 9.67181C10.0967 9.67181 10.0347 9.67274 9.97272 9.67388C7.95823 9.57445 6.34924 7.86997 6.34924 5.78892Z" fill="#F2F2F2"/>
<path d="M20.3818 14.3118C20.0362 13.544 19.2575 13.0465 18.3963 13.0446H15.8779C15.8761 13.0446 15.8744 13.0446 15.8726 13.0446C14.9641 13.0446 14.1715 13.5762 13.8526 14.4C13.8101 14.5097 13.7583 14.6477 13.7041 14.8087H8.417C8.19869 14.8087 7.9897 14.8965 7.8376 15.052L6.45043 16.4709C6.14491 16.7834 6.14644 17.2809 6.45387 17.5915L7.86704 19.0194C8.01885 19.1728 8.22638 19.2592 8.44296 19.2592H11.0674C11.5134 19.2592 11.8749 18.9002 11.8749 18.4573C11.8749 18.0144 11.5134 17.6554 11.0674 17.6554H8.78156L8.15863 17.026L8.7585 16.4125H14.3099C14.6819 16.4125 15.0058 16.1601 15.0942 15.8013C15.1596 15.5364 15.2415 15.2817 15.3601 14.9755C15.4382 14.7736 15.6345 14.6483 15.8745 14.6483C15.875 14.6483 15.8755 14.6483 15.8761 14.6483H18.3944C18.6228 14.6489 18.8193 14.7708 18.9074 14.9664C19.1241 15.448 19.383 16.1936 19.3849 17.0106C19.3869 17.8337 19.1283 18.5964 18.911 19.0913C18.8233 19.2909 18.6251 19.4196 18.4038 19.4196C18.4034 19.4196 18.4029 19.4196 18.4025 19.4196H15.8537C15.6303 19.4191 15.4211 19.2763 15.3331 19.0644C15.2386 18.8371 15.1568 18.5775 15.0828 18.2707C14.979 17.84 14.5431 17.5744 14.1096 17.6775C13.6758 17.7805 13.4084 18.2133 13.5122 18.644C13.6059 19.0329 13.7132 19.3704 13.8401 19.6759C14.1792 20.4924 14.9681 21.0213 15.8519 21.0234H18.4006C18.4024 21.0234 18.404 21.0234 18.4057 21.0234C19.2678 21.0233 20.0469 20.517 20.3914 19.7323C20.6705 19.0967 21.0026 18.108 21 17.0068C20.9974 15.9087 20.6624 14.9351 20.3818 14.3118Z" fill="#F2F2F2"/>
<path d="M17.1112 17.8318C17.5408 17.8318 17.889 17.4746 17.889 17.034C17.889 16.5933 17.5408 16.2361 17.1112 16.2361C16.6816 16.2361 16.3334 16.5933 16.3334 17.034C16.3334 17.4746 16.6816 17.8318 17.1112 17.8318Z" fill="#F2F2F2"/>
</svg>
