<?xml version="1.0" encoding="UTF-8"?>
<!DOCTYPE svg PUBLIC "-//W3C//DTD SVG 1.1//EN" "http://www.w3.org/Graphics/SVG/1.1/DTD/svg11.dtd">
<!-- Creator: CorelDRAW X8 -->
<svg xmlns="http://www.w3.org/2000/svg" xml:space="preserve" width="6.3331mm" height="6.3331mm" version="1.1" style="shape-rendering:geometricPrecision; text-rendering:geometricPrecision; image-rendering:optimizeQuality; fill-rule:evenodd; clip-rule:evenodd"
viewBox="0 0 191 191"
 xmlns:xlink="http://www.w3.org/1999/xlink">
 <defs>
  <style type="text/css">
   <![CDATA[
    .fil0 {fill:#2B2A29;fill-rule:nonzero}
   ]]>
  </style>
 </defs>
 <g id="Слой_x0020_1">
  <metadata id="CorelCorpID_0Corel-Layer"/>
  <path class="fil0" d="M73 147l-21 0 0 -102 49 0c7,0 13,1 18,4 5,2 9,6 12,10 2,4 4,9 4,15 0,7 -3,13 -8,19 -4,5 -11,8 -20,9 5,2 8,4 11,8 3,3 6,8 11,16l12 21 -26 0 -8 -17c-4,-7 -7,-12 -10,-16 -3,-3 -6,-6 -8,-7 -3,-1 -7,-2 -11,-2l-5 0 0 42zm0 -86l0 28 17 0c7,0 13,-1 17,-3 4,-2 6,-6 6,-12 0,-4 -2,-7 -5,-9 -4,-2 -9,-4 -16,-4l-19 0zm23 -61c13,0 25,2 37,7 11,5 21,12 30,21 9,9 16,19 21,31 5,11 7,24 7,37 0,17 -4,33 -13,48 -8,14 -20,26 -34,34 -15,9 -31,13 -48,13 -18,0 -34,-4 -48,-13 -15,-8 -27,-20 -35,-34 -9,-15 -13,-31 -13,-48 0,-18 4,-34 13,-48 8,-15 20,-27 35,-35 14,-9 30,-13 48,-13zm0 19c-14,0 -27,3 -39,10 -11,7 -21,16 -28,28 -7,12 -10,25 -10,39 0,13 3,26 10,38 7,12 17,21 28,28 12,7 25,11 39,11 14,0 27,-4 39,-11 11,-7 21,-16 27,-28 7,-12 11,-25 11,-38 0,-14 -4,-27 -11,-39 -7,-12 -16,-21 -28,-28 -11,-7 -24,-10 -38,-10z"/>
 </g>
</svg>
