<svg width="10" height="10" viewBox="0 0 10 10" fill="none" xmlns="http://www.w3.org/2000/svg">
<path d="M5.96094 8.67383H3.78711V10H1.73633V8.67383H0.348633V7.0127H1.73633V6.49316H0.348633V4.83203H1.73633V0.046875H5.60547C6.35286 0.046875 7.00911 0.181315 7.57422 0.450195C8.13932 0.719076 8.57682 1.10417 8.88672 1.60547C9.20117 2.10221 9.3584 2.6696 9.3584 3.30762C9.3584 4.29199 9.02344 5.06901 8.35352 5.63867C7.68815 6.20833 6.76074 6.49316 5.57129 6.49316H3.78711V7.0127H5.96094V8.67383ZM3.78711 4.83203H5.55762C6.70605 4.83203 7.28027 4.32845 7.28027 3.32129C7.28027 2.84277 7.13444 2.45768 6.84277 2.16602C6.55111 1.86979 6.14779 1.7194 5.63281 1.71484H3.78711V4.83203Z" fill="#535353"/>
</svg>
