<svg width="28" height="28" viewBox="0 0 28 28" fill="none" xmlns="http://www.w3.org/2000/svg">
<path fill-rule="evenodd" clip-rule="evenodd" d="M11.2536 1.27273H3.18182C2.12746 1.27273 1.27273 2.12746 1.27273 3.18182V11.2536H11.2536V1.27273ZM3.18182 0C1.42455 0 0 1.42455 0 3.18182V12.5263H12.5263V0H3.18182Z" fill="#4C5462"/>
<path fill-rule="evenodd" clip-rule="evenodd" d="M24.8181 1.27273H16.7464V11.2536H26.7272V3.18182C26.7272 2.12746 25.8725 1.27273 24.8181 1.27273ZM15.4736 0V12.5263H27.9999V3.18182C27.9999 1.42455 26.5754 0 24.8181 0H15.4736Z" fill="#4C5462"/>
<path fill-rule="evenodd" clip-rule="evenodd" d="M16.7465 16.7464L16.7465 26.7273L24.8183 26.7273C25.8726 26.7273 26.7273 25.8725 26.7273 24.8182L26.7273 16.7464L16.7465 16.7464ZM15.4738 28L24.8183 28C26.5755 28 28.0001 26.5755 28.0001 24.8182L28.0001 15.4737L15.4738 15.4737L15.4738 28Z" fill="#4C5462"/>
<path fill-rule="evenodd" clip-rule="evenodd" d="M3.18187 26.7273L11.2536 26.7273L11.2536 16.7464L1.27278 16.7464L1.27278 24.8182C1.27278 25.8725 2.12751 26.7273 3.18187 26.7273ZM12.5264 28L12.5264 15.4737L5.35472e-05 15.4737L5.27303e-05 24.8182C5.25766e-05 26.5754 1.4246 28 3.18187 28L12.5264 28Z" fill="#4C5462"/>
</svg>
