<svg width="53" height="33" viewBox="0 0 53 33" fill="none" xmlns="http://www.w3.org/2000/svg">
<path d="M39.9393 23.7712C40.5251 24.357 41.4749 24.357 42.0607 23.7712L51.6066 14.2252C52.1924 13.6395 52.1924 12.6897 51.6066 12.1039C51.0208 11.5181 50.0711 11.5181 49.4853 12.1039L41 20.5892L32.5147 12.1039C31.9289 11.5181 30.9792 11.5181 30.3934 12.1039C29.8076 12.6897 29.8076 13.6395 30.3934 14.2252L39.9393 23.7712ZM39.5 1L39.5 22.7105L42.5 22.7105L42.5 1L39.5 1Z" fill="#ffffff"/>
<path d="M51.0614 27.9598H26.0063V0.966797C26.0063 0.432867 25.5861 0 25.0677 0C24.5493 0 24.1291 0.432867 24.1291 0.966797V12.9137L19.8973 2.95105C19.1943 1.29622 17.2701 0 15.5166 0H6.46821C4.56474 0 3.01613 1.59502 3.01613 3.55562V16.5981C1.31783 16.8196 0 18.316 0 20.1244V26.3376C0 28.2983 1.54861 29.8934 3.45209 29.8934H4.13497C4.55754 31.6742 6.11904 33 7.97627 33C9.83344 33 11.3948 31.6742 11.8174 29.8934H18.2103C18.6328 31.6742 20.1943 33 22.0516 33C23.9087 33 25.4701 31.6742 25.8927 29.8934H51.0614C51.5797 29.8934 52 29.4605 52 28.9266C52 28.3926 51.5797 27.9598 51.0614 27.9598ZM6.46821 1.93359H15.5166C16.5284 1.93359 17.7718 2.77123 18.1774 3.72616L23.6325 16.5688H21.435L16.6862 11.6776L17.4443 10.8967C17.8109 10.5192 17.8109 9.90696 17.4443 9.52946C17.0778 9.15196 16.4835 9.15196 16.1169 9.52946L14.6954 10.9937L13.2732 12.4586C12.9066 12.8361 12.9066 13.4483 13.2732 13.8258C13.4565 14.0146 13.6967 14.109 13.9369 14.109C14.1771 14.109 14.4173 14.0146 14.6005 13.8258L15.3586 13.0449L18.78 16.5688H8.9149V9.25115C8.9149 8.71722 8.49465 8.28435 7.97627 8.28435C7.4579 8.28435 7.03765 8.71722 7.03765 9.25115V16.5687H4.89338V3.55562C4.89338 2.66121 5.59986 1.93359 6.46821 1.93359ZM1.87726 26.3377V20.1245C1.87726 19.23 2.58373 18.5024 3.45209 18.5024H24.1291L24.1289 25.4624C23.5248 25.0766 22.8132 24.8531 22.0516 24.8531C20.1943 24.8531 18.6328 26.1789 18.2103 27.9598H11.8174C11.3948 26.1789 9.83344 24.8531 7.97627 24.8531C6.11904 24.8531 4.55754 26.1789 4.13497 27.9598H3.45209C2.58373 27.9598 1.87726 27.2321 1.87726 26.3377ZM7.97627 31.0664C6.83127 31.0664 5.89972 30.1073 5.89884 28.9282L5.8989 28.9266L5.89884 28.9249C5.89972 27.7458 6.83127 26.7867 7.97627 26.7867C9.12171 26.7867 10.0536 27.7467 10.0536 28.9266C10.0536 30.1064 9.12165 31.0664 7.97627 31.0664ZM22.0515 31.0664C20.9059 31.0664 19.974 30.1064 19.974 28.9266C19.974 27.7467 20.906 26.7867 22.0515 26.7867C23.1969 26.7867 24.1288 27.7467 24.1288 28.9266C24.1288 30.1064 23.1969 31.0664 22.0515 31.0664Z" fill="#ffffff"/>
</svg>
