<svg width="47" height="51" viewBox="0 0 47 51" fill="none" xmlns="http://www.w3.org/2000/svg">
<path d="M45.7344 29.2072C47.2382 16.5487 45.0119 8.55705 40.9961 4.94244L40.9982 4.94034C34.5167 -1.23244 12.6274 -2.14607 4.8731 5.21758C1.39081 8.81959 0.164236 14.106 0.029817 20.6506C-0.104602 27.1972 -0.264225 39.4608 11.1635 42.7877H11.174L11.1635 47.8683C11.1635 47.8683 11.0858 49.9266 12.4006 50.3404C13.9044 50.8276 14.5849 49.872 19.2622 44.2852C27.0837 44.9636 33.0906 43.4094 33.7732 43.1826C35.3526 42.6533 44.2894 41.4708 45.7344 29.2072ZM20.0331 40.7105C20.0331 40.7105 15.0826 46.8833 13.5431 48.4858C13.0391 49.0067 12.4867 48.9584 12.4951 47.925C12.4951 47.2466 12.5329 39.4902 12.5329 39.4902C2.84422 36.7136 3.4155 26.271 3.52051 20.8081C3.62553 15.3431 4.62527 10.8674 7.57409 7.85345C14.3769 1.47485 33.5674 2.90095 38.4569 7.4964C44.4343 12.7954 42.3067 27.7664 42.3193 28.2767C41.0906 38.5136 33.8488 39.1626 32.5172 39.6057C31.948 39.7948 26.6658 41.1537 20.0331 40.7105Z" fill="#794999"/>
<path d="M22.7725 9.05273C21.9639 9.05273 21.9639 10.3129 22.7725 10.3234C29.0461 10.3717 34.2128 14.7445 34.2695 22.7656C34.2695 23.612 35.5087 23.6015 35.4982 22.7551H35.4961C35.4289 14.1124 29.7875 9.10104 22.7725 9.05273Z" fill="#794999"/>
<path d="M31.0249 21.4363C31.006 22.2722 32.2431 22.3121 32.2536 21.4657C32.3565 16.7001 29.4182 12.7746 23.8965 12.3609C23.0879 12.3021 23.0039 13.5727 23.8104 13.6315C28.5991 13.9949 31.1215 17.263 31.0249 21.4363Z" fill="#794999"/>
<path d="M29.7009 26.8567C28.6634 26.2561 27.6069 26.6299 27.1701 27.2201L26.2564 28.4026C25.7923 29.0032 24.9248 28.9234 24.9248 28.9234C18.5946 27.2495 16.9017 20.6252 16.9017 20.6252C16.9017 20.6252 16.824 19.7283 17.4037 19.2474L18.5462 18.3022C19.1175 17.8486 19.4788 16.7564 18.897 15.6832C17.3428 12.8751 16.2989 11.9068 15.7676 11.1633C15.2089 10.4639 14.3688 10.3064 13.495 10.779H13.4761C11.6594 11.8417 9.67039 13.8307 10.3068 15.8785C11.3926 18.0376 13.3879 24.9203 19.7476 30.1206C22.7363 32.5801 27.4662 35.1004 29.4741 35.6822L29.493 35.7116C31.4715 36.3711 33.3953 34.3044 34.4224 32.433V32.4183C34.8782 31.5131 34.7269 30.6562 34.0611 30.0954C32.8808 28.9444 31.0997 27.6738 29.7009 26.8567Z" fill="#794999"/>
<path d="M24.7608 17.0484C26.7792 17.166 27.7579 18.2204 27.8629 20.3858C27.9007 21.2322 29.1294 21.1734 29.0916 20.327C28.9572 17.5 27.4828 15.9247 24.828 15.7777C24.0194 15.7294 23.9438 17.0001 24.7608 17.0484Z" fill="#794999"/>
</svg>
