<svg width="49" height="49" viewBox="0 0 49 49" fill="none" xmlns="http://www.w3.org/2000/svg">
<path d="M41.7191 7.11568C37.116 2.52978 30.9925 0.00261689 24.4753 0C17.9727 0 11.8395 2.52492 7.20615 7.1097C2.56454 11.7023 0.00598145 17.8056 0 24.2731V24.2806V24.285C0.000747681 28.1995 1.02918 32.1484 2.98138 35.753L0.0669174 49L13.4665 45.9521C16.8602 47.6624 20.6468 48.5641 24.466 48.5656H24.4757C30.9772 48.5656 37.1104 46.0403 41.7445 41.4552C46.3902 36.8588 48.9499 30.7633 48.9529 24.2918C48.9548 17.8658 46.3861 11.7659 41.7191 7.11568ZM24.4753 44.7412H24.4667C21.0375 44.7397 17.6397 43.8788 14.6411 42.2507L14.0074 41.9068L5.09731 43.9333L7.03268 35.1376L6.65959 34.4942C4.8046 31.2953 3.82439 27.764 3.82439 24.2809C3.83149 13.007 13.0945 3.82439 24.4746 3.82439C29.9723 3.82663 35.138 5.95789 39.02 9.8249C42.9606 13.7517 45.13 18.889 45.1281 24.2906C45.1236 35.5672 35.8588 44.7412 24.4753 44.7412Z" fill="#64B161"/>
<path d="M17.8144 13.5767H16.7415C16.368 13.5767 15.7616 13.7165 15.2487 14.2746C14.7355 14.8331 13.2891 16.1831 13.2891 18.9286C13.2891 21.674 15.2955 24.3268 15.5751 24.6995C15.8551 25.0719 19.4481 30.8858 25.1387 33.1225C29.8681 34.9813 30.8308 34.6115 31.857 34.5184C32.8835 34.4257 35.1696 33.1689 35.6361 31.8661C36.1027 30.5632 36.1027 29.4462 35.9629 29.2129C35.8227 28.9804 35.4492 28.8409 34.8896 28.562C34.3295 28.2828 31.5856 26.91 31.0723 26.7235C30.559 26.5377 30.1859 26.4446 29.8124 27.0035C29.439 27.5613 28.3395 28.8518 28.0128 29.2241C27.6864 29.5968 27.3597 29.6436 26.7997 29.3643C26.2396 29.0843 24.4549 28.4847 22.3162 26.5841C20.6515 25.1048 19.4963 23.2184 19.1696 22.6599C18.8432 22.1017 19.1348 21.7997 19.4156 21.5211C19.6672 21.2714 20.007 20.9297 20.287 20.6041C20.5666 20.2781 20.6462 20.0456 20.8332 19.6732C21.0197 19.3009 20.9262 18.9749 20.7864 18.696C20.6462 18.4168 19.5718 15.6575 19.0739 14.5539H19.0742C18.6548 13.6245 18.2133 13.5931 17.8144 13.5767Z" fill="#64B161"/>
</svg>
